<svg width="24" height="25" viewBox="0 0 24 25" fill="none" xmlns="http://www.w3.org/2000/svg">
<path fill-rule="evenodd" clip-rule="evenodd" d="M5 6.5H9C10.1046 6.5 11 7.39543 11 8.5V19.0585L10.5562 18.9105C9.74042 18.6386 8.88619 18.5 8.02633 18.5H5C4.44772 18.5 4 18.0523 4 17.5V7.5C4 6.94772 4.44772 6.5 5 6.5ZM12.3162 21.3946C12.111 21.463 11.889 21.463 11.6838 21.3946L9.9237 20.8079C9.3119 20.604 8.67123 20.5 8.02633 20.5H5C3.34315 20.5 2 19.1569 2 17.5V7.5C2 5.84315 3.34315 4.5 5 4.5H9C10.1947 4.5 11.2671 5.02376 12 5.85418C12.7329 5.02376 13.8053 4.5 15 4.5H19C20.6569 4.5 22 5.84315 22 7.5V17.5C22 19.1569 20.6569 20.5 19 20.5H15.9737C15.3288 20.5 14.6881 20.604 14.0763 20.8079L12.3162 21.3946ZM15 6.5H19C19.5523 6.5 20 6.94772 20 7.5V17.5C20 18.0523 19.5523 18.5 19 18.5H15.9737C15.1138 18.5 14.2596 18.6386 13.4438 18.9105L13 19.0585V8.5C13 7.39543 13.8954 6.5 15 6.5Z" fill="black"/>
</svg>
