<svg width="80" height="95" viewBox="0 0 80 95" fill="none" xmlns="http://www.w3.org/2000/svg">
<ellipse cx="38.9495" cy="79.0754" rx="38.01" ry="15.0754" fill="#12191D" fill-opacity="0.1"/>
<mask id="mask0_4043_16432" style="mask-type:luminance" maskUnits="userSpaceOnUse" x="0" y="0" width="80" height="95">
<path d="M76.9595 71.8462C76.9595 84.1647 59.9419 94.1509 38.9495 94.1509C17.9572 94.1509 0.939529 84.1647 0.939529 71.8462C0.939529 59.5277 -7.02539 0.844742 38.9495 0.844742C94.427 0.844742 76.9595 59.5277 76.9595 71.8462Z" fill="white"/>
</mask>
<g mask="url(#mask0_4043_16432)">
<mask id="path-3-outside-1_4043_16432" maskUnits="userSpaceOnUse" x="-40.7002" y="3.98712" width="119" height="216" fill="black">
<rect fill="white" x="-40.7002" y="3.98712" width="119" height="216"/>
<path d="M1.58868 196.445C1.04545 195.468 0.990949 195.522 0.82794 197.261C0.719244 198.293 0.719244 202.37 0.82794 206.228C0.990983 212.098 1.20907 213.674 2.18732 215.468C2.78514 216.663 3.8715 217.967 4.57794 218.402C5.71924 219.054 6.20914 219 8.76349 217.968C10.2849 217.37 12.1319 216.88 12.8387 216.935C13.4909 216.989 14.5784 216.826 15.285 216.663C15.9371 216.446 16.4803 216.5 16.4803 216.826C16.4804 217.098 17.0239 217.369 17.7303 217.369C18.7085 217.369 18.9262 217.098 18.8719 215.848C18.8719 215.033 19.1433 214.054 19.5779 213.674C19.9584 213.348 21.2631 212.859 22.4588 212.587C23.7629 212.369 24.6866 211.826 24.9041 211.228C25.1215 210.522 24.6325 210.087 22.8934 209.435C21.5891 208.945 20.2302 208.674 19.9041 208.892C19.5238 209.054 19.1981 208.945 19.1981 208.674C19.198 208.348 18.9258 208.239 18.6541 208.402C18.3826 208.565 18.1114 208.402 18.1111 208.131C18.1111 207.805 17.5126 207.641 16.7518 207.695C16.0454 207.804 15.3934 207.75 15.3934 207.587C15.393 207.424 13.9802 206.88 12.2957 206.282C10.0675 205.576 8.59969 204.652 7.24103 203.131C6.15407 201.99 4.95838 199.923 4.57794 198.619C4.1432 197.261 3.60001 196.174 3.38263 196.174C3.11089 196.174 2.73024 196.5 2.5672 196.826C2.29548 197.315 2.02343 197.206 1.58868 196.445ZM36.5887 193.131C35.8278 192.316 35.7191 192.424 35.1756 194.326C34.7952 195.467 34.5783 197.533 34.6326 198.892C34.687 201.283 34.7419 201.337 41.1004 204.598L42.1326 203.239C42.7305 202.478 43.383 201.554 43.6004 201.174C43.8722 200.576 44.4698 200.576 46.9149 201.337C48.7627 201.826 50.6112 202.858 53.4373 205.685L54.5242 204.435C55.3936 203.511 56.2088 203.239 58.3279 203.239C60.2845 203.239 61.0998 203.022 61.3172 202.424C61.4983 201.88 61.0095 201.373 59.8504 200.902C58.8722 200.468 56.4807 199.707 54.5242 199.163C52.5677 198.62 50.5563 198.348 50.0672 198.565C49.5238 198.728 49.0887 198.619 49.0887 198.348C49.0884 198.022 48.3281 197.805 47.4588 197.805C46.5892 197.805 45.7195 197.532 45.5565 197.261C45.3934 196.935 44.9587 196.826 44.6326 196.935C44.2523 197.043 43.1112 196.826 42.1873 196.392C41.2091 195.957 40.3934 195.467 40.3934 195.195C40.3929 194.978 40.0125 194.326 39.5779 193.728C38.9259 192.859 38.6545 192.75 38.1111 193.348C37.5133 193.891 37.2409 193.837 36.5887 193.131ZM2.40411 190.739C0.393616 190.739 0.17573 190.848 0.338682 191.935C0.447378 192.967 0.774314 193.185 2.3504 193.185C3.92613 193.184 4.30617 192.967 4.41485 191.935C4.57784 190.848 4.36052 190.739 2.40411 190.739ZM39.3065 5.95699C37.0783 5.14181 35.3934 4.86919 32.785 5.03218C30.8284 5.14088 28.2736 5.685 27.0779 6.22847C25.8823 6.8263 24.0343 7.91268 23.0018 8.78218C21.9692 9.59738 20.1756 11.4453 19.0887 12.8584C18.0018 14.2713 16.4808 17.0434 15.7742 19C15.0134 20.9563 14.2524 23.8909 14.035 25.5214C13.8176 27.1519 13.5454 29.7067 13.491 31.2285C13.401 33.3901 13.4238 33.8331 14.3309 34.2314C14.0006 34.2969 13.696 34.583 13.6004 34.8691C13.4917 35.2495 13.6545 37.5325 13.8719 39.9238C14.1436 42.315 14.6871 46.1193 15.1219 48.3476C15.5566 50.5758 16.1542 54.3801 16.4803 56.7714C16.8607 59.1627 17.6761 63.5655 18.3826 66.5546C19.0891 69.5437 19.7417 72.859 19.8504 73.8916C19.9591 75.3044 20.2852 75.8483 21.1004 75.957C21.5471 76.038 22.1753 75.8454 22.6912 75.5166C22.2161 75.8685 21.6312 76.1064 21.2625 76.0654C20.3933 76.0655 20.3391 76.5004 20.5565 79.4345C20.7195 81.3367 20.9911 85.5217 21.1541 88.8369C21.3715 93.239 21.263 96.1741 20.5565 99.9785C20.0673 102.805 18.9801 106.609 18.1649 108.402C17.1866 110.359 15.556 112.641 13.9256 114.108C12.4582 115.467 8.81707 118.077 5.82794 119.87C2.89316 121.718 -1.50936 124.652 -3.90058 126.445C-6.2919 128.239 -11.1287 132.37 -14.6613 135.631C-18.1938 138.892 -21.9982 142.261 -23.0851 143.076C-24.1721 143.891 -25.6942 144.598 -27.8137 144.544L-26.3459 143.076C-25.5307 142.207 -24.8244 141.391 -24.8244 141.174C-24.8248 140.902 -26.0198 140.521 -27.5412 140.195C-29.0085 139.869 -31.7803 139.055 -33.6281 138.294C-35.5303 137.533 -37.4876 136.935 -37.9767 136.935C-38.6287 136.935 -39.1175 137.587 -39.4435 138.728C-39.7152 139.707 -39.7152 141.609 -39.4435 143.185C-39.1718 144.706 -37.5412 148.783 -32.7043 158.565L-29.1555 158.849C-30.1321 158.807 -31.3832 158.768 -32.9758 158.728L-31.5627 161.555C-30.7474 163.131 -29.172 165.631 -28.0851 167.152C-26.9982 168.62 -24.7693 171.065 -23.1389 172.532C-21.5084 173.945 -18.3564 176.282 -16.1281 177.695C-13.6825 179.163 -10.1495 180.739 -7.32343 181.555C-2.75879 182.859 -2.65001 182.967 -1.94354 185.087C-1.45441 186.5 -0.74734 187.424 0.176573 187.75C0.93748 188.022 2.18704 188.076 3.05646 187.858C3.87161 187.695 5.82808 186.283 7.40411 184.707C9.90411 182.153 10.2303 181.989 10.3934 183.076C10.4477 183.728 10.5563 184.27 10.6649 184.271C10.7192 184.271 13.2197 183.511 16.2088 182.642C22.4161 180.836 27.6461 179.778 33.491 177.75C36.0997 176.88 38.2195 175.902 38.2195 175.576C38.2195 175.25 37.2957 174.707 36.2088 174.326C35.1218 173.891 30.991 173.457 27.0779 173.294C24.1389 173.163 22.3153 173.041 21.0496 172.844C22.367 173.036 24.3171 173.132 27.6219 173.239C33.7083 173.457 35.6106 173.728 38.7625 175.521L42.1326 173.565C44.0348 172.478 46.5346 170.848 47.7303 169.924C48.8716 168.946 50.9364 166.989 52.3494 165.521C53.708 164.054 55.3928 161.989 56.0994 160.902C56.8603 159.815 58.0019 157.859 58.6541 156.5C59.3606 155.141 60.2851 152.859 60.7742 151.337C61.2634 149.869 61.969 147.043 62.3494 145.087C62.7299 143.13 62.9477 140.467 62.8934 139.108C62.839 137.75 62.6215 134.815 62.4041 132.587C62.2411 130.359 61.5892 126.663 61.0457 124.435C60.4479 122.207 59.4697 119.001 58.8719 117.37C58.2197 115.74 56.0999 110.848 54.1434 106.5C52.1869 102.152 50.2846 97.8588 49.9041 96.9892C49.5237 96.1197 48.6002 93.402 47.785 91.0107C47.0241 88.6194 45.8281 83.9997 45.0672 80.6845C44.3607 77.3693 43.4909 71.7714 43.1649 68.1845C42.8388 64.5979 42.73 60.1419 42.8387 58.2939C43.0017 56.3917 43.2196 54.6522 43.3826 54.3261C43.5456 54.0001 43.165 53.5653 42.5672 53.2392C41.8607 52.9131 41.4803 52.1523 41.4803 51.2285C41.4803 50.3589 41.9694 48.1847 42.5672 46.3369C43.328 43.8913 43.6541 41.3914 43.6541 37.6416C43.6541 33.457 43.9259 31.8263 44.741 30.1416C45.2845 28.9459 46.5349 27.533 47.4588 27.0439C48.3283 26.5005 49.9584 26.0654 50.991 26.0654C52.7845 26.0654 52.8933 25.9563 52.5672 24.5976C52.3498 23.7279 51.6978 21.6087 51.0457 19.8154C50.3936 18.022 48.9803 15.1958 47.8934 13.5654C46.8064 11.935 45.0669 9.76078 44.0887 8.83687C43.1104 7.85868 40.9368 6.55481 39.3065 5.95699ZM20.9725 172.833C20.9278 172.826 20.8839 172.818 20.8406 172.811C20.884 172.818 20.9277 172.826 20.9725 172.833ZM11.91 168.594C12.4411 168.939 12.9978 169.275 13.491 169.544C14.6861 170.141 15.827 170.63 16.0994 170.631C16.3168 170.631 17.2956 171.174 18.2195 171.826C18.4115 171.952 18.5971 172.064 18.7869 172.166C18.5937 172.064 18.4077 171.952 18.2195 171.826C17.2419 171.229 16.3185 170.685 16.1004 170.685C15.8287 170.685 14.5785 170.141 13.2742 169.435C12.8627 169.237 12.4119 168.964 11.91 168.594ZM8.27423 165.087C8.28219 165.101 8.2927 165.115 8.30157 165.13C8.28696 165.113 8.2723 165.097 8.25763 165.08C8.26304 165.082 8.26884 165.085 8.27423 165.087ZM-25.5256 159.269C-24.7145 159.415 -24.1416 159.574 -24.009 159.707C-23.7367 159.924 -21.8889 160.359 -19.9328 160.576C-17.9763 160.848 -14.1176 161.011 -11.3459 160.957C-8.6285 160.903 -4.87799 160.794 -3.13886 160.739C-3.07984 160.736 -3.02324 160.735 -2.96893 160.736C-3.00722 160.738 -3.04623 160.738 -3.08515 160.739C-4.87877 160.848 -8.62869 160.956 -11.3459 161.011C-14.1176 161.065 -17.8679 160.902 -19.6613 160.685C-21.4547 160.467 -23.4112 160.087 -24.009 159.815C-24.4178 159.63 -25.0043 159.418 -25.5256 159.269ZM51.8065 28.2392C50.7196 28.2392 49.2526 28.6741 48.4373 29.3261C47.5678 29.9239 46.6974 31.2278 46.4256 32.206C46.1539 33.1299 45.7742 36.7173 45.6111 40.0869C45.4481 43.4019 44.9043 47.1518 44.4695 48.3476C43.8174 50.0867 43.7633 50.6847 44.3611 51.3369C44.6872 51.8259 45.2847 52.206 45.5565 52.206C45.8282 52.206 47.0786 51.4454 48.2742 50.5214C50.0674 49.163 50.937 48.8372 53.3279 48.8916C54.8497 48.8916 58.7634 49.2716 62.0242 49.7607C65.2305 50.2498 69.4689 50.5763 71.4256 50.4677C74.0886 50.3047 75.3392 49.9783 76.2088 49.163C76.8608 48.5653 77.3498 47.533 77.2957 46.8808C77.2414 46.2287 76.6978 45.3045 76.0457 44.8154C75.3935 44.3263 71.5889 41.8802 67.5672 39.4345C62.8935 36.5542 59.0348 33.6742 56.9695 31.5546C54.2521 28.8373 53.3825 28.2392 51.8065 28.2392Z"/>
</mask>
<path d="M1.58868 196.445L0.720376 196.941L0.714535 196.931L1.58868 196.445ZM0.82794 197.261L1.82364 197.354L1.82245 197.365L0.82794 197.261ZM0.82794 206.228L1.82754 206.2L1.82755 206.201L0.82794 206.228ZM2.18732 215.468L3.06521 214.989L3.07374 215.005L3.08171 215.02L2.18732 215.468ZM4.57794 218.402L4.0818 219.271L4.06765 219.262L4.05376 219.254L4.57794 218.402ZM8.76349 217.968L8.38868 217.041L8.39785 217.037L8.76349 217.968ZM12.8387 216.935L12.915 215.937L12.9217 215.938L12.8387 216.935ZM15.285 216.663L15.6011 217.612L15.5561 217.627L15.5098 217.637L15.285 216.663ZM16.4803 216.826L15.4803 216.826V216.826H16.4803ZM17.7303 217.369L17.7303 218.369L17.7302 218.369L17.7303 217.369ZM18.8719 215.848L17.8728 215.891L17.8719 215.869L17.8719 215.848L18.8719 215.848ZM19.5779 213.674L18.9193 212.921L18.9271 212.915L19.5779 213.674ZM22.4588 212.587L22.2372 211.612L22.2656 211.605L22.2944 211.6L22.4588 212.587ZM24.9041 211.228L25.8599 211.523L25.8525 211.547L25.8438 211.571L24.9041 211.228ZM22.8934 209.435L23.2445 208.498L23.2445 208.498L22.8934 209.435ZM19.9041 208.892L20.4588 209.724L20.3823 209.775L20.2978 209.811L19.9041 208.892ZM19.1981 208.674L20.1981 208.674V208.674H19.1981ZM18.6541 208.402L19.1686 209.26L19.1682 209.26L18.6541 208.402ZM18.1111 208.131L17.1111 208.132V208.131H18.1111ZM16.7518 207.695L16.5998 206.707L16.64 206.701L16.6805 206.698L16.7518 207.695ZM15.3934 207.587L16.3934 207.584V207.587H15.3934ZM12.2957 206.282L12.598 205.329L12.6141 205.334L12.6301 205.34L12.2957 206.282ZM7.24103 203.131L7.96516 202.441L7.97625 202.453L7.98696 202.465L7.24103 203.131ZM4.57794 198.619L5.53035 198.314L5.53431 198.327L5.53794 198.339L4.57794 198.619ZM3.38263 196.174L3.38263 195.174L3.38304 195.174L3.38263 196.174ZM2.5672 196.826L3.46163 197.273L3.45189 197.293L3.44132 197.312L2.5672 196.826ZM36.5887 193.131L37.3197 192.448L37.3235 192.453L36.5887 193.131ZM35.1756 194.326L36.1371 194.601L36.1312 194.622L36.1243 194.642L35.1756 194.326ZM34.6326 198.892L35.6318 198.852L35.6322 198.86L35.6324 198.869L34.6326 198.892ZM41.1004 204.598L41.8966 205.203L41.3897 205.87L40.6441 205.487L41.1004 204.598ZM42.1326 203.239L41.3364 202.634L41.3413 202.628L41.3463 202.621L42.1326 203.239ZM43.6004 201.174L44.5107 201.588L44.4916 201.63L44.4686 201.67L43.6004 201.174ZM46.9149 201.337L46.659 202.304L46.6383 202.298L46.6178 202.292L46.9149 201.337ZM53.4373 205.685L54.1919 206.341L53.4884 207.15L52.7302 206.392L53.4373 205.685ZM54.5242 204.435L53.7696 203.778L53.7826 203.763L53.7961 203.749L54.5242 204.435ZM58.3279 203.239L58.3279 202.239H58.3279V203.239ZM61.3172 202.424L62.2659 202.74L62.2616 202.753L62.257 202.766L61.3172 202.424ZM59.8504 200.902L59.474 201.829L59.459 201.823L59.4443 201.816L59.8504 200.902ZM54.5242 199.163L54.7919 198.2L54.7919 198.2L54.5242 199.163ZM50.0672 198.565L50.4733 199.479L50.4153 199.505L50.3544 199.523L50.0672 198.565ZM49.0887 198.348L50.0887 198.347V198.348H49.0887ZM47.4588 197.805L47.4588 196.805L47.4588 196.805L47.4588 197.805ZM45.5565 197.261L44.699 197.775L44.6793 197.742L44.6622 197.708L45.5565 197.261ZM44.6326 196.935L44.9487 197.883L44.9282 197.89L44.9073 197.896L44.6326 196.935ZM42.1873 196.392L42.5935 195.478L42.6033 195.482L42.613 195.487L42.1873 196.392ZM40.3934 195.195L41.3934 195.193V195.195H40.3934ZM39.5779 193.728L40.3779 193.128L40.3824 193.134L40.3867 193.14L39.5779 193.728ZM38.1111 193.348L38.851 194.02L38.819 194.056L38.7838 194.088L38.1111 193.348ZM2.40411 190.739L2.40411 189.739H2.40411V190.739ZM0.338682 191.935L1.32762 191.786L1.33089 191.808L1.33319 191.83L0.338682 191.935ZM2.3504 193.185L2.35043 194.185H2.3504V193.185ZM4.41485 191.935L3.42035 191.83L3.42265 191.808L3.42591 191.786L4.41485 191.935ZM39.3065 5.95699L39.65 5.01787L39.6507 5.01812L39.3065 5.95699ZM32.785 5.03218L32.8473 6.03026L32.8404 6.03064L32.785 5.03218ZM27.0779 6.22847L26.6307 5.33405L26.6473 5.32577L26.6641 5.31811L27.0779 6.22847ZM23.0018 8.78218L23.6459 9.54711L23.6338 9.55728L23.6214 9.56707L23.0018 8.78218ZM19.0887 12.8584L18.2961 12.2486L18.2961 12.2486L19.0887 12.8584ZM15.7742 19L16.7148 19.3396L16.7106 19.3511L16.7062 19.3624L15.7742 19ZM14.035 25.5214L13.0437 25.3893L13.0437 25.3892L14.035 25.5214ZM13.491 31.2285L14.4904 31.2642L14.4902 31.2701L13.491 31.2285ZM14.3309 34.2314L14.7329 33.3158L17.643 34.5936L14.5255 35.2123L14.3309 34.2314ZM13.6004 34.8691L12.6389 34.5944L12.645 34.5731L12.652 34.5521L13.6004 34.8691ZM13.8719 39.9238L12.8783 40.0367L12.877 40.0255L12.876 40.0143L13.8719 39.9238ZM15.1219 48.3476L14.1404 48.5391L14.1404 48.5391L15.1219 48.3476ZM16.4803 56.7714L15.4927 56.9286L15.491 56.9176L15.4895 56.9066L16.4803 56.7714ZM18.3826 66.5546L19.3558 66.3246L19.3558 66.3246L18.3826 66.5546ZM19.8504 73.8916L20.8449 73.7869L20.8464 73.8008L20.8475 73.8148L19.8504 73.8916ZM21.1004 75.957L21.2326 74.9658L21.2558 74.9689L21.2788 74.973L21.1004 75.957ZM22.6912 75.5166L22.1538 74.6733L23.2865 76.3201L22.6912 75.5166ZM21.2625 76.0654L21.2624 75.0654L21.3178 75.0654L21.3729 75.0715L21.2625 76.0654ZM20.5565 79.4345L19.56 79.5199L19.5592 79.5084L20.5565 79.4345ZM21.1541 88.8369L20.1553 88.8862L20.1553 88.886L21.1541 88.8369ZM20.5565 99.9785L19.571 99.8079L19.5733 99.7959L20.5565 99.9785ZM18.1649 108.402L19.0752 108.816L19.0676 108.833L19.0593 108.85L18.1649 108.402ZM13.9256 114.108L13.2461 113.375L13.2566 113.365L13.9256 114.108ZM5.82794 119.87L5.29512 119.024L5.30422 119.018L5.31344 119.013L5.82794 119.87ZM-3.90058 126.445L-4.50058 125.645L-4.50058 125.645L-3.90058 126.445ZM-14.6613 135.631L-13.983 136.366L-13.983 136.366L-14.6613 135.631ZM-23.0851 143.076L-22.4851 143.876L-22.4852 143.876L-23.0851 143.076ZM-27.8137 144.544L-27.8393 145.544L-30.1678 145.484L-28.5208 143.837L-27.8137 144.544ZM-26.3459 143.076L-25.6164 143.76L-25.6274 143.772L-25.6388 143.783L-26.3459 143.076ZM-24.8244 141.174L-23.8244 141.172V141.174H-24.8244ZM-27.5412 140.195L-27.7507 141.173L-27.7581 141.171L-27.5412 140.195ZM-33.6281 138.294L-33.2567 137.365L-33.2474 137.369L-33.6281 138.294ZM-37.9767 136.935L-37.9772 135.935H-37.9767V136.935ZM-39.4435 138.728L-40.4071 138.461L-40.4051 138.454L-39.4435 138.728ZM-39.4435 143.185L-40.428 143.36L-40.429 143.354L-39.4435 143.185ZM-32.7043 158.565L-32.7838 159.562L-33.3493 159.517L-33.6007 159.009L-32.7043 158.565ZM-29.1555 158.849L-29.0759 157.852L-29.1983 159.848L-29.1555 158.849ZM-32.9758 158.728L-33.8702 159.176L-34.6142 157.688L-32.9511 157.729L-32.9758 158.728ZM-31.5627 161.555L-32.451 162.014L-32.4571 162.002L-31.5627 161.555ZM-28.0851 167.152L-28.8887 167.748L-28.8939 167.741L-28.8989 167.734L-28.0851 167.152ZM-23.1389 172.532L-23.7938 173.288L-23.8009 173.282L-23.8078 173.275L-23.1389 172.532ZM-16.1281 177.695L-16.6426 178.553L-16.6532 178.546L-16.6637 178.54L-16.1281 177.695ZM-7.32343 181.555L-7.59815 182.516L-7.60059 182.515L-7.32343 181.555ZM-1.94354 185.087L-2.88859 185.414L-2.89223 185.403L-1.94354 185.087ZM0.176573 187.75L0.509395 186.807L0.512759 186.808L0.176573 187.75ZM3.05646 187.858L2.81392 186.888L2.83701 186.882L2.86034 186.878L3.05646 187.858ZM7.40411 184.707L8.11882 185.406L8.1112 185.414L7.40411 184.707ZM10.3934 183.076L11.3823 182.928L11.3872 182.96L11.3899 182.993L10.3934 183.076ZM10.6649 184.271V185.272L10.6533 185.271L10.6649 184.271ZM16.2088 182.642L15.9295 181.681L15.9295 181.681L16.2088 182.642ZM33.491 177.75L33.1632 176.805L33.1748 176.801L33.491 177.75ZM38.2195 175.576L39.2195 175.576L39.2195 175.576L38.2195 175.576ZM36.2088 174.326L35.8784 175.27L35.8578 175.263L35.8374 175.255L36.2088 174.326ZM27.0779 173.294L27.0363 174.293L27.0333 174.293L27.0779 173.294ZM21.0496 172.844L20.8953 173.832L21.1942 171.854L21.0496 172.844ZM27.6219 173.239L27.6544 172.24L27.6576 172.24L27.6219 173.239ZM38.7625 175.521L39.2645 176.386L38.7675 176.675L38.268 176.391L38.7625 175.521ZM42.1326 173.565L41.6306 172.7L41.6365 172.697L42.1326 173.565ZM47.7303 169.924L48.3811 170.683L48.3618 170.7L48.3417 170.715L47.7303 169.924ZM52.3494 165.521L53.0832 166.201L53.0765 166.208L53.0697 166.215L52.3494 165.521ZM56.0994 160.902L55.261 160.357L55.2704 160.343L55.2802 160.329L56.0994 160.902ZM58.6541 156.5L57.7526 156.067L57.7595 156.053L57.7669 156.039L58.6541 156.5ZM60.7742 151.337L59.8221 151.031L59.8255 151.021L60.7742 151.337ZM62.3494 145.087L63.331 145.278L63.331 145.278L62.3494 145.087ZM62.8934 139.108L63.8926 139.068L63.8926 139.068L62.8934 139.108ZM62.4041 132.587L61.4088 132.684L61.4077 132.672L61.4068 132.66L62.4041 132.587ZM61.0457 124.435L62.0116 124.175L62.0145 124.186L62.0172 124.198L61.0457 124.435ZM58.8719 117.37L59.8004 116.999L59.8058 117.012L59.8108 117.026L58.8719 117.37ZM54.1434 106.5L53.2314 106.91L54.1434 106.5ZM49.9041 96.9892L48.988 97.39L48.988 97.39L49.9041 96.9892ZM47.785 91.0107L46.8385 91.3334L46.8352 91.3237L46.832 91.3139L47.785 91.0107ZM45.0672 80.6845L44.0925 80.9082L44.0908 80.9006L44.0892 80.893L45.0672 80.6845ZM43.1649 68.1845L42.169 68.2751L42.169 68.2751L43.1649 68.1845ZM42.8387 58.2939L41.8404 58.2352L41.8412 58.2218L41.8423 58.2085L42.8387 58.2939ZM43.3826 54.3261L44.2771 54.7732L44.2771 54.7733L43.3826 54.3261ZM42.5672 53.2392L42.9863 52.3313L43.0167 52.3453L43.0461 52.3613L42.5672 53.2392ZM41.4803 51.2285L40.4803 51.2285V51.2285H41.4803ZM42.5672 46.3369L43.5221 46.634L43.5186 46.6447L42.5672 46.3369ZM43.6541 37.6416L44.6541 37.6416L44.6541 37.6416L43.6541 37.6416ZM44.741 30.1416L45.6514 30.5554L45.6464 30.5663L45.6412 30.5771L44.741 30.1416ZM47.4588 27.0439L47.9888 27.8919L47.9584 27.9109L47.9267 27.9277L47.4588 27.0439ZM50.991 26.0654L50.991 25.0654H50.991V26.0654ZM52.5672 24.5976L53.5374 24.355L53.5396 24.3642L52.5672 24.5976ZM51.0457 19.8154L51.9855 19.4736L51.9855 19.4736L51.0457 19.8154ZM47.8934 13.5654L48.7254 13.0107L48.7254 13.0107L47.8934 13.5654ZM44.0887 8.83687L43.4021 9.56389L43.3917 9.5541L43.3816 9.54402L44.0887 8.83687ZM20.9725 172.833L21.132 171.846L20.8222 173.822L20.9725 172.833ZM20.8406 172.811L20.6714 173.796L21.0013 171.823L20.8406 172.811ZM11.91 168.594L11.3168 169.399L12.4548 167.755L11.91 168.594ZM13.491 169.544L13.0438 170.438L13.0278 170.43L13.0122 170.422L13.491 169.544ZM16.0994 170.631L16.0994 171.631L16.0977 171.631L16.0994 170.631ZM18.7869 172.166L19.2589 171.284L18.3196 173.05L18.7869 172.166ZM16.1004 170.685L16.1004 169.685L16.1034 169.685L16.1004 170.685ZM13.2742 169.435L13.707 168.533L13.729 168.544L13.7505 168.555L13.2742 169.435ZM8.27423 165.087L8.6651 164.166L8.98143 164.301L9.14835 164.601L8.27423 165.087ZM8.30157 165.13L9.16432 164.624L7.5519 165.792L8.30157 165.13ZM8.25763 165.08L7.50701 165.741L8.63585 164.154L8.25763 165.08ZM-25.5256 159.269L-25.8017 160.23L-25.3478 158.284L-25.5256 159.269ZM-24.009 159.707L-24.633 160.488L-24.6766 160.454L-24.7161 160.414L-24.009 159.707ZM-19.9328 160.576L-19.8224 159.582L-19.8088 159.584L-19.7952 159.586L-19.9328 160.576ZM-11.3459 160.957L-11.3259 161.957L-11.3263 161.957L-11.3459 160.957ZM-3.13886 160.739L-3.08455 161.738L-3.09608 161.738L-3.10762 161.739L-3.13886 160.739ZM-2.96893 160.736L-2.9532 159.736L-2.9369 161.736L-2.96893 160.736ZM-3.08515 160.739L-3.14563 159.741L-3.1339 159.74L-3.12216 159.74L-3.08515 160.739ZM-11.3459 161.011L-11.3259 162.011L-11.3263 162.011L-11.3459 161.011ZM-19.6613 160.685L-19.7816 161.677L-19.7817 161.677L-19.6613 160.685ZM-24.009 159.815L-23.5952 158.905L-23.5952 158.905L-24.009 159.815ZM51.8065 28.2392L51.8064 27.2392H51.8065V28.2392ZM48.4373 29.3261L49.0619 30.1071L49.0337 30.1297L49.0038 30.1502L48.4373 29.3261ZM46.4256 32.206L47.3891 32.4738L47.3871 32.481L47.385 32.4882L46.4256 32.206ZM45.6111 40.0869L46.61 40.1352L46.6099 40.136L45.6111 40.0869ZM44.4695 48.3476L45.4094 48.6893L45.4059 48.6987L44.4695 48.3476ZM44.3611 51.3369L45.0983 50.6611L45.1504 50.718L45.1932 50.7821L44.3611 51.3369ZM45.5565 52.206L45.5565 53.206L45.5563 53.206L45.5565 52.206ZM48.2742 50.5214L47.6628 49.7301L47.6704 49.7243L48.2742 50.5214ZM53.3279 48.8916V49.8916H53.3166L53.3052 49.8913L53.3279 48.8916ZM62.0242 49.7607L62.1726 48.7718L62.175 48.7721L62.0242 49.7607ZM71.4256 50.4677L71.4867 51.4659L71.481 51.4662L71.4256 50.4677ZM76.2088 49.163L75.5248 48.4335L75.5331 48.4259L76.2088 49.163ZM77.2957 46.8808L78.2923 46.7978L78.2923 46.7981L77.2957 46.8808ZM76.0457 44.8154L76.6457 44.0154L76.6458 44.0154L76.0457 44.8154ZM67.5672 39.4345L67.0476 40.289L67.0425 40.2858L67.5672 39.4345ZM56.9695 31.5546L57.6767 30.8475L57.6858 30.8568L56.9695 31.5546ZM1.58868 196.445L0.714535 196.931C0.648133 196.811 0.595327 196.719 0.551712 196.647C0.530266 196.612 0.513363 196.585 0.500331 196.566C0.486889 196.546 0.481107 196.538 0.48222 196.54C0.483078 196.541 0.48723 196.546 0.494592 196.554C0.501813 196.562 0.514298 196.575 0.532006 196.591C0.56166 196.618 0.637194 196.682 0.757762 196.734C0.888876 196.79 1.08795 196.837 1.31979 196.786C1.54896 196.736 1.70562 196.614 1.79538 196.518C1.87922 196.429 1.92041 196.347 1.93536 196.315C1.95228 196.279 1.95813 196.257 1.95696 196.261C1.954 196.271 1.94292 196.316 1.92726 196.416C1.89621 196.615 1.86477 196.915 1.82357 197.354L0.82794 197.261L-0.167694 197.167C-0.127387 196.737 -0.0908844 196.378 -0.0488886 196.108C-0.0280332 195.974 -0.00131191 195.832 0.0371246 195.701C0.0655223 195.603 0.140306 195.359 0.336078 195.15C0.45131 195.028 0.634941 194.889 0.892844 194.832C1.15342 194.775 1.38301 194.826 1.54671 194.896C1.82061 195.014 1.98675 195.219 2.04491 195.292C2.19126 195.475 2.3374 195.734 2.46283 195.96L1.58868 196.445ZM0.82794 197.261L1.82245 197.365C1.72221 198.318 1.71824 202.32 1.82754 206.2L0.82794 206.228L-0.171663 206.257C-0.27975 202.42 -0.283725 198.269 -0.166565 197.156L0.82794 197.261ZM0.82794 206.228L1.82755 206.201C1.99184 212.115 2.22112 213.441 3.06521 214.989L2.18732 215.468L1.30942 215.947C0.19701 213.907 -0.00987231 212.081 -0.171674 206.256L0.82794 206.228ZM2.18732 215.468L3.08171 215.02C3.34161 215.54 3.71886 216.103 4.11507 216.586C4.52547 217.086 4.89005 217.42 5.10212 217.551L4.57794 218.402L4.05376 219.254C3.55939 218.95 3.02757 218.414 2.56873 217.854C2.09569 217.278 1.63085 216.591 1.29292 215.915L2.18732 215.468ZM4.57794 218.402L5.07408 217.534C5.55904 217.811 5.74897 217.852 6.03686 217.822C6.45424 217.779 7.07844 217.57 8.3887 217.041L8.76349 217.968L9.13828 218.895C7.89418 219.398 6.99626 219.733 6.24478 219.811C5.36381 219.903 4.73815 219.646 4.0818 219.271L4.57794 218.402ZM8.76349 217.968L8.39785 217.037C9.19589 216.723 10.0769 216.439 10.8575 216.238C11.5898 216.05 12.3767 215.896 12.915 215.937L12.8387 216.935L12.7623 217.932C12.5939 217.919 12.1039 217.983 11.3556 218.175C10.6556 218.355 9.85246 218.614 9.12912 218.898L8.76349 217.968ZM12.8387 216.935L12.9217 215.938C13.4139 215.979 14.3774 215.846 15.0601 215.689L15.285 216.663L15.5098 217.637C14.7795 217.806 13.5678 217.999 12.7556 217.931L12.8387 216.935ZM15.285 216.663L14.9688 215.714C15.3751 215.579 15.8327 215.496 16.2513 215.549C16.4582 215.574 16.7435 215.644 16.9993 215.843C17.2936 216.072 17.4803 216.423 17.4803 216.826H16.4803H15.4803C15.4803 216.928 15.5026 217.046 15.5612 217.164C15.6192 217.28 15.6977 217.365 15.7711 217.422C15.8418 217.477 15.9046 217.504 15.9411 217.517C15.978 217.53 16.0007 217.533 16.0031 217.533C16.0049 217.533 15.9683 217.53 15.8882 217.541C15.8119 217.552 15.7143 217.574 15.6011 217.612L15.285 216.663ZM16.4803 216.826L17.4803 216.826C17.4802 216.546 17.3405 216.377 17.2925 216.328C17.2417 216.276 17.2153 216.271 17.2538 216.289C17.3266 216.322 17.4939 216.369 17.7303 216.369L17.7303 217.369L17.7302 218.369C17.2602 218.369 16.8026 218.281 16.427 218.11C16.2413 218.026 16.0349 217.903 15.86 217.723C15.688 217.547 15.4804 217.242 15.4803 216.826L16.4803 216.826ZM17.7303 217.369V216.369C17.9442 216.369 18.0311 216.352 18.0538 216.346C18.0584 216.344 18.0352 216.35 17.9991 216.373C17.9603 216.398 17.9222 216.432 17.8914 216.473C17.8337 216.549 17.8481 216.586 17.8636 216.475C17.8791 216.364 17.8856 216.184 17.8728 215.891L18.8719 215.848L19.8709 215.804C19.8854 216.137 19.8851 216.459 19.8444 216.751C19.8038 217.042 19.7128 217.381 19.4852 217.681C18.9932 218.33 18.2129 218.369 17.7303 218.369V217.369ZM18.8719 215.848L17.8719 215.848C17.8719 215.339 17.955 214.791 18.1068 214.302C18.2489 213.843 18.4952 213.293 18.9193 212.921L19.5779 213.674L20.2366 214.426C20.2428 214.421 20.2116 214.448 20.1612 214.54C20.1133 214.627 20.0628 214.746 20.0171 214.894C19.9245 215.192 19.8719 215.541 19.8719 215.848L18.8719 215.848ZM19.5779 213.674L18.9271 212.915C19.119 212.75 19.3621 212.614 19.578 212.508C19.8097 212.393 20.0775 212.281 20.3603 212.174C20.9256 211.961 21.5944 211.758 22.2372 211.612L22.4588 212.587L22.6804 213.562C22.1275 213.688 21.5461 213.865 21.065 214.046C20.8246 214.136 20.6202 214.224 20.4629 214.301C20.2898 214.387 20.2271 214.434 20.2287 214.433L19.5779 213.674ZM22.4588 212.587L22.2944 211.6C22.8578 211.507 23.2986 211.348 23.5973 211.179C23.9196 210.998 23.9716 210.867 23.9644 210.886L24.9041 211.228L25.8438 211.571C25.619 212.188 25.1005 212.628 24.5805 212.921C24.037 213.228 23.3639 213.45 22.6232 213.573L22.4588 212.587ZM24.9041 211.228L23.9483 210.934C23.9627 210.888 23.9405 210.931 23.9638 211.014C23.9867 211.094 24.0235 211.108 23.9669 211.057C23.81 210.918 23.4189 210.7 22.5422 210.371L22.8934 209.435L23.2445 208.498C24.107 208.822 24.8299 209.147 25.298 209.565C25.5539 209.793 25.7809 210.089 25.8886 210.47C25.9969 210.854 25.9542 211.216 25.8599 211.523L24.9041 211.228ZM22.8934 209.435L22.5423 210.371C21.9339 210.143 21.3244 209.97 20.8478 209.881C20.6071 209.836 20.4275 209.817 20.3124 209.816C20.255 209.815 20.236 209.819 20.2454 209.817C20.2513 209.816 20.2734 209.812 20.3066 209.801C20.339 209.789 20.3942 209.767 20.4588 209.724L19.9041 208.892L19.3494 208.06C19.5511 207.925 19.7594 207.872 19.9 207.847C20.0512 207.821 20.2021 207.814 20.3383 207.816C20.6104 207.82 20.9132 207.859 21.216 207.915C21.8264 208.03 22.5486 208.237 23.2445 208.498L22.8934 209.435ZM19.9041 208.892L20.2978 209.811C19.9588 209.956 19.5286 210.033 19.1066 209.899C18.6263 209.747 18.1981 209.31 18.1981 208.674H19.1981H20.1981C20.1981 208.532 20.1515 208.366 20.0376 208.223C19.9291 208.086 19.8002 208.021 19.7104 207.992C19.5463 207.94 19.4691 207.99 19.5104 207.972L19.9041 208.892ZM19.1981 208.674L18.1981 208.674C18.1981 208.801 18.2741 209.107 18.6059 209.261C18.891 209.394 19.1123 209.294 19.1686 209.26L18.6541 208.402L18.1396 207.545C18.4676 207.348 18.9609 207.22 19.4501 207.448C19.9859 207.698 20.198 208.22 20.1981 208.674L19.1981 208.674ZM18.6541 208.402L19.1682 209.26C18.7692 209.499 18.2589 209.551 17.8102 209.312C17.3659 209.075 17.1116 208.617 17.1111 208.132L18.1111 208.131L19.1111 208.13C19.1109 207.916 18.9923 207.675 18.7516 207.547C18.5064 207.416 18.2675 207.468 18.14 207.545L18.6541 208.402ZM18.1111 208.131H17.1111C17.1111 208.249 17.1396 208.364 17.1901 208.465C17.2387 208.562 17.2982 208.627 17.3419 208.665C17.4201 208.735 17.4696 208.741 17.4241 208.727C17.3377 208.7 17.1316 208.671 16.823 208.693L16.7518 207.695L16.6805 206.698C17.1328 206.666 17.6064 206.691 18.0095 206.814C18.2087 206.875 18.4554 206.98 18.6696 207.17C18.9026 207.377 19.1111 207.704 19.1111 208.131H18.1111ZM16.7518 207.695L16.9038 208.684C16.49 208.747 16.0709 208.767 15.7271 208.74C15.5649 208.727 15.3589 208.698 15.164 208.627C15.0698 208.593 14.9129 208.526 14.7629 208.394C14.6013 208.252 14.3934 207.98 14.3934 207.587H15.3934H16.3934C16.3934 207.234 16.2058 207 16.0826 206.891C15.9711 206.793 15.8706 206.756 15.8486 206.748C15.798 206.73 15.7991 206.739 15.8882 206.746C16.047 206.759 16.3071 206.752 16.5998 206.707L16.7518 207.695ZM15.3934 207.587L14.3934 207.589C14.3942 207.925 14.5635 208.137 14.6051 208.188C14.6647 208.26 14.7175 208.3 14.727 208.307C14.7501 208.324 14.7447 208.317 14.6818 208.284C14.5655 208.223 14.3711 208.135 14.0969 208.023C13.5564 207.801 12.8008 207.523 11.9613 207.225L12.2957 206.282L12.6301 205.34C13.4751 205.64 14.2682 205.932 14.8553 206.172C15.1449 206.291 15.409 206.407 15.6104 206.513C15.7063 206.563 15.8245 206.629 15.9314 206.71C15.983 206.749 16.0678 206.818 16.1489 206.916C16.2121 206.993 16.3925 207.229 16.3934 207.584L15.3934 207.587ZM12.2957 206.282L11.9935 207.235C9.61615 206.482 7.98762 205.468 6.4951 203.797L7.24103 203.131L7.98696 202.465C9.21176 203.837 10.5189 204.67 12.598 205.329L12.2957 206.282ZM7.24103 203.131L6.51689 203.82C5.90373 203.177 5.2888 202.306 4.782 201.442C4.27739 200.582 3.83993 199.66 3.61794 198.899L4.57794 198.619L5.53794 198.339C5.69639 198.882 6.04699 199.646 6.50707 200.43C6.96497 201.211 7.49136 201.944 7.96516 202.441L7.24103 203.131ZM4.57794 198.619L3.62553 198.924C3.41968 198.281 3.19261 197.717 3.00157 197.329C2.90379 197.13 2.82977 197.007 2.78729 196.948C2.76403 196.915 2.77288 196.934 2.81502 196.971C2.82074 196.976 3.02646 197.174 3.38222 197.174L3.38263 196.174L3.38304 195.174C3.79314 195.174 4.06339 195.405 4.14212 195.475C4.25727 195.577 4.34762 195.691 4.41264 195.782C4.54674 195.969 4.67645 196.203 4.79599 196.445C5.03956 196.94 5.30146 197.599 5.53035 198.314L4.57794 198.619ZM3.38263 196.174V197.174C3.44766 197.174 3.49737 197.164 3.52807 197.156C3.55908 197.148 3.57868 197.14 3.58645 197.136C3.59997 197.13 3.59166 197.132 3.56739 197.152C3.5447 197.17 3.51974 197.195 3.49757 197.222C3.47483 197.249 3.46399 197.269 3.46163 197.273L2.5672 196.826L1.67277 196.379C1.82551 196.073 2.05736 195.803 2.30092 195.604C2.51292 195.43 2.90071 195.174 3.38263 195.174V196.174ZM2.5672 196.826L3.44132 197.312C3.34523 197.485 3.18211 197.736 2.91263 197.914C2.57766 198.136 2.16338 198.188 1.77432 198.035C1.46228 197.913 1.2476 197.69 1.11709 197.533C0.973706 197.36 0.842402 197.155 0.720439 196.941L1.58868 196.445L2.45693 195.949C2.55234 196.116 2.61807 196.21 2.65645 196.256C2.70772 196.318 2.65955 196.234 2.50383 196.173C2.41144 196.137 2.28608 196.111 2.14187 196.127C1.99861 196.143 1.88562 196.195 1.80899 196.246C1.68052 196.331 1.65331 196.412 1.69308 196.34L2.5672 196.826ZM36.5887 193.131L35.8576 193.813C35.7677 193.717 35.702 193.65 35.6515 193.603C35.5972 193.553 35.5876 193.551 35.6121 193.566C35.6348 193.579 35.7572 193.649 35.9501 193.649C36.1726 193.649 36.3475 193.558 36.4512 193.469C36.5337 193.398 36.557 193.343 36.5389 193.376C36.5246 193.402 36.4969 193.461 36.456 193.571C36.373 193.794 36.2743 194.121 36.1371 194.601L35.1756 194.326L34.2141 194.051C34.3487 193.58 34.4673 193.181 34.5814 192.874C34.6751 192.622 34.8356 192.219 35.15 191.95C35.3488 191.78 35.6222 191.649 35.9509 191.649C36.2499 191.649 36.4862 191.758 36.6345 191.847C36.9026 192.006 37.145 192.261 37.3197 192.448L36.5887 193.131ZM35.1756 194.326L36.1243 194.642C35.7928 195.637 35.5808 197.575 35.6318 198.852L34.6326 198.892L33.6334 198.932C33.5758 197.491 33.7977 195.298 34.2269 194.01L35.1756 194.326ZM34.6326 198.892L35.6324 198.869C35.6467 199.501 35.6636 199.814 35.7335 200.058C35.7847 200.238 35.8749 200.413 36.1644 200.669C36.4857 200.953 37.0093 201.296 37.9013 201.793C38.7833 202.284 39.9616 202.89 41.5567 203.708L41.1004 204.598L40.6441 205.487C39.06 204.675 37.847 204.052 36.9287 203.54C36.0203 203.035 35.3345 202.604 34.8405 202.168C34.3147 201.704 33.9836 201.214 33.8105 200.608C33.6561 200.068 33.6457 199.478 33.6329 198.914L34.6326 198.892ZM41.1004 204.598L40.3042 203.993L41.3364 202.634L42.1326 203.239L42.9288 203.844L41.8966 205.203L41.1004 204.598ZM42.1326 203.239L41.3463 202.621C41.9373 201.869 42.5525 200.992 42.7322 200.678L43.6004 201.174L44.4686 201.67C44.2135 202.116 43.5236 203.087 42.9189 203.857L42.1326 203.239ZM43.6004 201.174L42.6901 200.76C42.8185 200.478 43.0336 200.167 43.4108 199.962C43.7645 199.769 44.1457 199.733 44.4843 199.747C45.1259 199.774 46.0115 200.009 47.2119 200.382L46.9149 201.337L46.6178 202.292C45.3732 201.905 44.7375 201.759 44.401 201.745C44.2506 201.739 44.2786 201.767 44.3675 201.718C44.4797 201.657 44.5182 201.571 44.5107 201.588L43.6004 201.174ZM46.9149 201.337L47.1707 200.37C49.2489 200.92 51.2458 202.079 54.1444 204.977L53.4373 205.685L52.7302 206.392C49.9766 203.638 48.2765 202.732 46.659 202.304L46.9149 201.337ZM53.4373 205.685L52.6827 205.028L53.7696 203.778L54.5242 204.435L55.2788 205.091L54.1919 206.341L53.4373 205.685ZM54.5242 204.435L53.7961 203.749C54.3187 203.194 54.8793 202.784 55.6547 202.537C56.385 202.306 57.2463 202.239 58.3279 202.239L58.3279 203.239L58.328 204.239C57.2905 204.239 56.6846 204.309 56.2602 204.444C55.8809 204.564 55.5992 204.752 55.2524 205.12L54.5242 204.435ZM58.3279 203.239V202.239C59.2956 202.239 59.8744 202.182 60.2127 202.091C60.5231 202.006 60.4237 201.955 60.3774 202.082L61.3172 202.424L62.257 202.766C61.9933 203.491 61.3776 203.847 60.7368 204.021C60.1239 204.187 59.3168 204.239 58.3279 204.239V203.239ZM61.3172 202.424L60.3685 202.108C60.3525 202.156 60.3462 202.23 60.3677 202.304C60.3858 202.366 60.4078 202.373 60.3664 202.33C60.2671 202.227 60.0091 202.046 59.474 201.829L59.8504 200.902L60.2268 199.976C60.8507 200.229 61.4167 200.538 61.8063 200.942C62.2383 201.39 62.5032 202.028 62.2659 202.74L61.3172 202.424ZM59.8504 200.902L59.4443 201.816C58.541 201.415 56.2146 200.67 54.2566 200.127L54.5242 199.163L54.7919 198.2C56.7468 198.743 59.2033 199.52 60.2565 199.988L59.8504 200.902ZM54.5242 199.163L54.2566 200.127C53.3175 199.866 52.3706 199.672 51.6123 199.57C51.2317 199.519 50.9165 199.493 50.6831 199.491C50.3965 199.487 50.3773 199.522 50.4733 199.479L50.0672 198.565L49.6611 197.652C50.0017 197.5 50.4173 197.487 50.7066 197.491C51.049 197.495 51.4507 197.53 51.8786 197.588C52.7374 197.703 53.7744 197.917 54.7919 198.2L54.5242 199.163ZM50.0672 198.565L50.3544 199.523C49.9729 199.638 49.5446 199.685 49.1489 199.594C48.7888 199.511 48.0887 199.179 48.0887 198.348H49.0887H50.0887C50.0887 198.118 49.9853 197.916 49.8466 197.787C49.7289 197.678 49.6213 197.65 49.5994 197.645C49.5572 197.635 49.6181 197.656 49.7799 197.608L50.0672 198.565ZM49.0887 198.348L48.0887 198.349C48.089 198.696 48.2987 198.881 48.3413 198.914C48.3867 198.949 48.3886 198.936 48.2966 198.907C48.1235 198.852 47.8243 198.805 47.4588 198.805L47.4588 197.805L47.4588 196.805C47.9626 196.805 48.4783 196.866 48.9026 197.001C49.1095 197.067 49.3558 197.169 49.5709 197.337C49.7834 197.502 50.0882 197.836 50.0887 198.347L49.0887 198.348ZM47.4588 197.805V198.805C46.9283 198.805 46.3984 198.723 45.9602 198.594C45.7417 198.53 45.5215 198.446 45.3251 198.34C45.1596 198.251 44.8803 198.077 44.699 197.775L45.5565 197.261L46.4139 196.746C46.3562 196.65 46.2967 196.6 46.2807 196.587C46.2611 196.571 46.256 196.57 46.2753 196.58C46.315 196.602 46.3971 196.638 46.5251 196.675C46.78 196.75 47.1197 196.805 47.4588 196.805V197.805ZM45.5565 197.261L44.6622 197.708C44.7256 197.835 44.8214 197.878 44.8507 197.887C44.8748 197.895 44.9023 197.899 44.9487 197.883L44.6326 196.935L44.3165 195.986C44.689 195.862 45.0969 195.866 45.4606 195.982C45.8295 196.1 46.2243 196.361 46.4508 196.813L45.5565 197.261ZM44.6326 196.935L44.9073 197.896C44.6424 197.972 44.3598 197.968 44.1524 197.954C43.9196 197.939 43.6646 197.9 43.4065 197.845C42.8921 197.736 42.3014 197.55 41.7616 197.296L42.1873 196.392L42.613 195.487C42.9971 195.667 43.4388 195.808 43.8211 195.889C44.0113 195.929 44.1706 195.951 44.2876 195.959C44.43 195.969 44.4327 195.952 44.3579 195.973L44.6326 196.935ZM42.1873 196.392L41.7812 197.305C41.2668 197.077 40.767 196.822 40.3808 196.572C40.1915 196.45 39.9942 196.307 39.8322 196.146C39.751 196.066 39.6547 195.957 39.5735 195.822C39.4955 195.693 39.3934 195.475 39.3934 195.195H40.3934H41.3934C41.3934 194.983 41.3167 194.84 41.2872 194.791C41.2544 194.737 41.2294 194.715 41.24 194.725C41.2615 194.747 41.3293 194.804 41.4662 194.892C41.7324 195.064 42.1295 195.272 42.5935 195.478L42.1873 196.392ZM40.3934 195.195L39.3934 195.197C39.3936 195.3 39.4134 195.365 39.414 195.367C39.4171 195.378 39.4162 195.372 39.4052 195.346C39.383 195.293 39.3417 195.209 39.2776 195.096C39.1508 194.871 38.9691 194.591 38.7692 194.317L39.5779 193.728L40.3867 193.14C40.6213 193.463 40.8471 193.808 41.0193 194.113C41.1046 194.264 41.1858 194.421 41.2486 194.57C41.2948 194.68 41.3928 194.922 41.3934 195.193L40.3934 195.195ZM39.5779 193.728L38.7779 194.328C38.6225 194.121 38.5199 194.001 38.4501 193.932C38.4175 193.9 38.4062 193.894 38.4144 193.899C38.4236 193.906 38.4639 193.931 38.5325 193.95C38.6063 193.971 38.6921 193.979 38.7801 193.967C38.8644 193.955 38.9231 193.929 38.9513 193.914C38.9772 193.9 38.9799 193.894 38.9577 193.913C38.936 193.932 38.9013 193.965 38.851 194.02L38.1111 193.348L37.3713 192.675C37.6348 192.385 38.2281 191.787 39.075 192.025C39.4199 192.123 39.6761 192.334 39.8501 192.504C40.0315 192.682 40.2073 192.901 40.3779 193.128L39.5779 193.728ZM38.1111 193.348L38.7838 194.088C38.484 194.36 37.948 194.806 37.2212 194.697C36.8825 194.646 36.6134 194.488 36.4138 194.336C36.2158 194.186 36.0288 193.999 35.8539 193.809L36.5887 193.131L37.3235 192.453C37.3961 192.531 37.4568 192.594 37.5085 192.643C37.5605 192.693 37.5972 192.724 37.6215 192.742C37.675 192.783 37.6337 192.736 37.5193 192.719C37.4601 192.71 37.401 192.712 37.3485 192.722C37.2988 192.732 37.2691 192.746 37.2629 192.749C37.2579 192.752 37.2704 192.746 37.3031 192.722C37.3356 192.697 37.3796 192.661 37.4385 192.608L38.1111 193.348ZM2.40411 190.739L2.40412 191.739C1.90017 191.739 1.55078 191.746 1.3003 191.769C1.02672 191.794 0.99841 191.829 1.05227 191.798C1.09702 191.772 1.16313 191.721 1.21908 191.639C1.27305 191.559 1.28998 191.49 1.29455 191.464C1.2971 191.45 1.28688 191.515 1.32762 191.786L0.338682 191.935L-0.65026 192.083C-0.69099 191.811 -0.735079 191.455 -0.674682 191.115C-0.599028 190.688 -0.364556 190.304 0.0604362 190.061C0.399712 189.867 0.792661 189.807 1.12029 189.777C1.47102 189.746 1.9028 189.739 2.40411 189.739L2.40411 190.739ZM0.338682 191.935L1.33319 191.83C1.35689 192.055 1.38511 192.145 1.39719 192.173C1.40037 192.181 1.39577 192.168 1.3784 192.147C1.36005 192.125 1.33995 192.109 1.32576 192.1C1.30599 192.087 1.34376 192.118 1.52875 192.145C1.71127 192.171 1.97063 192.185 2.3504 192.185V193.185V194.185C1.94212 194.185 1.56959 194.171 1.24414 194.124C0.921153 194.078 0.574879 193.99 0.262779 193.794C-0.452511 193.345 -0.59708 192.597 -0.655823 192.039L0.338682 191.935ZM2.3504 193.185L2.35038 192.185C2.72945 192.185 2.99354 192.171 3.18277 192.144C3.37455 192.117 3.42579 192.085 3.41808 192.089C3.40997 192.094 3.3935 192.106 3.37685 192.125C3.36079 192.144 3.35586 192.156 3.35821 192.15C3.36828 192.128 3.3977 192.045 3.42035 191.83L4.41485 191.935L5.40936 192.039C5.34688 192.633 5.17507 193.367 4.44746 193.804C4.13419 193.992 3.78818 194.079 3.46213 194.125C3.13353 194.171 2.75922 194.185 2.35043 194.185L2.3504 193.185ZM4.41485 191.935L3.42591 191.786C3.46654 191.515 3.45709 191.448 3.45901 191.459C3.46304 191.482 3.47878 191.55 3.53115 191.629C3.58582 191.712 3.65175 191.765 3.69919 191.792C3.75871 191.827 3.7387 191.793 3.47427 191.769C3.23271 191.746 2.89454 191.739 2.40411 191.739V190.739V189.739C2.89189 189.739 3.31454 189.746 3.65887 189.777C3.98033 189.807 4.37129 189.868 4.70932 190.066C5.13177 190.313 5.35798 190.7 5.4301 191.12C5.48807 191.457 5.44466 191.81 5.40379 192.083L4.41485 191.935ZM39.3065 5.95699L38.9629 6.89611C36.8636 6.12808 35.3169 5.87593 32.8473 6.03024L32.785 5.03218L32.7226 4.03413C35.47 3.86246 37.293 4.15555 39.65 5.01787L39.3065 5.95699ZM32.785 5.03218L32.8404 6.03064C30.9585 6.1352 28.5368 6.6638 27.4917 7.13884L27.0779 6.22847L26.6641 5.31811C28.0104 4.70619 30.6984 4.14656 32.7295 4.03372L32.785 5.03218ZM27.0779 6.22847L27.5252 7.1229C26.3583 7.70636 24.5906 8.75155 23.6459 9.54711L23.0018 8.78218L22.3576 8.01726C23.478 7.07381 25.4064 5.94625 26.6307 5.33405L27.0779 6.22847ZM23.0018 8.78218L23.6214 9.56707C22.6659 10.3214 20.9287 12.1065 19.8813 13.4681L19.0887 12.8584L18.2961 12.2486C19.4226 10.7842 21.2725 8.87335 22.3821 7.9973L23.0018 8.78218ZM19.0887 12.8584L19.8813 13.4681C18.8607 14.7949 17.3882 17.475 16.7148 19.3396L15.7742 19L14.8337 18.6603C15.5734 16.6119 17.1429 13.7478 18.2961 12.2486L19.0887 12.8584ZM15.7742 19L16.7062 19.3624C15.9709 21.2533 15.232 24.1107 15.0262 25.6536L14.035 25.5214L13.0437 25.3892C13.2729 23.6712 14.056 20.6593 14.8422 18.6375L15.7742 19ZM14.035 25.5214L15.0262 25.6536C14.8102 27.2738 14.543 29.791 14.4904 31.2642L13.491 31.2285L12.4917 31.1928C12.5477 29.6225 12.825 27.0299 13.0437 25.3893L14.035 25.5214ZM13.491 31.2285L14.4902 31.2701C14.4675 31.8142 14.4533 32.2216 14.4566 32.5432C14.46 32.8706 14.482 33.0479 14.5071 33.1483C14.5263 33.2249 14.537 33.2171 14.5196 33.1993C14.5188 33.1985 14.5573 33.2386 14.7329 33.3158L14.3309 34.2314L13.9288 35.147C13.651 35.025 13.3464 34.8604 13.089 34.597C12.8151 34.3166 12.6556 33.9882 12.567 33.6341C12.4843 33.3037 12.4607 32.94 12.4568 32.564C12.4528 32.1821 12.4695 31.7236 12.4919 31.1868L13.491 31.2285ZM14.3309 34.2314L14.5255 35.2123C14.5495 35.2075 14.5601 35.2015 14.5588 35.2022C14.5577 35.2028 14.5516 35.2064 14.5435 35.2136C14.5398 35.2169 14.5366 35.2202 14.5341 35.223C14.5316 35.2258 14.5304 35.2275 14.5304 35.2274C14.5305 35.2274 14.531 35.2267 14.5318 35.2253C14.5326 35.224 14.5339 35.2218 14.5354 35.2187C14.5385 35.2127 14.5435 35.202 14.5488 35.1861L13.6004 34.8691L12.652 34.5521C12.8582 33.9351 13.4438 33.3879 14.1362 33.2505L14.3309 34.2314ZM13.6004 34.8691L14.5619 35.1438C14.5817 35.0745 14.5757 35.0541 14.5705 35.1508C14.5666 35.2244 14.5648 35.3306 14.5663 35.4721C14.5694 35.7536 14.5854 36.1312 14.6121 36.5833C14.6655 37.4851 14.7595 38.6416 14.8678 39.8333L13.8719 39.9238L12.876 40.0143C12.7669 38.8147 12.6708 37.6341 12.6156 36.7015C12.5881 36.2364 12.5701 35.8224 12.5665 35.4942C12.5646 35.3307 12.5662 35.1774 12.5734 35.0441C12.5793 34.9338 12.5919 34.7588 12.6389 34.5944L13.6004 34.8691ZM13.8719 39.9238L14.8655 39.8109C15.1354 42.1863 15.6754 45.9625 16.1034 48.1561L15.1219 48.3476L14.1404 48.5391C13.6988 46.2761 13.1518 42.4437 12.8783 40.0367L13.8719 39.9238ZM15.1219 48.3476L16.1034 48.1561C16.5431 50.4095 17.1435 54.2341 17.4711 56.6363L16.4803 56.7714L15.4895 56.9066C15.1648 54.5261 14.5702 50.7421 14.1404 48.5391L15.1219 48.3476ZM16.4803 56.7714L17.4679 56.6143C17.8457 58.9892 18.6566 63.3664 19.3558 66.3246L18.3826 66.5546L17.4094 66.7847C16.6956 63.7646 15.8758 59.3363 15.4927 56.9286L16.4803 56.7714ZM18.3826 66.5546L19.3558 66.3246C20.0616 69.3106 20.7287 72.6831 20.8449 73.7869L19.8504 73.8916L18.8559 73.9962C18.7547 73.0349 18.1167 69.7768 17.4094 66.7847L18.3826 66.5546ZM19.8504 73.8916L20.8475 73.8148C20.8998 74.495 20.9978 74.7826 21.0664 74.8963C21.0792 74.9175 21.0874 74.9261 21.0892 74.928C21.0907 74.9295 21.0908 74.9295 21.0919 74.9301C21.0934 74.931 21.1274 74.9517 21.2326 74.9658L21.1004 75.957L20.9682 76.9482C20.3187 76.8616 19.7367 76.563 19.3545 75.9304C19.0291 75.3917 18.9097 74.701 18.8533 73.9683L19.8504 73.8916ZM21.1004 75.957L21.2788 74.973C21.3722 74.99 21.7382 74.9381 22.1538 74.6733L22.6912 75.5166L23.2287 76.3598C22.6124 76.7526 21.7219 77.086 20.922 76.9409L21.1004 75.957ZM22.6912 75.5166L23.2865 76.3201C22.9825 76.5453 22.6403 76.7372 22.3008 76.8698C21.9842 76.9935 21.569 77.1056 21.1521 77.0593L21.2625 76.0654L21.3729 75.0715C21.3372 75.0675 21.3376 75.0737 21.3849 75.0646C21.4284 75.0562 21.4921 75.0385 21.5731 75.0069C21.737 74.9428 21.9248 74.8398 22.096 74.713L22.6912 75.5166ZM21.2625 76.0654L21.2626 77.0654C21.0907 77.0654 21.1886 77.0962 21.3279 76.9988C21.5017 76.8773 21.5051 76.7333 21.4826 76.8457C21.4582 76.9679 21.441 77.2037 21.4525 77.644C21.4637 78.071 21.4994 78.6268 21.5537 79.3607L20.5565 79.4345L19.5592 79.5084C19.5049 78.7752 19.4658 78.1764 19.4532 77.6965C19.441 77.2301 19.4508 76.807 19.5214 76.4537C19.594 76.0906 19.7603 75.6545 20.1819 75.3597C20.5691 75.089 20.9997 75.0654 21.2624 75.0654L21.2625 76.0654ZM20.5565 79.4345L21.5528 79.3491C21.7172 81.2675 21.9895 85.4655 22.1529 88.7878L21.1541 88.8369L20.1553 88.886C19.9926 85.5779 19.7218 81.4059 19.5601 79.5199L20.5565 79.4345ZM21.1541 88.8369L22.1529 88.7875C22.3729 93.2429 22.2642 96.2595 21.5396 100.161L20.5565 99.9785L19.5733 99.7959C20.2617 96.0888 20.3701 93.2352 20.1553 88.8862L21.1541 88.8369ZM20.5565 99.9785L21.5418 100.149C21.0436 103.028 19.9368 106.921 19.0752 108.816L18.1649 108.402L17.2545 107.988C18.0233 106.297 19.0911 102.581 19.5711 99.8079L20.5565 99.9785ZM18.1649 108.402L19.0593 108.85C18.0359 110.896 16.3344 113.286 14.5946 114.852L13.9256 114.108L13.2566 113.365C14.7775 111.996 16.3373 109.821 17.2704 107.955L18.1649 108.402ZM13.9256 114.108L14.605 114.842C13.066 116.267 9.35959 118.917 6.34244 120.728L5.82794 119.87L5.31344 119.013C8.27456 117.236 11.8504 114.667 13.2462 113.375L13.9256 114.108ZM5.82794 119.87L6.36076 120.716C3.43576 122.558 -0.940797 125.475 -3.30058 127.245L-3.90058 126.445L-4.50058 125.645C-2.07793 123.828 2.35055 120.878 5.29512 119.024L5.82794 119.87ZM-3.90058 126.445L-3.30057 127.245C-5.65323 129.01 -10.462 133.115 -13.983 136.366L-14.6613 135.631L-15.3396 134.896C-11.7955 131.625 -6.93057 127.468 -4.50058 125.645L-3.90058 126.445ZM-14.6613 135.631L-13.983 136.366C-17.503 139.615 -21.3486 143.024 -22.4851 143.876L-23.0851 143.076L-23.6851 142.276C-22.6479 141.498 -18.8847 138.168 -15.3396 134.896L-14.6613 135.631ZM-23.0851 143.076L-22.4852 143.876C-23.7219 144.804 -25.4596 145.605 -27.8393 145.544L-27.8137 144.544L-27.788 143.544C-25.9288 143.592 -24.6223 142.979 -23.6851 142.276L-23.0851 143.076ZM-27.8137 144.544L-28.5208 143.837L-27.053 142.369L-26.3459 143.076L-25.6388 143.783L-27.1066 145.251L-27.8137 144.544ZM-26.3459 143.076L-27.0754 142.392C-26.6725 141.962 -26.31 141.56 -26.0528 141.246C-25.9225 141.087 -25.8345 140.97 -25.7842 140.893C-25.7584 140.853 -25.7555 140.844 -25.7625 140.859C-25.7664 140.868 -25.7788 140.895 -25.7913 140.937C-25.8026 140.975 -25.8244 141.06 -25.8244 141.174H-24.8244H-23.8244C-23.8244 141.427 -23.9141 141.628 -23.9501 141.705C-23.999 141.81 -24.0576 141.907 -24.1108 141.988C-24.2184 142.152 -24.3579 142.334 -24.5061 142.514C-24.8058 142.88 -25.2041 143.32 -25.6164 143.76L-26.3459 143.076ZM-24.8244 141.174L-25.8244 141.175C-25.8239 141.515 -25.642 141.716 -25.5991 141.761C-25.5441 141.818 -25.5084 141.834 -25.5378 141.817C-25.5912 141.786 -25.7176 141.727 -25.9407 141.649C-26.3738 141.499 -27.0076 141.332 -27.7507 141.173L-27.5412 140.195L-27.3317 139.217C-26.5534 139.384 -25.8291 139.571 -25.2842 139.76C-25.0183 139.853 -24.7508 139.961 -24.5324 140.088C-24.426 140.15 -24.285 140.242 -24.1586 140.373C-24.0443 140.492 -23.825 140.765 -23.8244 141.172L-24.8244 141.174ZM-27.5412 140.195L-27.7581 141.171C-29.2717 140.835 -32.0995 140.005 -34.0088 139.219L-33.6281 138.294L-33.2474 137.369C-31.4611 138.105 -28.7453 138.903 -27.3243 139.219L-27.5412 140.195ZM-33.6281 138.294L-33.9995 139.222C-34.9271 138.851 -35.867 138.52 -36.6288 138.284C-37.0103 138.165 -37.3384 138.073 -37.5928 138.012C-37.88 137.943 -37.9877 137.935 -37.9767 137.935V136.935V135.935C-37.7213 135.935 -37.4008 136.001 -37.124 136.068C-36.8144 136.142 -36.4425 136.248 -36.0358 136.374C-35.2211 136.627 -34.2313 136.976 -33.2567 137.365L-33.6281 138.294ZM-37.9767 136.935L-37.9763 137.935C-37.9183 137.934 -37.94 137.889 -38.0513 138.028C-38.1787 138.188 -38.3365 138.494 -38.482 139.003L-39.4435 138.728L-40.4051 138.454C-40.2246 137.822 -39.9749 137.231 -39.6135 136.779C-39.2359 136.307 -38.6872 135.935 -37.9772 135.935L-37.9767 136.935ZM-39.4435 138.728L-38.48 138.996C-38.5804 139.358 -38.6473 139.973 -38.6473 140.732C-38.6473 141.475 -38.5834 142.288 -38.4581 143.015L-39.4435 143.185L-40.429 143.354C-40.5754 142.505 -40.6473 141.579 -40.6473 140.732C-40.6473 139.902 -40.5784 139.078 -40.4071 138.461L-39.4435 138.728ZM-39.4435 143.185L-38.4591 143.009C-38.346 143.642 -37.9159 144.944 -36.8673 147.382C-35.8311 149.791 -34.2229 153.238 -31.8079 158.122L-32.7043 158.565L-33.6007 159.009C-36.0226 154.11 -37.6482 150.628 -38.7045 148.172C-39.7483 145.746 -40.2693 144.249 -40.428 143.36L-39.4435 143.185ZM-32.7043 158.565L-32.6247 157.569L-29.0759 157.852L-29.1555 158.849L-29.235 159.845L-32.7838 159.562L-32.7043 158.565ZM-29.1555 158.849L-29.1983 159.848C-30.1661 159.806 -31.4103 159.767 -33.0005 159.728L-32.9758 158.728L-32.9511 157.729C-31.3562 157.768 -30.0981 157.807 -29.1126 157.85L-29.1555 158.849ZM-32.9758 158.728L-32.0813 158.281L-30.6683 161.107L-31.5627 161.555L-32.4571 162.002L-33.8702 159.176L-32.9758 158.728ZM-31.5627 161.555L-30.6745 161.095C-29.8863 162.619 -28.3381 165.078 -27.2714 166.571L-28.0851 167.152L-28.8989 167.734C-30.0059 166.184 -31.6085 163.643 -32.4509 162.014L-31.5627 161.555ZM-28.0851 167.152L-27.2816 166.557C-26.2378 167.966 -24.055 170.362 -22.4699 171.789L-23.1389 172.532L-23.8078 173.275C-25.4835 171.767 -27.7586 169.273 -28.8887 167.748L-28.0851 167.152ZM-23.1389 172.532L-22.4839 171.776C-20.8948 173.154 -17.7833 175.461 -15.5926 176.851L-16.1281 177.695L-16.6637 178.54C-18.9294 177.103 -22.1221 174.737 -23.7938 173.288L-23.1389 172.532ZM-16.1281 177.695L-15.6136 176.838C-13.2371 178.264 -9.78352 179.804 -7.04627 180.594L-7.32343 181.555L-7.60059 182.515C-10.5155 181.675 -14.1278 180.062 -16.6426 178.553L-16.1281 177.695ZM-7.32343 181.555L-7.0487 180.593C-5.91267 180.918 -5.02466 181.176 -4.33298 181.412C-3.64716 181.647 -3.08583 181.882 -2.63389 182.182C-1.62437 182.851 -1.33731 183.743 -0.994861 184.771L-1.94354 185.087L-2.89223 185.403C-3.25623 184.311 -3.37681 184.089 -3.73945 183.848C-3.97359 183.693 -4.33948 183.524 -4.97994 183.305C-5.61454 183.088 -6.45187 182.844 -7.59815 182.516L-7.32343 181.555ZM-1.94354 185.087L-0.998558 184.76C-0.546926 186.064 0.0135867 186.632 0.509393 186.807L0.176573 187.75L-0.156247 188.693C-1.50827 188.216 -2.3619 186.935 -2.88853 185.414L-1.94354 185.087ZM0.176573 187.75L0.512759 186.808C1.07538 187.009 2.1228 187.061 2.81392 186.888L3.05646 187.858L3.29899 188.828C2.25128 189.09 0.799577 189.034 -0.159613 188.692L0.176573 187.75ZM3.05646 187.858L2.86034 186.878C2.90706 186.868 3.07169 186.812 3.37096 186.645C3.64981 186.49 3.98615 186.272 4.35856 186.002C5.10311 185.463 5.94595 184.751 6.69702 184L7.40411 184.707L8.1112 185.414C7.28625 186.239 6.36283 187.021 5.53136 187.623C5.11575 187.923 4.71162 188.188 4.34513 188.392C3.99904 188.585 3.61343 188.767 3.25257 188.839L3.05646 187.858ZM7.40411 184.707L6.68944 184.008C7.31485 183.369 7.8185 182.864 8.22215 182.489C8.60686 182.132 8.96878 181.825 9.29914 181.647C9.46531 181.557 9.71519 181.447 10.0153 181.441C10.3706 181.434 10.6969 181.574 10.9347 181.825C11.1344 182.036 11.2273 182.277 11.2756 182.432C11.3274 182.599 11.3592 182.774 11.3823 182.928L10.3934 183.076L9.40443 183.224C9.38673 183.106 9.37271 183.049 9.36576 183.026C9.35514 182.992 9.37634 183.088 9.48347 183.201C9.62864 183.354 9.84159 183.445 10.0549 183.441C10.2129 183.438 10.2921 183.383 10.2511 183.406C10.167 183.451 9.96841 183.597 9.58373 183.954C9.218 184.294 8.74338 184.768 8.11878 185.406L7.40411 184.707ZM10.3934 183.076L11.3899 182.993C11.415 183.294 11.4509 183.545 11.4857 183.704C11.5047 183.791 11.5141 183.807 11.5031 183.781C11.4996 183.773 11.4683 183.698 11.3938 183.608C11.3357 183.538 11.0989 183.276 10.6764 183.272L10.6649 184.271L10.6533 185.271C10.2037 185.266 9.93975 184.988 9.85467 184.885C9.75328 184.763 9.69525 184.64 9.66544 184.57C9.60184 184.422 9.56037 184.262 9.53185 184.131C9.47154 183.856 9.42603 183.51 9.39682 183.159L10.3934 183.076ZM10.6649 184.271V183.271C10.6032 183.271 10.5556 183.277 10.5395 183.279C10.5176 183.282 10.5004 183.285 10.491 183.287C10.472 183.29 10.4583 183.293 10.4544 183.294C10.4454 183.296 10.4422 183.297 10.4494 183.295C10.4619 183.292 10.4857 183.286 10.5236 183.275C10.598 183.254 10.7078 183.222 10.8517 183.18C11.1387 183.095 11.5478 182.974 12.0515 182.824C13.0571 182.525 14.4319 182.117 15.9295 181.681L16.2088 182.642L16.4881 183.602C14.9966 184.036 13.6265 184.442 12.6211 184.741C12.1192 184.89 11.7062 185.013 11.4156 185.098C11.2708 185.141 11.153 185.175 11.0685 185.199C11.0271 185.211 10.9886 185.222 10.9571 185.23C10.9422 185.234 10.9215 185.239 10.8997 185.244C10.8893 185.246 10.8704 185.251 10.8474 185.255C10.8468 185.255 10.7654 185.271 10.6649 185.271V184.271ZM16.2088 182.642L15.9295 181.681C22.248 179.843 27.3352 178.827 33.1633 176.805L33.491 177.75L33.8188 178.695C27.957 180.728 22.5842 181.828 16.4881 183.602L16.2088 182.642ZM33.491 177.75L33.1748 176.801C34.4539 176.375 35.6005 175.926 36.4154 175.551C36.8272 175.361 37.1283 175.202 37.3138 175.085C37.4105 175.024 37.4414 174.996 37.4361 175.001C37.4337 175.003 37.3957 175.039 37.3525 175.106C37.3145 175.166 37.2196 175.332 37.2195 175.576L38.2195 175.576L39.2195 175.576C39.2195 175.861 39.108 176.073 39.0376 176.183C38.9621 176.302 38.876 176.392 38.8105 176.454C38.6791 176.578 38.524 176.687 38.3812 176.777C38.0877 176.962 37.6958 177.163 37.2516 177.368C36.3544 177.781 35.1368 178.255 33.8073 178.699L33.491 177.75ZM38.2195 175.576H37.2195C37.2195 175.77 37.2862 175.901 37.3146 175.949C37.3447 176.001 37.3669 176.02 37.354 176.007C37.3273 175.98 37.25 175.916 37.1003 175.825C36.8083 175.646 36.3735 175.443 35.8784 175.27L36.2088 174.326L36.5392 173.382C37.1311 173.589 37.7016 173.848 38.1432 174.118C38.3604 174.251 38.582 174.408 38.7624 174.587C38.8955 174.719 39.2195 175.066 39.2195 175.576H38.2195ZM36.2088 174.326L35.8374 175.255C35.6714 175.188 35.3004 175.093 34.7027 174.99C34.1286 174.89 33.4099 174.792 32.5932 174.702C30.9611 174.522 28.9731 174.374 27.0363 174.293L27.0779 173.294L27.1196 172.295C29.0958 172.377 31.1298 172.528 32.8131 172.714C33.6541 172.807 34.4165 172.91 35.0449 173.019C35.6498 173.124 36.2027 173.247 36.5802 173.398L36.2088 174.326ZM27.0779 173.294L27.0333 174.293C24.1026 174.162 22.2244 174.039 20.8953 173.832L21.0496 172.844L21.2039 171.856C22.4063 172.043 24.1753 172.163 27.1225 172.295L27.0779 173.294ZM21.0496 172.844L21.1942 171.854C22.4446 172.037 24.3338 172.132 27.6544 172.24L27.6219 173.239L27.5894 174.239C24.3004 174.132 22.2894 174.036 20.905 173.833L21.0496 172.844ZM27.6219 173.239L27.6576 172.24C30.6921 172.348 32.7656 172.471 34.4848 172.808C36.2444 173.153 37.6098 173.715 39.257 174.652L38.7625 175.521L38.268 176.391C36.7633 175.535 35.6017 175.065 34.1005 174.771C32.559 174.469 30.6381 174.348 27.5862 174.239L27.6219 173.239ZM38.7625 175.521L38.2605 174.657L41.6306 172.701L42.1326 173.565L42.6346 174.43L39.2645 176.386L38.7625 175.521ZM42.1326 173.565L41.6365 172.697C43.5127 171.625 45.9708 170.02 47.1188 169.133L47.7303 169.924L48.3417 170.715C47.0984 171.676 44.5568 173.332 42.6288 174.434L42.1326 173.565ZM47.7303 169.924L47.0795 169.165C48.1927 168.21 50.2343 166.276 51.6291 164.828L52.3494 165.521L53.0697 166.215C51.6385 167.701 49.5505 169.681 48.3811 170.683L47.7303 169.924ZM52.3494 165.521L51.6157 164.842C52.957 163.393 54.5988 161.376 55.261 160.357L56.0994 160.902L56.9378 161.447C56.1868 162.603 54.459 164.715 53.0832 166.201L52.3494 165.521ZM56.0994 160.902L55.2802 160.329C56.0079 159.289 57.1224 157.38 57.7526 156.067L58.6541 156.5L59.5556 156.933C58.8814 158.337 57.7127 160.341 56.9187 161.476L56.0994 160.902ZM58.6541 156.5L57.7669 156.039C58.4433 154.738 59.3472 152.509 59.8222 151.031L60.7742 151.337L61.7263 151.643C61.223 153.209 60.278 155.545 59.5413 156.961L58.6541 156.5ZM60.7742 151.337L59.8255 151.021C60.2969 149.607 60.9927 146.825 61.3678 144.896L62.3494 145.087L63.331 145.278C62.9453 147.261 62.2299 150.132 61.7229 151.653L60.7742 151.337ZM62.3494 145.087L61.3678 144.896C61.7367 142.999 61.9448 140.415 61.8942 139.148L62.8934 139.108L63.8926 139.068C63.9506 140.52 63.723 143.262 63.331 145.278L62.3494 145.087ZM62.8934 139.108L61.8942 139.148C61.8408 137.816 61.6252 134.902 61.4088 132.684L62.4041 132.587L63.3994 132.49C63.6178 134.728 63.8371 137.683 63.8926 139.068L62.8934 139.108ZM62.4041 132.587L61.4068 132.66C61.2488 130.502 60.6086 126.862 60.0742 124.671L61.0457 124.435L62.0172 124.198C62.5698 126.463 63.2333 130.216 63.4014 132.514L62.4041 132.587ZM61.0457 124.435L60.0799 124.694C59.4864 122.482 58.5169 119.307 57.933 117.714L58.8719 117.37L59.8108 117.026C60.4226 118.694 61.4095 121.931 62.0116 124.175L61.0457 124.435ZM58.8719 117.37L57.9434 117.741C57.2998 116.132 55.1875 111.257 53.2314 106.91L54.1434 106.5L55.0553 106.09C57.0123 110.438 59.1397 115.347 59.8004 116.999L58.8719 117.37ZM54.1434 106.5L53.2314 106.91C51.2741 102.561 49.3703 98.2639 48.988 97.39L49.9041 96.9892L50.8203 96.5884C51.1989 97.4537 53.0996 101.744 55.0553 106.09L54.1434 106.5ZM49.9041 96.9892L48.988 97.39C48.5855 96.4702 47.6422 93.691 46.8385 91.3334L47.785 91.0107L48.7315 90.688C49.5582 93.113 50.4618 95.7691 50.8203 96.5884L49.9041 96.9892ZM47.785 91.0107L46.832 91.3139C46.0591 88.8845 44.8559 84.2345 44.0925 80.9082L45.0672 80.6845L46.0419 80.4608C46.8002 83.765 47.9891 88.3542 48.7379 90.7075L47.785 91.0107ZM45.0672 80.6845L44.0892 80.893C43.3748 77.541 42.4988 71.9037 42.169 68.2751L43.1649 68.1845L44.1607 68.094C44.483 71.639 45.3465 77.1975 46.0452 80.4761L45.0672 80.6845ZM43.1649 68.1845L42.169 68.2751C41.8403 64.6597 41.7278 60.1503 41.8404 58.2352L42.8387 58.2939L43.837 58.3526C43.7322 60.1336 43.8373 64.536 44.1607 68.094L43.1649 68.1845ZM42.8387 58.2939L41.8423 58.2085C41.9247 57.2477 42.0215 56.3207 42.1194 55.5867C42.1683 55.2208 42.2188 54.8924 42.2698 54.6273C42.3116 54.41 42.3759 54.1035 42.4882 53.8789L43.3826 54.3261L44.2771 54.7733C44.3078 54.7118 44.2838 54.745 44.2338 55.005C44.193 55.2172 44.1483 55.5037 44.1019 55.8513C44.0094 56.5441 43.9157 57.4379 43.835 58.3793L42.8387 58.2939ZM43.3826 54.3261L42.4881 53.8791C42.4101 54.0353 42.4102 54.1924 42.4359 54.2989C42.4575 54.3885 42.4907 54.4219 42.474 54.4006C42.4602 54.3831 42.4237 54.3433 42.3535 54.2883C42.285 54.2348 42.1962 54.1759 42.0883 54.1171L42.5672 53.2392L43.0461 52.3613C43.4143 52.5622 43.7841 52.831 44.0464 53.1647C44.2895 53.474 44.6165 54.0941 44.2771 54.7732L43.3826 54.3261ZM42.5672 53.2392L42.1481 54.1472C40.977 53.6066 40.4803 52.4038 40.4803 51.2285L41.4803 51.2285L42.4803 51.2284C42.4803 51.9008 42.7445 52.2197 42.9863 52.3313L42.5672 53.2392ZM41.4803 51.2285H40.4803C40.4803 50.6728 40.6262 49.8165 40.8235 48.9318C41.0272 48.0187 41.3071 46.9831 41.6158 46.0291L42.5672 46.3369L43.5186 46.6447C43.2295 47.5385 42.9659 48.5139 42.7756 49.3672C42.5789 50.249 42.4803 50.9145 42.4803 51.2285H41.4803ZM42.5672 46.3369L41.6123 46.0398C42.334 43.7202 42.6541 41.3275 42.6541 37.6416L43.6541 37.6416L44.6541 37.6416C44.6541 41.4552 44.3221 44.0624 43.5221 46.6339L42.5672 46.3369ZM43.6541 37.6416H42.6541C42.6541 33.4301 42.9217 31.6058 43.8409 29.706L44.741 30.1416L45.6412 30.5771C44.9301 32.0467 44.6541 33.4838 44.6541 37.6416H43.6541ZM44.741 30.1416L43.8307 29.7278C44.1534 29.0177 44.6641 28.2837 45.2064 27.6673C45.7402 27.0606 46.3771 26.4851 46.9909 26.1601L47.4588 27.0439L47.9267 27.9277C47.6166 28.0918 47.1664 28.4674 46.7081 28.9883C46.2583 29.4995 45.8721 30.0698 45.6514 30.5554L44.741 30.1416ZM47.4588 27.0439L46.9288 26.1959C47.4771 25.8532 48.204 25.5769 48.8997 25.3864C49.5983 25.1951 50.357 25.0654 50.991 25.0654L50.991 26.0654L50.9911 27.0654C50.5925 27.0654 50.0198 27.1533 49.4279 27.3154C48.8329 27.4783 48.31 27.6911 47.9888 27.8919L47.4588 27.0439ZM50.991 26.0654V25.0654C51.4457 25.0654 51.7303 25.0575 51.9184 25.0345C52.0085 25.0235 52.0408 25.0128 52.0393 25.0134C52.0349 25.0149 51.9685 25.038 51.8907 25.1109C51.8046 25.1914 51.7522 25.2879 51.7274 25.3699C51.7068 25.4382 51.7127 25.4718 51.7114 25.4381C51.7102 25.4055 51.7038 25.3428 51.6835 25.2336C51.6636 25.1263 51.6344 24.9959 51.5948 24.831L52.5672 24.5976L53.5396 24.3642C53.6183 24.6921 53.698 25.047 53.71 25.3623C53.7227 25.6966 53.6667 26.1879 53.2572 26.5712C52.9062 26.8997 52.4569 26.9836 52.1611 27.0197C51.8347 27.0596 51.4331 27.0654 50.991 27.0654V26.0654ZM52.5672 24.5976L51.5971 24.8402C51.3905 24.0138 50.7502 21.929 50.1059 20.1571L51.0457 19.8154L51.9855 19.4736C52.6454 21.2883 53.3091 23.442 53.5373 24.3551L52.5672 24.5976ZM51.0457 19.8154L50.1059 20.1571C49.48 18.4358 48.1023 15.6815 47.0613 14.1201L47.8934 13.5654L48.7254 13.0107C49.8584 14.7101 51.3071 17.6081 51.9855 19.4736L51.0457 19.8154ZM47.8934 13.5654L47.0613 14.1201C45.9962 12.5224 44.3043 10.416 43.4021 9.56389L44.0887 8.83687L44.7753 8.10986C45.8295 9.10553 47.6167 11.3476 48.7254 13.0107L47.8934 13.5654ZM44.0887 8.83687L43.3816 9.54402C42.5304 8.69287 40.4927 7.45711 38.9622 6.89586L39.3065 5.95699L39.6507 5.01812C41.3808 5.65252 43.6904 7.02449 44.7957 8.12972L44.0887 8.83687ZM20.9725 172.833L20.8129 173.82C20.7618 173.812 20.7068 173.802 20.6714 173.796L20.8406 172.811L21.0099 171.825C21.061 171.834 21.0938 171.84 21.132 171.846L20.9725 172.833ZM20.8406 172.811L21.0013 171.823C21.1118 171.841 21.0609 171.835 21.1227 171.844L20.9725 172.833L20.8222 173.822C20.7869 173.816 20.7544 173.811 20.7318 173.807C20.7057 173.802 20.693 173.8 20.68 173.798L20.8406 172.811ZM11.91 168.594L12.4548 167.755C12.9691 168.089 13.5035 168.412 13.9699 168.666L13.491 169.544L13.0122 170.422C12.4921 170.138 11.9132 169.788 11.3651 169.432L11.91 168.594ZM13.491 169.544L13.9382 168.649C14.5219 168.941 15.0854 169.203 15.5287 169.389C15.7516 169.483 15.9324 169.553 16.0643 169.597C16.2468 169.659 16.2201 169.631 16.1012 169.631L16.0994 170.631L16.0977 171.631C15.8425 171.63 15.571 171.541 15.4257 171.492C15.2297 171.426 14.9995 171.336 14.7537 171.233C14.2597 171.025 13.6552 170.744 13.0438 170.438L13.491 169.544ZM16.0994 170.631V169.631C16.2916 169.631 16.4551 169.682 16.5255 169.705C16.6197 169.736 16.7139 169.774 16.8004 169.813C16.9749 169.891 17.1753 169.995 17.3838 170.112C17.8034 170.347 18.3082 170.665 18.7962 171.009L18.2195 171.826L17.6429 172.643C17.207 172.335 16.7604 172.055 16.4053 171.856C16.2264 171.756 16.0836 171.683 15.9845 171.639C15.9608 171.628 15.9419 171.62 15.9274 171.615C15.9203 171.612 15.9147 171.61 15.9107 171.608C15.9087 171.607 15.9072 171.607 15.9062 171.607C15.9051 171.606 15.9046 171.606 15.9046 171.606C15.9046 171.606 15.9052 171.606 15.9065 171.607C15.9077 171.607 15.9097 171.608 15.9124 171.608C15.9175 171.61 15.9268 171.612 15.9397 171.615C15.9591 171.619 16.0175 171.631 16.0994 171.631V170.631ZM18.2195 171.826L18.7676 170.99C18.9409 171.103 19.1008 171.2 19.2589 171.284L18.7869 172.166L18.315 173.048C18.0934 172.929 17.882 172.8 17.6715 172.663L18.2195 171.826ZM18.7869 172.166L18.3196 173.05C18.0925 172.93 17.8774 172.8 17.6648 172.658L18.2195 171.826L18.7742 170.994C18.9381 171.103 19.0948 171.198 19.2542 171.282L18.7869 172.166ZM18.2195 171.826L17.6981 172.679C17.21 172.381 16.7506 172.106 16.3906 171.906C16.2092 171.806 16.069 171.734 15.9714 171.689C15.9482 171.679 15.93 171.671 15.9163 171.665C15.9023 171.659 15.896 171.657 15.8963 171.657C15.8967 171.658 15.9 171.659 15.9059 171.66C15.9117 171.662 15.9217 171.665 15.9352 171.668C15.9566 171.672 16.0155 171.684 16.0974 171.685L16.1004 170.685L16.1034 169.685C16.2972 169.685 16.4607 169.737 16.5316 169.761C16.6251 169.792 16.7176 169.831 16.8007 169.869C16.9681 169.945 17.1608 170.047 17.3596 170.157C17.7603 170.379 18.2514 170.674 18.741 170.973L18.2195 171.826ZM16.1004 170.685V171.685C15.9348 171.685 15.7849 171.649 15.7038 171.628C15.6038 171.602 15.4985 171.568 15.395 171.532C15.1869 171.458 14.9394 171.358 14.6718 171.24C14.1342 171.003 13.471 170.678 12.798 170.314L13.2742 169.435L13.7505 168.555C14.3818 168.897 14.9958 169.197 15.4773 169.409C15.7192 169.516 15.9167 169.595 16.0602 169.645C16.1325 169.671 16.1796 169.685 16.2051 169.692C16.2495 169.703 16.1981 169.685 16.1004 169.685V170.685ZM13.2742 169.435L12.8415 170.336C12.3628 170.106 11.8585 169.798 11.3168 169.399L11.91 168.594L12.5031 167.789C12.9653 168.129 13.3625 168.368 13.707 168.533L13.2742 169.435ZM8.27423 165.087L9.14835 164.601C9.13762 164.582 9.12855 164.567 9.1237 164.56C9.12118 164.556 9.11928 164.553 9.11843 164.552C9.11766 164.55 9.11729 164.55 9.11821 164.551C9.11856 164.552 9.12099 164.555 9.12299 164.558C9.12532 164.562 9.12869 164.567 9.13256 164.573C9.14022 164.585 9.15157 164.602 9.16432 164.624L8.30157 165.13L7.43883 165.635C7.44714 165.65 7.45385 165.66 7.45679 165.665C7.45894 165.668 7.46116 165.671 7.45691 165.665C7.45444 165.661 7.44647 165.649 7.43752 165.635C7.42818 165.621 7.41481 165.599 7.40011 165.573L8.27423 165.087ZM8.30157 165.13L7.5519 165.792C7.5379 165.776 7.52231 165.758 7.50701 165.741L8.25763 165.08L9.00825 164.419C9.02229 164.435 9.03602 164.451 9.05125 164.468L8.30157 165.13ZM8.25763 165.08L8.63585 164.154C8.63655 164.155 8.63726 164.155 8.63894 164.156C8.64036 164.156 8.64251 164.157 8.64484 164.158C8.64935 164.16 8.65666 164.163 8.6651 164.166L8.27423 165.087L7.88336 166.007C7.88641 166.009 7.88813 166.009 7.88703 166.009C7.88656 166.009 7.88591 166.008 7.88456 166.008C7.88346 166.007 7.88141 166.007 7.87941 166.006L8.25763 165.08ZM-25.5256 159.269L-25.3478 158.284C-24.9251 158.361 -24.5433 158.444 -24.2378 158.532C-24.0862 158.575 -23.935 158.624 -23.7991 158.682C-23.6941 158.726 -23.4799 158.822 -23.3019 159L-24.009 159.707L-24.7161 160.414C-24.6484 160.482 -24.5912 160.515 -24.58 160.521C-24.5635 160.531 -24.5599 160.532 -24.5766 160.524C-24.6108 160.51 -24.6783 160.486 -24.7879 160.454C-25.0048 160.392 -25.315 160.323 -25.7034 160.253L-25.5256 159.269ZM-24.009 159.707L-23.385 158.926C-23.4679 158.859 -23.5206 158.846 -23.4551 158.873C-23.4127 158.891 -23.3417 158.916 -23.2375 158.948C-23.0304 159.012 -22.7415 159.087 -22.3874 159.165C-21.6815 159.32 -20.7654 159.477 -19.8224 159.582L-19.9328 160.576L-20.0432 161.57C-21.0563 161.457 -22.0422 161.289 -22.8172 161.118C-23.2037 161.033 -23.55 160.945 -23.8271 160.86C-23.9649 160.817 -24.0982 160.771 -24.2167 160.723C-24.312 160.683 -24.4819 160.609 -24.633 160.488L-24.009 159.707ZM-19.9328 160.576L-19.7952 159.586C-17.9093 159.848 -14.1074 160.011 -11.3655 159.957L-11.3459 160.957L-11.3263 161.957C-14.1278 162.012 -18.0433 161.848 -20.0704 161.567L-19.9328 160.576ZM-11.3459 160.957L-11.3659 159.957C-8.65417 159.903 -4.9081 159.794 -3.17009 159.74L-3.13886 160.739L-3.10762 161.739C-4.84787 161.793 -8.60282 161.902 -11.3259 161.957L-11.3459 160.957ZM-3.13886 160.739L-3.19316 159.741C-3.10599 159.736 -3.02547 159.735 -2.9532 159.736L-2.96893 160.736L-2.98467 161.736C-3.02101 161.736 -3.05368 161.736 -3.08455 161.738L-3.13886 160.739ZM-2.96893 160.736L-2.9369 161.736C-3.04444 161.739 -2.97722 161.736 -3.04813 161.739L-3.08515 160.739L-3.12216 159.74C-3.09357 159.739 -3.06665 159.738 -3.04736 159.738C-3.0256 159.737 -3.01302 159.737 -3.00097 159.737L-2.96893 160.736ZM-3.08515 160.739L-3.02466 161.737C-4.84082 161.847 -8.60916 161.956 -11.3259 162.01L-11.3459 161.011L-11.3659 160.011C-8.64822 159.957 -4.91673 159.848 -3.14563 159.741L-3.08515 160.739ZM-11.3459 161.011L-11.3263 162.011C-14.1305 162.065 -17.9295 161.902 -19.7816 161.677L-19.6613 160.685L-19.541 159.692C-17.8063 159.902 -14.1047 160.065 -11.3655 160.011L-11.3459 161.011ZM-19.6613 160.685L-19.7817 161.677C-20.7017 161.566 -21.6639 161.413 -22.4779 161.251C-23.251 161.098 -24.0022 160.917 -24.4228 160.726L-24.009 159.815L-23.5952 158.905C-23.418 158.986 -22.892 159.13 -22.0891 159.289C-21.327 159.44 -20.4143 159.586 -19.541 159.692L-19.6613 160.685ZM-24.009 159.815L-24.4227 160.726C-24.7787 160.564 -25.3179 160.369 -25.8017 160.23L-25.5256 159.269L-25.2495 158.307C-24.6908 158.468 -24.0569 158.695 -23.5952 158.905L-24.009 159.815ZM51.8065 28.2392L51.8065 29.2392C51.383 29.2392 50.8466 29.3264 50.3202 29.492C49.788 29.6595 49.3417 29.8833 49.0619 30.1071L48.4373 29.3261L47.8127 28.5452C48.3482 28.1169 49.043 27.7972 49.7199 27.5843C50.4025 27.3695 51.143 27.2392 51.8064 27.2392L51.8065 28.2392ZM48.4373 29.3261L49.0038 30.1502C48.7022 30.3576 48.3484 30.7297 48.0309 31.1907C47.7146 31.6497 47.4875 32.1195 47.3891 32.4738L46.4256 32.206L45.4621 31.9383C45.6355 31.3143 45.9795 30.643 46.3838 30.0561C46.7868 29.4711 47.303 28.8925 47.8708 28.5021L48.4373 29.3261ZM46.4256 32.206L47.385 32.4882C47.2798 32.8459 47.1238 33.8775 46.9722 35.3329C46.8249 36.748 46.6906 38.4688 46.61 40.1352L45.6111 40.0869L44.6123 40.0385C44.6947 38.3354 44.8318 36.5778 44.983 35.1258C45.13 33.7141 45.2997 32.4901 45.4662 31.9238L46.4256 32.206ZM45.6111 40.0869L46.6099 40.136C46.5268 41.8261 46.347 43.6224 46.1325 45.1509C45.9226 46.6469 45.6671 47.9805 45.4094 48.6893L44.4695 48.3476L43.5297 48.0059C43.7068 47.5189 43.9405 46.3797 44.1519 44.873C44.3588 43.3989 44.5324 41.6627 44.6124 40.0378L45.6111 40.0869ZM44.4695 48.3476L45.4059 48.6987C45.0745 49.5823 44.9577 50.0264 44.9456 50.2951C44.9407 50.4022 44.9553 50.4491 44.9648 50.4732C44.9762 50.5023 45.0052 50.5596 45.0983 50.6611L44.3611 51.3369L43.624 52.0126C43.4181 51.788 43.2297 51.526 43.1036 51.2053C42.9754 50.8795 42.9322 50.5459 42.9476 50.2046C42.9761 49.5765 43.2124 48.8521 43.5332 47.9965L44.4695 48.3476ZM44.3611 51.3369L45.1932 50.7821C45.2736 50.9028 45.4079 51.0348 45.5509 51.1343C45.6197 51.1823 45.6725 51.2101 45.7003 51.2222C45.7137 51.228 45.7119 51.2261 45.6958 51.2219C45.6829 51.2185 45.6331 51.206 45.5566 51.206L45.5565 52.206L45.5563 53.206C45.2883 53.206 45.0527 53.1216 44.9015 53.0557C44.7306 52.9813 44.5627 52.8835 44.4075 52.7753C44.1022 52.5626 43.7747 52.26 43.5291 51.8916L44.3611 51.3369ZM45.5565 52.206V51.206C45.4072 51.206 45.3193 51.2466 45.3623 51.2311C45.3775 51.2256 45.4172 51.2094 45.4858 51.1756C45.6212 51.1089 45.811 51.0026 46.0443 50.8589C46.5079 50.5732 47.0905 50.1724 47.6628 49.7302L48.2742 50.5214L48.8857 51.3127C48.2624 51.7944 47.6219 52.2359 47.0935 52.5615C46.8307 52.7235 46.5822 52.865 46.3694 52.9698C46.2639 53.0218 46.152 53.0723 46.0422 53.112C45.9601 53.1416 45.7736 53.206 45.5565 53.206V52.206ZM48.2742 50.5214L47.6704 49.7243C48.5885 49.0288 49.3613 48.525 50.2634 48.2271C51.1666 47.9289 52.1175 47.8638 53.3506 47.8918L53.3279 48.8916L53.3052 49.8913C52.1475 49.865 51.4681 49.9356 50.8904 50.1263C50.3117 50.3174 49.7531 50.6556 48.8781 51.3185L48.2742 50.5214ZM53.3279 48.8916V47.8916C54.9265 47.8916 58.8999 48.2809 62.1726 48.7718L62.0242 49.7607L61.8759 50.7496C58.6268 50.2623 54.7728 49.8916 53.3279 49.8916V48.8916ZM62.0242 49.7607L62.175 48.7721C65.3546 49.2571 69.5145 49.5723 71.3702 49.4693L71.4256 50.4677L71.481 51.4662C69.4234 51.5804 65.1063 51.2424 61.8734 50.7493L62.0242 49.7607ZM71.4256 50.4677L71.3645 49.4696C74.0369 49.306 74.9434 48.9786 75.5249 48.4335L76.2088 49.163L76.8927 49.8926C75.735 50.9779 74.1404 51.3034 71.4867 51.4659L71.4256 50.4677ZM76.2088 49.163L75.5331 48.4259C75.7495 48.2275 75.963 47.9304 76.1139 47.613C76.2743 47.2757 76.3056 47.0408 76.2991 46.9635L77.2957 46.8808L78.2923 46.7981C78.34 47.373 78.1538 47.9804 77.9202 48.4717C77.6771 48.9829 77.3201 49.5009 76.8845 49.9002L76.2088 49.163ZM77.2957 46.8808L76.2992 46.9639C76.2891 46.843 76.2155 46.5983 76.0374 46.3014C75.8652 46.0145 75.6478 45.767 75.4457 45.6153L76.0457 44.8154L76.6458 44.0154C77.0957 44.353 77.4762 44.8121 77.7524 45.2725C78.0227 45.7231 78.248 46.2665 78.2923 46.7978L77.2957 46.8808ZM76.0457 44.8154L75.4457 45.6154C74.8406 45.1615 71.0821 42.7423 67.0476 40.2889L67.5672 39.4345L68.0868 38.5801C72.0958 41.018 75.9465 43.491 76.6457 44.0154L76.0457 44.8154ZM67.5672 39.4345L67.0425 40.2858C62.3454 37.391 58.4044 34.4601 56.2533 32.2525L56.9695 31.5546L57.6858 30.8568C59.6652 32.8882 63.4417 35.7174 68.0918 38.5832L67.5672 39.4345ZM56.9695 31.5546L56.2624 32.2618C54.8933 30.8926 54.0677 30.1397 53.4158 29.7168C52.8352 29.3402 52.4155 29.2392 51.8065 29.2392V28.2392V27.2392C52.7735 27.2392 53.5766 27.4372 54.5042 28.039C55.3605 28.5944 56.3284 29.4993 57.6766 30.8475L56.9695 31.5546Z" fill="#554F43" fill-opacity="0.8" mask="url(#path-3-outside-1_4043_16432)"/>
<path d="M39.3071 5.95638C40.9375 6.55421 43.1114 7.85856 44.0897 8.83682C45.068 9.76073 46.8071 11.9346 47.8941 13.5651C48.981 15.1955 50.3941 18.0216 51.0462 19.8151C51.6984 21.6086 52.3506 23.7281 52.568 24.5977C52.8941 25.9564 52.7854 26.0651 50.9919 26.0651C49.9593 26.0651 48.3288 26.4999 47.4593 27.0433C46.5354 27.5325 45.2854 28.9455 44.7419 30.1412C43.9267 31.8259 43.6549 33.4564 43.6549 37.6412C43.6549 41.3912 43.3288 43.8912 42.568 46.3368C41.9702 48.1846 41.481 50.3585 41.481 51.2281C41.481 52.152 41.8615 52.9129 42.568 53.239C43.1658 53.5651 43.5462 53.9998 43.3832 54.3259C43.2202 54.652 43.0028 56.3912 42.8397 58.2933C42.731 60.1412 42.8397 64.5977 43.1658 68.1846C43.4919 71.7716 44.3614 77.3694 45.068 80.6846C45.8288 83.9998 47.0245 88.6194 47.7854 91.0107C48.6006 93.402 49.5245 96.1194 49.9049 96.989C50.2854 97.8585 52.1875 102.152 54.1441 106.5C56.1006 110.848 58.2202 115.739 58.8723 117.369C59.4702 119 60.4484 122.206 61.0462 124.435C61.5897 126.663 62.2419 130.359 62.4049 132.587C62.6223 134.815 62.8397 137.75 62.8941 139.109C62.9484 140.467 62.731 143.13 62.3506 145.087C61.9702 147.043 61.2636 149.869 60.7745 151.337C60.2854 152.859 59.3614 155.141 58.6549 156.5C58.0027 157.859 56.8615 159.815 56.1006 160.902C55.3941 161.989 53.7093 164.054 52.3506 165.522C50.9375 166.989 48.8723 168.945 47.731 169.924C46.5354 170.848 44.0354 172.478 42.1332 173.565L38.7636 175.522C35.6115 173.728 33.7093 173.456 27.6223 173.239C20.9375 173.022 19.7962 172.859 18.2202 171.826C17.2962 171.174 16.318 170.63 16.1006 170.63C15.8288 170.63 14.6875 170.141 13.4919 169.543C12.2962 168.891 10.7202 167.859 10.068 167.206C9.36146 166.554 8.54625 165.576 8.27451 165.087C6.2908 164.244 2.87225 168.701 -0.230938 167.206C-3.33413 165.712 -0.149407 160.576 -3.13854 160.739C-4.87767 160.793 -8.62769 160.902 -11.3451 160.956C-14.1168 161.011 -17.9755 160.848 -19.932 160.576C-21.8886 160.359 -23.7364 159.924 -24.0081 159.706C-24.2799 159.435 -26.3994 159.054 -28.6277 158.891L-32.7038 158.565C-37.5407 148.782 -39.1712 144.706 -39.4429 143.185C-39.7147 141.609 -39.7147 139.706 -39.4429 138.728C-39.1168 137.587 -38.6277 136.935 -37.9755 136.935C-37.4864 136.935 -35.5299 137.532 -33.6277 138.293C-31.7799 139.054 -29.0081 139.869 -27.5407 140.195C-26.019 140.522 -24.8233 140.902 -24.8233 141.174C-24.8233 141.391 -25.5299 142.206 -26.3451 143.076L-27.8125 144.543C-25.6929 144.598 -24.1712 143.891 -23.0842 143.076C-21.9972 142.261 -18.1929 138.891 -14.6603 135.63C-11.1277 132.369 -6.29072 128.239 -3.89942 126.446C-1.50811 124.652 2.89407 121.717 5.82885 119.869C8.81799 118.076 12.4593 115.467 13.9267 114.109C15.5571 112.641 17.1875 110.359 18.1658 108.402C18.981 106.609 20.068 102.804 20.5571 99.9781C21.2636 96.1738 21.3723 93.239 21.1549 88.8368C20.9919 85.5216 20.7202 81.3368 20.5571 79.4346C20.3397 76.4999 20.3941 76.0651 21.2636 76.0651C21.7528 76.1194 22.6223 75.6846 23.1115 75.1411C23.6006 74.5977 24.1984 73.2933 24.4158 72.2607C24.6332 71.2281 25.068 69.9781 25.3941 69.5433C25.7745 69.1085 26.3723 68.0216 26.8071 67.152C27.2419 66.3368 28.981 64.5433 30.6115 63.1846C32.2419 61.8259 33.8723 60.1955 34.2528 59.5977C34.6332 58.9455 34.9049 57.3694 34.9593 56.0651C34.9593 54.2716 34.6875 53.6194 33.7636 52.9672C33.0571 52.5325 32.0245 52.152 31.4267 52.152C30.8288 52.152 29.4701 51.6085 28.4375 50.902C27.4049 50.1955 26.0462 49.489 25.4484 49.2716C24.8506 49.1085 23.5462 48.0759 22.6223 47.0433C21.6441 45.9564 20.8288 44.7607 20.8288 44.3803C20.8832 44.0542 20.5028 43.3477 20.0136 42.9129C19.5245 42.4781 19.1441 41.6085 19.1984 41.0107C19.1984 40.4129 18.6549 38.8368 17.9484 37.4781C17.0788 35.7933 16.1549 34.8694 15.0136 34.489C13.4375 33.9455 13.3832 33.8368 13.4919 31.2281C13.5462 29.7064 13.818 27.152 14.0354 25.5216C14.2528 23.8912 15.0136 20.9564 15.7745 18.9999C16.481 17.0433 18.0028 14.2716 19.0897 12.8586C20.1767 11.4455 21.9701 9.59768 23.0028 8.78246C24.0354 7.9129 25.8832 6.82594 27.0788 6.22812C28.2745 5.68464 30.8288 5.14116 32.7854 5.03247C35.3941 4.86942 37.0788 5.14116 39.3071 5.95638Z" fill="#EADEC2"/>
<path d="M16.1002 34.9238C16.5893 35.2499 17.5132 36.5542 18.111 37.7499C18.7089 38.9455 19.198 40.4129 19.198 41.0107C19.1436 41.6086 19.5241 42.4781 20.0132 42.9129C20.5023 43.3477 20.8828 44.0542 20.8284 44.3803C20.8284 44.7607 21.6436 45.9564 22.6219 47.0433C23.5458 48.076 24.8502 49.1086 25.448 49.2716C26.0458 49.489 27.4045 50.1955 28.4371 50.902C29.4697 51.6086 30.8284 52.152 31.4262 52.152C32.0241 52.152 33.0567 52.5325 33.7632 52.9673C34.6871 53.6194 34.9589 54.2716 34.9589 56.0651C34.9045 57.3694 34.6328 58.9455 34.2523 59.5977C33.8719 60.1955 32.2415 61.826 30.611 63.1846C28.9806 64.5433 27.2415 66.3368 26.8067 67.152C26.3719 68.0216 25.7741 69.1086 25.3937 69.5433C25.0676 69.9781 24.6328 71.2281 24.4697 72.2607C24.2523 73.2933 23.7088 74.5977 23.1654 75.1412C22.6219 75.6846 21.698 76.0651 21.1002 75.9564C20.2849 75.8477 19.9589 75.3042 19.8502 73.8912C19.7415 72.8586 19.0893 69.5433 18.3828 66.5542C17.6762 63.5651 16.861 59.1629 16.4806 56.7716C16.1545 54.3803 15.5567 50.5759 15.1219 48.3477C14.6871 46.1194 14.1436 42.3151 13.8719 39.9238C13.6545 37.5325 13.4915 35.2499 13.6002 34.8694C13.7089 34.5433 14.0893 34.2173 14.4697 34.2173C14.8502 34.2173 15.5567 34.5433 16.1002 34.8694V34.9238ZM-26.1825 159.109C-25.5846 159.217 -24.6064 159.543 -24.0085 159.815C-23.4107 160.087 -21.4542 160.467 -19.6607 160.685C-17.8672 160.902 -14.1172 161.065 -11.3455 161.011C-8.62811 160.956 -4.8781 160.848 -3.08463 160.739C9.20491 160.284 -9.80464 170.545 7.5132 164.217C10.1219 167.315 11.9154 168.782 13.2741 169.435C14.5784 170.141 15.8284 170.685 16.1002 170.685C16.3175 170.685 17.2415 171.228 18.2197 171.826C19.6871 172.804 20.9915 173.022 27.0784 173.293C30.9915 173.456 35.1219 173.891 36.2089 174.326C37.2958 174.706 38.2197 175.25 38.2197 175.576C38.2197 175.902 36.1002 176.88 33.4915 177.75C27.6464 179.778 22.4162 180.835 16.2089 182.641C13.2197 183.511 10.7197 184.272 10.6654 184.272C10.5567 184.272 10.448 183.728 10.3936 183.076C10.2306 181.989 9.9045 182.152 7.4045 184.706C5.82841 186.282 3.87189 187.696 3.05667 187.859C2.18711 188.076 0.937114 188.022 0.176245 187.75C-0.747668 187.424 -1.4542 186.5 -1.94333 185.087C-2.64986 182.967 -2.75853 182.859 -7.32375 181.554C-10.1498 180.739 -13.6825 179.163 -16.1281 177.696C-18.3564 176.282 -21.5086 173.946 -23.139 172.532C-24.7694 171.065 -26.9977 168.619 -28.0846 167.152C-29.1716 165.63 -30.7477 163.13 -31.5629 161.554L-32.9759 158.728C-28.5738 158.837 -26.7803 158.946 -26.1825 159.109Z" fill="#D3C6A7"/>
<path d="M56.9706 31.5542C59.0358 33.6738 62.8945 36.5542 67.5684 39.4346C71.5901 41.8803 75.3945 44.3259 76.0466 44.8151C76.6988 45.3042 77.2423 46.2281 77.2967 46.8803C77.351 47.5325 76.8619 48.5651 76.2097 49.1629C75.3401 49.9781 74.0901 50.3042 71.4271 50.4672C69.4705 50.5759 65.2314 50.2499 62.0249 49.7607C58.764 49.2716 54.851 48.8912 53.3292 48.8912C50.9379 48.8368 50.0684 49.1629 48.2749 50.5216C47.0792 51.4455 45.8292 52.2064 45.5575 52.2064C45.2858 52.2064 44.6879 51.8259 44.3618 51.3368C43.764 50.6846 43.8184 50.0868 44.4705 48.3477C44.9053 47.152 45.4488 43.402 45.6118 40.0868C45.7749 36.7172 46.1553 33.1303 46.4271 32.2064C46.6988 31.2281 47.5684 29.9238 48.4379 29.3259C49.2532 28.6738 50.7206 28.239 51.8075 28.239C53.3836 28.239 54.2532 28.8368 56.9706 31.5542ZM4.41619 191.935C4.30749 192.967 3.92707 193.185 2.35098 193.185C0.774892 193.185 0.448798 192.967 0.340103 191.935C0.177059 190.848 0.394444 190.739 2.40531 190.739C4.36184 190.739 4.57923 190.848 4.41619 191.935ZM36.5901 193.13C37.2423 193.837 37.514 193.891 38.1118 193.348C38.6553 192.75 38.9271 192.859 39.5792 193.728C40.014 194.326 40.3945 194.978 40.3945 195.196C40.3945 195.467 41.2097 195.956 42.1879 196.391C43.1118 196.826 44.2532 197.043 44.6336 196.935C44.9597 196.826 45.3945 196.935 45.5575 197.261C45.7205 197.532 46.5901 197.804 47.4597 197.804C48.3292 197.804 49.0901 198.022 49.0901 198.348C49.0901 198.619 49.5249 198.728 50.0684 198.565C50.5575 198.348 52.5684 198.619 54.5249 199.163C56.4814 199.706 58.8727 200.467 59.851 200.902C61.0104 201.373 61.4995 201.88 61.3184 202.424C61.101 203.022 60.2858 203.239 58.3292 203.239C56.2097 203.239 55.3945 203.511 54.5249 204.435L53.4379 205.685C50.6119 202.859 48.764 201.826 46.9162 201.337C44.4705 200.576 43.8727 200.576 43.601 201.174C43.3836 201.554 42.7314 202.478 42.1336 203.239L41.101 204.598C34.7423 201.337 34.688 201.282 34.6336 198.891C34.5793 197.532 34.7966 195.467 35.1771 194.326C35.7206 192.424 35.8292 192.315 36.5901 193.13ZM1.5901 196.446C2.02488 197.206 2.29664 197.315 2.56838 196.826C2.73143 196.5 3.11186 196.174 3.3836 196.174C3.60099 196.174 4.14444 197.261 4.57923 198.619C4.95966 199.924 6.15533 201.989 7.24228 203.13C8.60098 204.652 10.0684 205.576 12.2966 206.282C13.9814 206.88 15.3945 207.424 15.3945 207.587C15.3945 207.75 16.0466 207.804 16.7532 207.696C17.514 207.641 18.1118 207.804 18.1118 208.13C18.1118 208.402 18.3836 208.565 18.6553 208.402C18.9271 208.239 19.1988 208.348 19.1988 208.674C19.1988 208.946 19.5249 209.054 19.9053 208.891C20.2314 208.674 21.5901 208.946 22.8945 209.435C24.6336 210.087 25.1227 210.522 24.9053 211.228C24.6879 211.826 23.764 212.369 22.4597 212.587C21.264 212.859 19.9597 213.348 19.5792 213.674C19.1445 214.054 18.8727 215.032 18.8727 215.848C18.9271 217.098 18.7097 217.369 17.7314 217.369C17.0249 217.369 16.4814 217.098 16.4814 216.826C16.4814 216.5 15.9379 216.446 15.2858 216.663C14.5792 216.826 13.4923 216.989 12.8401 216.935C12.1336 216.88 10.2858 217.369 8.76401 217.967C6.20967 219 5.72053 219.054 4.57923 218.402C3.87271 217.967 2.78577 216.663 2.18794 215.467C1.20968 213.674 0.99229 212.098 0.829246 206.228C0.720551 202.369 0.720551 198.293 0.829246 197.261C0.99229 195.522 1.04662 195.467 1.5901 196.446Z" fill="#DD9D42"/>
<path d="M38.1657 21.989C38.5462 22.4781 38.9809 23.9999 39.1983 25.4672C39.4701 27.4781 39.3614 28.3477 38.7635 28.9998C38.3288 29.489 37.4592 29.9238 36.8614 29.9238C36.2635 29.9238 35.5027 29.5977 35.1222 29.2172C34.7961 28.8368 34.307 27.5325 34.144 26.3368C33.9266 25.1412 34.0353 23.5107 34.3614 22.6412C34.7962 21.6085 35.3396 21.1738 36.2636 21.1738C36.9701 21.1738 37.8396 21.5542 38.1657 21.989ZM52.0244 34.652C52.1875 35.3042 52.8396 36.0651 53.4375 36.3912C54.0353 36.7172 54.5244 37.152 54.5244 37.4781C54.5244 37.8042 54.0896 38.0216 53.6005 38.0216C53.057 38.0759 52.1331 37.5325 51.5353 36.9346C50.6657 36.0107 50.557 35.6303 51.0461 34.5977L51.644 33.402L52.0244 34.652Z" fill="#1E1D18"/>
<path d="M26.3723 94.8151C26.5353 96.0107 26.4809 97.4781 26.3179 98.076C26.1005 98.8368 25.9375 98.4021 25.6657 96.7173C25.4484 95.3586 25.5027 93.8912 25.7201 93.4564C26.0099 92.9129 26.2273 93.3658 26.3723 94.8151Z" fill="#947D3A"/>
</g>
</svg>
