<svg width="133" height="48" viewBox="0 0 133 48" fill="none" xmlns="http://www.w3.org/2000/svg">
<path d="M3.2683 37V9.7574H13.7228C16.8625 9.7574 19.3527 10.5153 21.1932 12.031C23.0337 13.5332 23.954 15.7594 23.954 18.7097C23.954 21.6464 23.0337 23.8794 21.1932 25.4087C19.3527 26.9244 16.8625 27.6823 13.7228 27.6823H9.8049V37H3.2683ZM9.8049 21.9983H13.7228C14.9002 21.9983 15.7866 21.6735 16.3821 21.0239C16.9911 20.3608 17.2956 19.5894 17.2956 18.7097C17.2956 17.8165 16.9911 17.0383 16.3821 16.3752C15.7866 15.7121 14.9002 15.3805 13.7228 15.3805H9.8049V21.9983ZM27.5826 14.4264C26.3511 14.4264 25.397 14.1151 24.7203 13.4926C24.0572 12.8565 23.7256 11.9633 23.7256 10.813C23.7256 9.68973 24.0572 8.79653 24.7203 8.1334C25.397 7.45673 26.3511 7.1184 27.5826 7.1184C28.7736 7.1184 29.7141 7.45673 30.4043 8.1334C31.0945 8.79653 31.4396 9.68973 31.4396 10.813C31.4396 11.9633 31.0945 12.8565 30.4043 13.4926C29.7141 14.1151 28.7736 14.4264 27.5826 14.4264ZM24.3346 37V16.8827H30.8306V37H24.3346ZM47.0656 37V25.3478C47.0656 24.2922 46.8084 23.514 46.2942 23.0133C45.7799 22.499 45.1574 22.2419 44.4266 22.2419C43.6822 22.2419 42.9988 22.4517 42.3763 22.8712C41.7537 23.2907 41.253 23.9674 40.8741 24.9012C40.5087 25.8215 40.326 27.0462 40.326 28.5755H38.3569C38.3569 25.7064 38.6952 23.3719 39.3719 21.572C40.0621 19.7721 40.9959 18.4526 42.1733 17.6135C43.3642 16.7744 44.7108 16.3549 46.213 16.3549C47.9317 16.3549 49.3324 16.7406 50.4151 17.512C51.5113 18.2834 52.3165 19.3458 52.8307 20.6991C53.345 22.0524 53.6021 23.602 53.6021 25.3478V37H47.0656ZM33.83 37V17.0045H39.5546L40.326 20.3134V37H33.83ZM52.7112 17.0045H60.141L64.2416 31.316H63.2469L67.3272 17.0045H73.9044L66.1092 40.2277C65.1618 42.9614 64.0589 44.8426 62.8003 45.8711C61.5552 46.8996 60.1004 47.4139 58.4358 47.4139C57.4208 47.4139 56.399 47.3192 55.3705 47.1297C54.3555 46.9538 53.3405 46.656 52.3255 46.2365V40.654C53.0833 41.0059 53.8209 41.2698 54.5382 41.4457C55.269 41.6352 55.9795 41.7299 56.6697 41.7299C57.1298 41.7299 57.5629 41.6419 57.9689 41.466C58.3749 41.3036 58.747 41.0126 59.0854 40.5931C59.4237 40.1736 59.7079 39.5984 59.938 38.8676L60.5876 37L52.7112 17.0045ZM76.9877 14.4264C75.7562 14.4264 74.8021 14.1151 74.1254 13.4926C73.4623 12.8565 73.1307 11.9633 73.1307 10.813C73.1307 9.68973 73.4623 8.79653 74.1254 8.1334C74.8021 7.45673 75.7562 7.1184 76.9877 7.1184C78.1787 7.1184 79.1192 7.45673 79.8094 8.1334C80.4996 8.79653 80.8447 9.68973 80.8447 10.813C80.8447 11.9633 80.4996 12.8565 79.8094 13.4926C79.1192 14.1151 78.1787 14.4264 76.9877 14.4264ZM73.7397 37V16.8827H80.2357V37H73.7397ZM96.4707 37V25.3478C96.4707 24.2922 96.2135 23.514 95.6993 23.0133C95.185 22.499 94.5625 22.2419 93.8317 22.2419C93.0873 22.2419 92.4039 22.4517 91.7814 22.8712C91.1588 23.2907 90.6581 23.9674 90.2792 24.9012C89.9138 25.8215 89.7311 27.0462 89.7311 28.5755H87.762C87.762 25.7064 88.1003 23.3719 88.777 21.572C89.4672 19.7721 90.401 18.4526 91.5784 17.6135C92.7693 16.7744 94.1159 16.3549 95.6181 16.3549C97.3368 16.3549 98.7375 16.7406 99.8202 17.512C100.916 18.2834 101.722 19.3458 102.236 20.6991C102.75 22.0524 103.007 23.602 103.007 25.3478V37H96.4707ZM83.2351 37V17.0045H88.9597L89.7311 20.3134V37H83.2351ZM104.897 37V8.986H111.393V37H104.897ZM111.051 17.0045H118.481L122.582 31.316H121.587L125.667 17.0045H132.245L124.449 40.2277C123.502 42.9614 122.399 44.8426 121.141 45.8711C119.895 46.8996 118.441 47.4139 116.776 47.4139C115.761 47.4139 114.739 47.3192 113.711 47.1297C112.696 46.9538 111.681 46.656 110.666 46.2365V40.654C111.424 41.0059 112.161 41.2698 112.878 41.4457C113.609 41.6352 114.32 41.7299 115.01 41.7299C115.47 41.7299 115.903 41.6419 116.309 41.466C116.715 41.3036 117.087 41.0126 117.426 40.5931C117.764 40.1736 118.048 39.5984 118.278 38.8676L118.928 37L111.051 17.0045Z" fill="black"/>
</svg>
