<svg xmlns="http://www.w3.org/2000/svg" width="200" height="34" fill="none" viewBox="0 0 200 34">
<path fill="currentColor" d="M13.269 32.688V21.035c0-1.055-.257-1.834-.771-2.334a2.544 2.544 0 0 0-1.868-.772c-.744 0-1.428.21-2.05.63-.623.42-1.124 1.096-1.502 2.03-.366.92-.549 2.145-.549 3.674H4.56c0-2.87.339-5.204 1.015-7.004.69-1.8 1.624-3.119 2.802-3.958 1.19-.84 2.537-1.259 4.04-1.259 1.718 0 3.119.386 4.202 1.158 1.096.77 1.9 1.833 2.415 3.187.515 1.353.772 2.902.772 4.648v11.652h-6.537Zm-13.236 0V4.672H6.53v28.014H.033Zm34.776 0-.832-5.34v-7.49c0-1.002-.182-1.78-.548-2.335-.365-.555-1.143-.832-2.334-.832-.704 0-1.28.108-1.726.325-.433.203-.758.48-.974.832a2.13 2.13 0 0 0-.305 1.117h-7.024c0-1.57.373-2.863 1.117-3.878.744-1.028 1.86-1.793 3.35-2.293 1.488-.501 3.342-.752 5.562-.752 1.935 0 3.6.298 4.993.894 1.408.595 2.49 1.488 3.248 2.68.758 1.19 1.137 2.686 1.137 4.486v12.585H34.81Zm-6.292.65c-1.787 0-3.296-.299-4.527-.894-1.218-.61-2.139-1.428-2.761-2.456-.623-1.029-.934-2.166-.934-3.41 0-1.178.325-2.193.974-3.046.65-.866 1.61-1.536 2.883-2.01 1.286-.473 2.862-.71 4.73-.71 1.137 0 2.138.06 3.004.183.88.121 1.78.27 2.7.446v3.654a20.199 20.199 0 0 0-2.111-.345 18.76 18.76 0 0 0-2.111-.122c-.961 0-1.726.156-2.294.467-.555.298-.832.792-.832 1.482 0 .5.25.94.75 1.32.502.365 1.293.548 2.376.548.92 0 1.644-.183 2.172-.548.528-.366.9-.826 1.116-1.38a4.499 4.499 0 0 0 .325-1.645H35.5c0 1.543-.244 2.957-.731 4.243-.487 1.285-1.245 2.314-2.274 3.085-1.028.758-2.354 1.137-3.978 1.137Zm22.861 0c-1.854 0-3.56-.38-5.115-1.138-1.543-.771-2.782-1.935-3.715-3.491-.92-1.57-1.38-3.56-1.38-5.968 0-2.49.46-4.52 1.38-6.09.933-1.57 2.172-2.727 3.715-3.472 1.556-.758 3.261-1.137 5.115-1.137 1.814 0 3.485.38 5.014 1.137 1.53.745 2.754 1.902 3.674 3.472.934 1.57 1.401 3.6 1.401 6.09 0 2.408-.467 4.398-1.4 5.968-.92 1.556-2.145 2.72-3.675 3.491-1.529.758-3.2 1.137-5.014 1.137Zm-.243-5.665a3.66 3.66 0 0 0 1.806-.487c.596-.325 1.09-.846 1.482-1.563.393-.73.589-1.692.589-2.883 0-1.854-.332-3.16-.995-3.917-.663-.758-1.462-1.137-2.395-1.137-.623 0-1.245.162-1.868.487-.609.325-1.116.86-1.522 1.604-.393.73-.59 1.718-.59 2.963 0 1.8.346 3.073 1.036 3.817.704.744 1.523 1.116 2.457 1.116Zm26.751 5.015V21.035c0-1.055-.257-1.834-.771-2.334a2.544 2.544 0 0 0-1.868-.772 3.59 3.59 0 0 0-2.05.63c-.622.42-1.123 1.096-1.502 2.03-.365.92-.548 2.145-.548 3.674h-1.97c0-2.87.34-5.204 1.016-7.004.69-1.8 1.624-3.119 2.801-3.958 1.191-.84 2.538-1.259 4.04-1.259 1.719 0 3.12.386 4.202 1.158 1.096.77 1.901 1.833 2.416 3.187.514 1.353.771 2.902.771 4.648v11.652h-6.537Zm-13.235 0V4.672h6.496v28.014H64.65Zm34.776 0-.832-5.34v-7.49c0-1.002-.183-1.78-.548-2.335-.366-.555-1.144-.832-2.335-.832-.704 0-1.279.108-1.725.325-.433.203-.758.48-.975.832a2.13 2.13 0 0 0-.304 1.117h-7.024c0-1.57.372-2.863 1.116-3.878.745-1.028 1.861-1.793 3.35-2.293 1.488-.501 3.343-.752 5.562-.752 1.935 0 3.6.298 4.994.894 1.407.595 2.49 1.488 3.248 2.68.758 1.19 1.137 2.686 1.137 4.486v12.585h-5.664Zm-6.293.65c-1.786 0-3.295-.299-4.527-.894-1.218-.61-2.138-1.428-2.76-2.456-.623-1.029-.934-2.166-.934-3.41 0-1.178.324-2.193.974-3.046.65-.866 1.61-1.536 2.882-2.01 1.286-.473 2.863-.71 4.73-.71 1.137 0 2.139.06 3.005.183.88.121 1.78.27 2.7.446v3.654a20.203 20.203 0 0 0-2.111-.345 18.762 18.762 0 0 0-2.112-.122c-.96 0-1.725.156-2.294.467-.555.298-.832.792-.832 1.482 0 .5.25.94.751 1.32.5.365 1.293.548 2.375.548.92 0 1.645-.183 2.172-.548.528-.366.9-.826 1.117-1.38a4.5 4.5 0 0 0 .325-1.645h1.522c0 1.543-.243 2.957-.73 4.243-.488 1.285-1.246 2.314-2.274 3.085-1.029.758-2.355 1.137-3.979 1.137ZM93.69 9.83l-8.039-6.09L89.407.756l5.44 5.095h-2.314l5.44-5.095 3.817 2.984-8.1 6.09Zm22.306 23.507c-1.855 0-3.56-.379-5.116-1.137-1.543-.771-2.781-1.935-3.715-3.491-.92-1.57-1.38-3.56-1.38-5.968 0-2.49.46-4.52 1.38-6.09.934-1.57 2.172-2.727 3.715-3.472 1.556-.758 3.261-1.137 5.116-1.137 1.813 0 3.484.38 5.014 1.137 1.529.745 2.754 1.902 3.674 3.472.934 1.57 1.401 3.6 1.401 6.09 0 2.408-.467 4.398-1.401 5.968-.92 1.556-2.145 2.72-3.674 3.491-1.53.758-3.201 1.137-5.014 1.137Zm-.244-5.664a3.66 3.66 0 0 0 1.807-.487c.595-.325 1.089-.846 1.482-1.563.392-.73.588-1.692.588-2.883 0-1.854-.331-3.16-.994-3.917-.664-.758-1.462-1.137-2.396-1.137-.622 0-1.245.162-1.867.487-.609.325-1.117.86-1.523 1.604-.392.73-.589 1.718-.589 2.963 0 1.8.345 3.073 1.036 3.817.703.744 1.522 1.116 2.456 1.116Zm26.752 5.015V21.035c0-1.055-.257-1.834-.772-2.334a2.542 2.542 0 0 0-1.867-.772 3.59 3.59 0 0 0-2.05.63c-.623.42-1.124 1.096-1.503 2.03-.365.92-.548 2.145-.548 3.674h-1.969c0-2.87.339-5.204 1.015-7.004.69-1.8 1.624-3.119 2.802-3.958 1.191-.84 2.537-1.259 4.039-1.259 1.719 0 3.12.386 4.202 1.158 1.097.77 1.902 1.833 2.416 3.187.514 1.353.771 2.902.771 4.648v11.652h-6.536Zm-13.236 0V4.672h6.496v28.014h-6.496Zm30.595.65c-1.854 0-3.56-.38-5.116-1.138-1.543-.771-2.781-1.935-3.715-3.491-.92-1.57-1.38-3.56-1.38-5.968 0-2.49.46-4.52 1.38-6.09.934-1.57 2.172-2.727 3.715-3.472 1.556-.758 3.262-1.137 5.116-1.137 1.813 0 3.484.38 5.014 1.137 1.529.745 2.754 1.902 3.674 3.472.934 1.57 1.401 3.6 1.401 6.09 0 2.408-.467 4.398-1.401 5.968-.92 1.556-2.145 2.72-3.674 3.491-1.53.758-3.201 1.137-5.014 1.137Zm-.244-5.665a3.66 3.66 0 0 0 1.807-.487c.595-.325 1.089-.846 1.482-1.563.392-.73.588-1.692.588-2.883 0-1.854-.331-3.16-.994-3.917-.664-.758-1.462-1.137-2.396-1.137-.622 0-1.245.162-1.867.487-.609.325-1.117.86-1.523 1.604-.392.73-.589 1.718-.589 2.963 0 1.8.345 3.073 1.036 3.817.703.744 1.522 1.116 2.456 1.116Zm8.685-14.981h6.8l3.533 13.621h-.569l3.167-12.423h6.131l3.207 12.464h-.609l3.532-13.662h6.496l-6.618 19.995h-6.414l-3.309-11.753h.994l-3.166 11.753h-6.496l-6.679-19.995Z"/>
</svg>
