<svg xmlns="http://www.w3.org/2000/svg" width="100" height="100" fill="none" viewBox="0 0 100 100">
<path fill="currentColor" fill-rule="evenodd" d="M76.255 6.576c-.499-.161-.798-.207-1.611-.23-.545-.016-1.151.007-1.343.046a11.64 11.64 0 0 0-.806.23 4.354 4.354 0 0 0-.805.384c-.192.123-.614.499-.944.821-.33.33-.744.791-.92 1.022-.177.23-.353.46-.4.514a7.828 7.828 0 0 0-.33.46l-.298.437-.507.738a104.34 104.34 0 0 0-1.32 1.997c-.422.652-.782 1.205-.813 1.228a6.324 6.324 0 0 0-.345.514l-.227.363c-.328.525-.922 1.478-1.53 2.44a665.398 665.398 0 0 0-1.864 2.97c-.14.22-.36.574-.583.933l-.415.665a8136.395 8136.395 0 0 1-3.176 5.067 520.25 520.25 0 0 0-3.153 5.09c-.315.53-.752 1.32-.974 1.766a24.286 24.286 0 0 0-.66 1.459c-.138.36-.307.967-.376 1.343-.1.523-.123.922-.092 1.613.023.53.107 1.136.184 1.42.077.276.276.752.445 1.067.169.315.498.768.729 1.006.23.246.606.53.828.645.215.107.614.253.883.315.314.077.89.115 1.741.115.698 0 2.164-.07 3.26-.161 1.343-.108 2.395-.146 3.223-.123 1.02.023 1.304.054 1.688.2.253.092.598.284.767.422.169.138.384.399.476.591.092.184.222.545.284.798.069.254.153.7.2.998.037.3.076 1.014.076 1.59 0 .675-.046 1.274-.123 1.65-.069.33-.215.784-.322 1.014a2.82 2.82 0 0 1-.553.722 4.365 4.365 0 0 1-.882.56 7.511 7.511 0 0 1-1.15.4c-.338.084-1.06.245-1.612.353l-.273.05c-.561.103-1.36.25-1.913.341a56.31 56.31 0 0 0-1.819.353 9.7 9.7 0 0 0-1.265.392c-.353.138-.79.36-.982.506a9.418 9.418 0 0 0-.676.584 5.417 5.417 0 0 0-.667.814c-.184.276-.445.76-.583 1.075-.13.315-.307.798-.391 1.075-.077.276-.215.829-.3 1.228-.084.398-.35 1.863-.603 3.248l-.003.015a94.319 94.319 0 0 1-.76 3.762 35.084 35.084 0 0 1-.605 2.111 54.741 54.741 0 0 1-.66 1.766c-.2.484-.775 1.712-1.274 2.726a116.47 116.47 0 0 1-1.266 2.495c-.2.36-.652 1.136-.997 1.727-.353.592-.86 1.405-1.128 1.805a38 38 0 0 1-.944 1.343c-.253.33-.752.914-1.112 1.29-.36.376-.89.845-1.19 1.044-.344.23-.79.438-1.227.576-.376.115-.966.361-1.304.53a6.122 6.122 0 0 0-1.066.745 6.04 6.04 0 0 0-.737.844c-.153.23-.36.568-.453.745a9.035 9.035 0 0 0-.268.653 8.925 8.925 0 0 0-.207.79c-.054.254-.1.86-.092 1.344.007.63.053 1.06.168 1.497.085.338.277.86.422 1.152.146.291.445.744.66.998.215.253.56.599.767.767.2.17.607.438.898.6a7.61 7.61 0 0 0 1.059.475c.299.1.897.223 1.342.277.706.084.921.076 1.688-.039.484-.076 1.128-.222 1.42-.33.299-.107.782-.315 1.074-.468a11.5 11.5 0 0 0 1.227-.737 12.78 12.78 0 0 0 1.228-.93c.299-.252.782-.706 1.074-1.005.3-.3.828-.868 1.197-1.267.36-.399.913-1.029 1.227-1.412.322-.384 1.044-1.283 1.611-1.997a87.622 87.622 0 0 0 2.762-3.654c.075-.115.24-.36.406-.604l.162-.24c.264-.387.563-.817.821-1.183l.044-.062c.24-.341.46-.653.792-1.166a43.557 43.557 0 0 0 1.328-2.163c.145-.251.258-.445.283-.486.02-.032.08-.139.163-.285.078-.137.174-.308.275-.483.207-.36.575-1.06.813-1.559.238-.49.43-.952.43-1.013 0-.061.03-.123.061-.138.03-.008.138-.207.238-.438.1-.23.192-.507.207-.614.008-.108.054-.207.092-.23.046-.023.253-.56.468-1.19.207-.638.46-1.428.553-1.766.092-.338.245-.975.337-1.42.1-.446.222-.96.276-1.152.07-.215.23-.469.43-.676.26-.253.46-.36.928-.507.322-.1.821-.23 1.105-.291.348-.067.547-.075.598-.023.046.046.108 1.22.154 3.032.046 1.628.077 5.682.069 9.021 0 3.832.023 6.204.069 6.45.046.207.169.606.276.883.108.276.368.76.583 1.075.207.314.599.798.86 1.067.268.268.705.637.982.814.276.184.69.414.92.514.23.107.737.269 1.113.368.521.13.905.17 1.573.162.483 0 1.058-.031 1.265-.077a5.06 5.06 0 0 0 .806-.238 7.94 7.94 0 0 0 .767-.369c.192-.107.537-.345.767-.522.23-.176.722-.63 1.082-1.005.36-.369.967-1.037 1.343-1.475.376-.437.736-.821.798-.852.061-.038.775-.1 1.572-.146.806-.046 1.872-.122 2.379-.16.506-.047 1.25-.116 1.65-.162a49.471 49.471 0 0 0 1.84-.261c.614-.108 1.374-.254 1.689-.338.314-.085.836-.253 1.15-.384.315-.13.768-.353.998-.491.23-.13.698-.522 1.035-.86.422-.415.714-.783.898-1.152.153-.3.407-.883.56-1.305l.036-.098c.144-.397.298-.82.348-.977.053-.169.245-.775.414-1.343.177-.569.384-1.26.46-1.536a45.22 45.22 0 0 0 .453-1.766c.169-.698.376-1.597.46-1.996.089-.383.22-1.07.311-1.553l.012-.06c.075-.43.168-.935.215-1.186l.015-.08c.038-.215.107-.622.145-.921l.052-.328c.052-.336.123-.788.179-1.17.084-.53.184-1.236.23-1.573.046-.338.115-.975.16-1.42a78.393 78.393 0 0 0 .308-3.379l.022-.366c.04-.686.1-1.673.131-2.398.046-.867.077-1.92.077-2.342 0-.522-.046-.96-.153-1.382-.093-.337-.261-.806-.384-1.036-.123-.23-.43-.66-.675-.96-.246-.3-.737-.76-1.097-1.029-.353-.268-.875-.606-1.159-.744-.291-.146-.706-.33-.92-.415a16.89 16.89 0 0 0-1.06-.307 6.35 6.35 0 0 0-1.434-.154c-.437 0-1.227.07-1.764.154-.545.084-1.688.3-2.555.468-.867.17-2.126.43-2.8.576l-.379.086c-.626.142-1.371.312-1.808.413-.53.123-1.005.208-1.051.184-.054-.023-.1-.13-.1-.253 0-.115.038-.315.077-.438.038-.122.184-.683.314-1.228.138-.545.422-1.535.645-2.188a24.13 24.13 0 0 1 .621-1.69c.123-.276.376-.775.56-1.112a5.19 5.19 0 0 1 .844-1.114c.284-.276.683-.59.89-.706.215-.108.852-.36 1.42-.56.567-.2 1.173-.43 1.342-.515.169-.092.499-.292.729-.445a5.02 5.02 0 0 0 .698-.591c.153-.162.445-.53.645-.83.199-.299.552-.913.782-1.382a27.9 27.9 0 0 0 .76-1.65c.176-.445.414-1.136.514-1.536a9.609 9.609 0 0 0 .245-1.343 5.58 5.58 0 0 0-.03-1.137 5.676 5.676 0 0 0-.284-.998 6.743 6.743 0 0 0-.56-1.006c-.192-.291-.63-.79-.967-1.097-.338-.315-.89-.753-1.228-.975-.337-.223-.89-.545-1.227-.714a9.234 9.234 0 0 0-1.113-.484c-.406-.138-.598-.161-1.035-.123-.292.023-1.642.276-2.992.553-1.35.276-2.993.599-3.645.721a32.81 32.81 0 0 1-1.933.3c-.414.046-.982.084-1.266.084-.292 0-.729-.038-.982-.084a3.427 3.427 0 0 1-.744-.23c-.161-.077-.315-.208-.338-.284-.03-.07-.008-.2.046-.284.044-.06.25-.41.516-.864l.351-.595.216-.37c.425-.727 1.006-1.72 1.395-2.394a74.675 74.675 0 0 0 1.473-2.687c.453-.883.675-1.436.814-1.958.176-.699.184-.837.184-3.225 0-2.21-.016-2.556-.146-3.032a6.25 6.25 0 0 0-.936-1.958 8.789 8.789 0 0 0-.844-.914c-.291-.26-.767-.622-1.066-.783a7.043 7.043 0 0 0-1.151-.499Zm7.442 53.114c.168-.085.828-.3 1.457-.469a46.477 46.477 0 0 1 2.417-.583c.698-.138 1.32-.261 1.381-.261.061-.008.246.03.407.069.215.061.33.153.468.4.107.183.215.498.238.713.03.207.015.73-.039 1.152-.046.422-.184 1.39-.307 2.15a83.97 83.97 0 0 1-.92 4.644c-.039.146-.177.714-.307 1.267-.13.545-.376 1.467-.545 2.035-.176.568-.407 1.205-.514 1.412a1.91 1.91 0 0 1-.552.607 4.55 4.55 0 0 1-.883.415c-.291.1-.844.23-1.227.291-.376.062-.86.115-1.074.115-.207 0-.468-.046-.568-.1-.107-.045-.26-.214-.345-.36-.161-.269-.161-.353-.161-6.257 0-5.513.007-6.02.138-6.358.076-.222.23-.43.383-.545.13-.1.384-.253.553-.337Z" clip-rule="evenodd"/>
<path fill="currentColor" fill-rule="evenodd" d="M45.221 31.766c1.772.015 2.11.038 2.647.176.337.092.805.238 1.043.338.23.1.66.315.944.484.292.169.752.537 1.036.821.276.284.637.737.798.998.16.269.36.722.452 1.021.146.492.161.653.115 1.843a33.49 33.49 0 0 1-.207 2.61c-.084.715-.291 2.357-.46 3.647a722.81 722.81 0 0 0-.468 3.494c-.085.63-.276 1.858-.422 2.725a88.59 88.59 0 0 1-.537 2.84 60.331 60.331 0 0 1-.506 2.15 29.67 29.67 0 0 1-.522 1.728c-.161.46-.368 1.037-.46 1.267a21.041 21.041 0 0 1-1.566 2.956 30.877 30.877 0 0 1-1.028 1.459 60.842 60.842 0 0 1-1.235 1.574 63.743 63.743 0 0 1-1.58 1.842 78.205 78.205 0 0 1-1.88 2.027 96.828 96.828 0 0 1-2.302 2.265 84.19 84.19 0 0 1-2.378 2.157 78.438 78.438 0 0 1-1.995 1.659 141.71 141.71 0 0 1-2.225 1.727 76.487 76.487 0 0 1-5.409 3.655c-.506.3-1.365.798-1.918 1.105-.544.307-1.757.93-2.685 1.382-.928.453-2.102.99-2.608 1.206a82.41 82.41 0 0 1-1.819.737c-.498.192-.928.353-.959.353-.038 0-.268.084-.521.184-.253.1-.89.315-1.42.469-.53.16-1.527.422-2.225.583-.698.161-1.695.36-2.224.445-.53.092-1.29.17-1.688.184a8.861 8.861 0 0 1-1.113-.045 16.972 16.972 0 0 1-.882-.177 16.65 16.65 0 0 1-1.228-.353 11.73 11.73 0 0 1-1.457-.607c-.4-.2-.867-.476-1.036-.606-.169-.13-.235-.165-.345-.23-.11-.066-.982-.778-1.128-.922-.098-.096-.29-.338-.353-.407a6.5 6.5 0 0 1-.422-.514c-.08-.124-.315-.453-.476-.768a6.707 6.707 0 0 1-.422-1.037c-.084-.268-.138-.737-.145-1.136-.008-.445.013-.516.062-.796.048-.28.225-.726.313-.908.123-.254.4-.637.614-.852.23-.239.606-.5.96-.668.314-.162.82-.338 1.112-.4.299-.061 1.28-.16 2.186-.23a54.346 54.346 0 0 0 2.302-.2c.36-.038 1.051-.145 1.534-.23a28.818 28.818 0 0 0 1.765-.376 25.65 25.65 0 0 0 3.337-1.121 35.58 35.58 0 0 0 1.995-.952 50.658 50.658 0 0 0 2.724-1.52 90.697 90.697 0 0 0 2.953-1.874 86.328 86.328 0 0 0 2.992-2.096c.806-.59 2.164-1.643 3.031-2.334a97.83 97.83 0 0 0 2.57-2.15c.545-.49 1.458-1.335 2.033-1.88.568-.545 1.044-1.021 1.059-1.06.008-.03-.1-.176-.23-.315-.138-.138-.522-.36-.844-.499a6.582 6.582 0 0 0-1.15-.33c-.4-.054-1.175-.061-2.632-.008-1.136.046-2.087.07-2.11.054-.023-.015-.675.016-1.458.077-.783.061-1.795.146-2.263.192-.46.038-1.949.2-3.3.353-1.35.154-2.938.292-3.528.315-.883.038-1.159.023-1.535-.092a5.21 5.21 0 0 1-.92-.384 4.827 4.827 0 0 1-.844-.63 6.788 6.788 0 0 1-.622-.675 2.891 2.891 0 0 1-.368-.614 6.07 6.07 0 0 1-.238-.868 6.307 6.307 0 0 1-.115-1.037c0-.26.03-.667.077-.898.046-.23.2-.675.345-.983a3.3 3.3 0 0 1 .675-.944 3.716 3.716 0 0 1 1.013-.683c.391-.184 1.082-.407 1.918-.607a99.729 99.729 0 0 1 2.954-.622 70.675 70.675 0 0 1 2.685-.453 110.87 110.87 0 0 1 2.723-.345 72.66 72.66 0 0 1 2.954-.276c.698-.047 1.803-.108 2.455-.146a66.7 66.7 0 0 1 2.686-.085c.82-.015 2.34-.03 3.375-.038 1.366-.016 2.049-.054 2.494-.146.337-.07.752-.207.92-.307.17-.1.384-.292.476-.438.092-.146.215-.468.284-.722.061-.253.2-1.067.307-1.804a66.6 66.6 0 0 0 .307-2.495 85.36 85.36 0 0 0 .169-1.996c.038-.745.03-.86-.085-.96-.115-.1-.307-.107-1.258-.054-.614.031-1.657.092-2.31.138-.652.039-2.033.139-3.068.223-1.036.092-2.448.23-3.146.307-.698.085-1.903.246-2.685.353-.783.108-2.04.292-2.8.423-.76.13-2.018.368-2.8.53-.783.16-2.395.522-3.584.798-1.197.276-2.47.56-2.838.622a9.358 9.358 0 0 1-1.404.123c-.4 0-.898-.039-1.113-.085-.207-.046-.59-.2-.844-.33-.253-.13-.667-.453-.913-.706-.268-.269-.537-.63-.636-.868-.1-.215-.215-.63-.261-.921-.062-.415-.054-.63.046-1.09.061-.315.214-.76.33-.983.115-.223.36-.56.552-.76a4.13 4.13 0 0 1 .652-.53c.169-.1.598-.284.96-.422.36-.13 1.15-.392 1.764-.584a97.499 97.499 0 0 1 2.723-.752c.89-.23 2.302-.568 3.146-.76a93.224 93.224 0 0 1 2.954-.614c.782-.154 2.148-.392 3.03-.538a121.301 121.301 0 0 1 6.713-.929c.99-.107 2.647-.276 3.683-.376a102.46 102.46 0 0 1 3.145-.276c.699-.046 1.665-.116 2.149-.154.483-.03 1.795-.054 2.915-.038Zm3.36-25.59c1.228-.007 2.164.016 2.417.07.215.045.614.184.882.306.277.131.63.377.844.592.2.207.484.614.645.906.153.291.322.683.368.875.054.192.084.69.084 1.113-.007.43-.079.728-.092.806a5.735 5.735 0 0 1-.122.46c-.048.16-.13.316-.192.462a3.28 3.28 0 0 1-.422.614c-.169.192-.522.46-.798.599-.269.146-.783.322-1.143.407-.36.084-1.19.238-1.841.345-.653.107-2.141.33-3.3.5-1.158.168-3.245.498-4.641.728-1.389.23-2.93.507-3.414.615-.484.1-1.051.276-1.266.383a3.116 3.116 0 0 0-.637.446c-.138.13-.36.391-.483.583-.192.284-.223.392-.184.615.03.153.191.437.375.652.2.23.492.468.745.591.23.115.706.277 1.066.361.36.085.798.161.982.161.177 0 .952-.069 1.726-.153a68.8 68.8 0 0 1 2.778-.23c.76-.039 2.915-.116 4.795-.162s4.28-.069 5.332-.046c1.059.03 2.094.085 2.302.13.214.047.56.162.767.262.215.1.537.315.729.483.191.17.475.592.537.684.195.291.307.533.353.837.046.304.046.783.046 1.267a7.143 7.143 0 0 1-.091 1.122c-.076.475-.377.902-.499 1.05a13.9 13.9 0 0 1-.669.707c-.245.23-.583.49-.752.575a4.618 4.618 0 0 1-.744.27c-.245.068-.89.153-1.442.191-.545.038-1.949.107-3.107.154-1.159.046-3.061.13-4.22.191-1.158.07-2.747.17-3.53.23-.782.07-2.124.185-2.991.27a170.394 170.394 0 0 0-5.793.698c-.59.085-1.519.223-2.071.307a148.73 148.73 0 0 0-6.291 1.152c-.798.169-2.41.537-3.568.806-1.158.276-2.555.622-3.107.768l-2.187.614c-.652.192-2.102.653-3.222 1.021-1.12.376-2.777.968-3.682 1.313-.906.346-2.118.814-2.686 1.037-.567.222-1.174.445-1.342.491a3.151 3.151 0 0 1-.69.084 3.93 3.93 0 0 1-.845-.122c-.253-.062-.836-.3-1.304-.53-.46-.23-1.051-.584-1.304-.783-.346-.284-.491-.461-.599-.753-.13-.33-.138-.522-.107-1.42.03-.73.092-1.206.207-1.612.092-.315.276-.814.414-1.114.138-.299.407-.714.622-.944.215-.23.56-.507.767-.622.215-.115.744-.376 1.19-.583.444-.2 1.426-.615 2.186-.922.76-.307 2.179-.837 3.145-1.174.975-.338 2.509-.845 3.414-1.129.906-.284 1.688-.545 1.727-.576.046-.038.284-.115.537-.184.253-.07.928-.253 1.496-.4a70.669 70.669 0 0 0 1.572-.422c.3-.084.883-.276 1.305-.422a20.55 20.55 0 0 0 1.61-.683c.638-.315.937-.507 1.213-.799.2-.215.437-.552.522-.76.13-.284.16-.468.138-.875-.023-.415-.07-.545-.223-.706a1.27 1.27 0 0 0-.46-.292c-.146-.054-.506-.084-.806-.084a9.46 9.46 0 0 0-1.112.092c-.315.038-.767.1-.997.122-.23.023-1.266.162-2.302.308-1.036.138-2.432.314-3.107.383a25.17 25.17 0 0 1-2.072.123c-.675.008-.928-.023-1.266-.153a4.312 4.312 0 0 1-.782-.43 3.697 3.697 0 0 1-.66-.637c-.161-.2-.368-.6-.468-.899a3.327 3.327 0 0 1-.184-1.151c0-.369.054-.799.13-1.075.077-.254.215-.614.315-.806a4.54 4.54 0 0 1 .476-.73c.168-.215.468-.491.682-.63.223-.145.752-.353 1.297-.506.506-.146 1.68-.445 2.608-.653.929-.215 2.502-.552 3.491-.744.99-.2 2.563-.492 5.179-.93l.69-.514a11.907 11.907 0 0 1 1.382-.86 8.428 8.428 0 0 1 1.457-.522 23.85 23.85 0 0 1 1.304-.284c.361-.061 1.036-.084 2.034-.061.959.023 1.933.1 3.95.384l2.763-.315a279.1 279.1 0 0 1 4.795-.507c1.12-.1 2.585-.222 3.26-.269a68.598 68.598 0 0 1 1.688-.1 94.65 94.65 0 0 1 2.478-.038Z" clip-rule="evenodd"/>
</svg>
