<svg width="254" height="42" viewBox="0 0 254 42" fill="none" xmlns="http://www.w3.org/2000/svg">
<path fill-rule="evenodd" clip-rule="evenodd" d="M32.027 2.76184C31.8175 2.69413 31.6919 2.67478 31.3503 2.66511C31.1215 2.65866 30.867 2.66833 30.7864 2.68445C30.7059 2.7038 30.5544 2.74572 30.4481 2.78119C30.3417 2.81666 30.1903 2.89083 30.1097 2.94242C30.0292 2.99402 29.8519 3.15202 29.7134 3.28745C29.5748 3.42611 29.4008 3.61959 29.3267 3.71633C29.2526 3.81306 29.1785 3.9098 29.1592 3.93237C29.143 3.95172 29.0786 4.03879 29.0206 4.12585C28.9943 4.16383 28.9489 4.23026 28.895 4.30895C28.83 4.40399 28.7528 4.51691 28.6823 4.61922C28.5534 4.80624 28.3052 5.18352 28.128 5.45761C27.9508 5.7317 27.7993 5.96387 27.7865 5.97355C27.7768 5.98322 27.7091 6.07996 27.6415 6.1896C27.6241 6.2173 27.5911 6.27009 27.5463 6.34188C27.4086 6.56251 27.1588 6.96271 26.9036 7.36658C26.5684 7.89864 26.214 8.46294 26.1205 8.6145C26.0617 8.70675 25.9694 8.85514 25.8757 9.00588C25.8155 9.10279 25.7546 9.20067 25.7016 9.28522C25.6069 9.43511 25.2969 9.93006 24.9197 10.5321C24.7452 10.8108 24.5562 11.1125 24.3676 11.4135C23.7715 12.3679 23.1754 13.3289 23.0432 13.5514C22.9111 13.7739 22.7275 14.106 22.634 14.293C22.5406 14.4801 22.4181 14.7541 22.3569 14.9057C22.2989 15.0573 22.228 15.312 22.199 15.47C22.1571 15.6893 22.1474 15.857 22.1603 16.1472C22.17 16.3697 22.2055 16.6244 22.2377 16.7437C22.2699 16.8598 22.3537 17.0597 22.4246 17.1919C22.4955 17.3241 22.634 17.5144 22.7307 17.6144C22.8274 17.7176 22.9852 17.8369 23.0787 17.8852C23.1689 17.9304 23.3365 17.9916 23.4493 18.0174C23.5814 18.0497 23.823 18.0658 24.1807 18.0658C24.4739 18.0658 25.0894 18.0368 25.5502 17.9981C26.1141 17.9529 26.5555 17.9368 26.9036 17.9465C27.3321 17.9562 27.4513 17.9691 27.6125 18.0303C27.7188 18.069 27.8638 18.1496 27.9347 18.2077C28.0056 18.2657 28.0958 18.3754 28.1345 18.456C28.1731 18.5334 28.2279 18.6849 28.2537 18.7913C28.2827 18.8978 28.3181 19.0848 28.3375 19.2105C28.3536 19.3363 28.3697 19.6362 28.3697 19.878C28.3697 20.1618 28.3504 20.4133 28.3181 20.5713C28.2891 20.71 28.2279 20.9002 28.1828 20.997C28.1345 21.0937 28.0314 21.2291 27.9508 21.3001C27.8702 21.371 27.7059 21.4774 27.5802 21.5355C27.4578 21.5935 27.2387 21.6677 27.0969 21.7032C26.9551 21.7386 26.6522 21.8063 26.4202 21.8515C26.3858 21.8578 26.3473 21.8649 26.3056 21.8726C26.0698 21.9159 25.7346 21.9776 25.5019 22.0159C25.228 22.0643 24.8832 22.132 24.7382 22.1643C24.5899 22.1965 24.3515 22.2707 24.2065 22.3287C24.0583 22.3868 23.8746 22.4803 23.794 22.5416C23.7135 22.6028 23.5878 22.7125 23.5105 22.7866C23.4331 22.8576 23.3075 23.0123 23.2301 23.1284C23.1528 23.2445 23.0432 23.4477 22.9852 23.5799C22.9305 23.7121 22.8564 23.9152 22.8209 24.0313C22.7887 24.1474 22.7307 24.3796 22.6952 24.5473C22.6599 24.7143 22.5478 25.3296 22.4418 25.9114L22.4407 25.9177C22.3343 26.5014 22.1893 27.214 22.1217 27.4978C22.0508 27.7815 21.9348 28.1814 21.8671 28.3845C21.7962 28.5877 21.6705 28.923 21.59 29.1262C21.5062 29.3293 21.2645 29.8453 21.0551 30.2709C20.8456 30.6966 20.604 31.1674 20.5234 31.3189C20.4396 31.4705 20.2495 31.7962 20.1045 32.0445C19.9563 32.2928 19.7436 32.6346 19.6308 32.8022C19.5181 32.9699 19.3408 33.2247 19.2345 33.3665C19.1282 33.5052 18.9187 33.7503 18.7673 33.9083C18.6158 34.0663 18.3935 34.263 18.2678 34.3468C18.1228 34.4436 17.9359 34.5306 17.7522 34.5887C17.5943 34.637 17.3462 34.7402 17.2045 34.8112C17.0627 34.8853 16.8629 35.0272 16.7566 35.124C16.6534 35.2207 16.5117 35.3819 16.4472 35.4787C16.3828 35.5754 16.2958 35.7173 16.2571 35.7915C16.2217 35.8688 16.1701 35.9914 16.1443 36.0655C16.1185 36.1429 16.0799 36.2913 16.0573 36.3977C16.0348 36.5041 16.0154 36.7588 16.0186 36.962C16.0219 37.2264 16.0412 37.407 16.0895 37.5908C16.125 37.7327 16.2055 37.9519 16.2668 38.0745C16.328 38.197 16.4537 38.3873 16.5439 38.4937C16.6341 38.6001 16.7791 38.7452 16.8661 38.8161C16.9499 38.8871 17.1207 38.9999 17.2431 39.0676C17.3623 39.1354 17.5653 39.2257 17.6878 39.2676C17.8135 39.3095 18.0648 39.3611 18.2517 39.3837C18.5481 39.4191 18.6384 39.4159 18.9606 39.3675C19.1636 39.3353 19.4343 39.274 19.5567 39.2289C19.6824 39.1837 19.8854 39.0967 20.0078 39.0322C20.1335 38.9709 20.3655 38.8322 20.5234 38.7226C20.6845 38.6162 20.9165 38.4421 21.039 38.3324C21.1646 38.226 21.3677 38.0358 21.4901 37.91C21.6158 37.7843 21.8381 37.5456 21.9928 37.378C22.1442 37.2103 22.3762 36.9459 22.5083 36.7846C22.6437 36.6234 22.9466 36.2461 23.185 35.9462C23.4235 35.6463 23.765 35.2013 23.9423 34.9627C24.1195 34.7241 24.2999 34.4758 24.3451 34.4113C24.3765 34.363 24.4459 34.2602 24.5154 34.1574C24.5386 34.1231 24.5617 34.0889 24.5835 34.0566C24.6943 33.8942 24.8199 33.7138 24.9283 33.56L24.9466 33.534C25.0476 33.3908 25.1397 33.26 25.2795 33.0441C25.431 32.8151 25.6372 32.4798 25.7403 32.3024C25.7741 32.2443 25.8072 32.1872 25.837 32.1359C25.8981 32.0304 25.9454 31.9489 25.9562 31.9316C25.9645 31.9183 25.9899 31.8733 26.0245 31.8121C26.057 31.7546 26.0977 31.6826 26.1399 31.6091C26.2269 31.4576 26.3815 31.1641 26.4814 30.9545C26.5813 30.7482 26.6619 30.5547 26.6619 30.5289C26.6619 30.5031 26.6748 30.4773 26.6877 30.4709C26.7005 30.4676 26.7457 30.3838 26.7875 30.2871C26.8294 30.1903 26.8681 30.0742 26.8746 30.0291C26.8778 29.9839 26.8971 29.942 26.9132 29.9323C26.9326 29.9227 27.0196 29.6969 27.1098 29.4325C27.1968 29.1649 27.3031 28.8328 27.3418 28.6909C27.3805 28.549 27.4449 28.2813 27.4836 28.0943C27.5255 27.9073 27.577 27.6912 27.5996 27.6106C27.6286 27.5203 27.6962 27.4139 27.78 27.3269C27.8896 27.2205 27.9734 27.1753 28.1699 27.114C28.3052 27.0721 28.5147 27.0173 28.6339 26.9915C28.78 26.9636 28.8638 26.9603 28.8853 26.9818C28.9046 27.0012 28.9304 27.4945 28.9497 28.2556C28.969 28.9392 28.9819 30.6418 28.9787 32.0445C28.9787 33.6535 28.9884 34.6499 29.0077 34.7531C29.027 34.8402 29.0786 35.0079 29.1237 35.124C29.1688 35.24 29.2784 35.4432 29.3686 35.5754C29.4556 35.7076 29.6199 35.9108 29.7295 36.0236C29.8423 36.1365 30.026 36.2913 30.142 36.3654C30.258 36.4428 30.432 36.5396 30.5286 36.5815C30.6253 36.6266 30.838 36.6943 30.9959 36.7363C31.215 36.7911 31.3761 36.8072 31.6564 36.804C31.8594 36.804 32.1011 36.7911 32.1881 36.7717C32.2783 36.7556 32.4298 36.7105 32.5265 36.6718C32.6231 36.6331 32.7681 36.5621 32.8487 36.517C32.9292 36.4718 33.0742 36.3719 33.1709 36.2977C33.2676 36.2235 33.4738 36.0333 33.6253 35.8753C33.7767 35.7205 34.0313 35.44 34.1892 35.2562C34.347 35.0724 34.4985 34.9111 34.5243 34.8982C34.5501 34.8821 34.8497 34.8563 35.1848 34.837C35.5232 34.8176 35.9711 34.7854 36.1838 34.7692C36.3964 34.7499 36.709 34.7209 36.8765 34.7015C37.0441 34.6822 37.3921 34.6338 37.6499 34.5919C37.9077 34.5468 38.2267 34.4855 38.3588 34.45C38.4909 34.4145 38.71 34.3436 38.8421 34.2888C38.9743 34.234 39.1644 34.1405 39.261 34.0824C39.3577 34.0276 39.5543 33.8631 39.6961 33.7213C39.8733 33.5471 39.9957 33.3923 40.0731 33.2376C40.1375 33.1118 40.2438 32.8667 40.3083 32.6894L40.3233 32.648C40.3839 32.4815 40.4486 32.3034 40.4694 32.2379C40.492 32.167 40.5725 31.9123 40.6434 31.6736C40.7175 31.435 40.8045 31.1448 40.8367 31.0287C40.8722 30.9126 40.956 30.5805 41.0269 30.2871C41.0978 29.9936 41.1848 29.6163 41.2202 29.4487C41.2573 29.2878 41.3122 28.9993 41.3507 28.7967L41.3555 28.7715C41.3872 28.5902 41.4265 28.3782 41.446 28.2727L41.4522 28.2394C41.4683 28.1491 41.4973 27.9782 41.5134 27.8525C41.5189 27.8171 41.5263 27.7696 41.535 27.7145C41.5571 27.5736 41.5869 27.3837 41.6101 27.2237C41.6455 27.0012 41.6874 26.7045 41.7068 26.5626C41.7261 26.4208 41.7551 26.1531 41.7744 25.9661C41.7938 25.7791 41.8228 25.4985 41.8389 25.3373C41.855 25.1761 41.884 24.8214 41.9033 24.5473C41.906 24.5021 41.9091 24.4503 41.9124 24.3936C41.9296 24.1055 41.9543 23.6908 41.9678 23.3864C41.9871 23.022 42 22.5803 42 22.4029C42 22.1836 41.9807 21.9998 41.9355 21.8225C41.8969 21.6806 41.826 21.4839 41.7744 21.3871C41.7229 21.2904 41.594 21.1098 41.4909 20.9841C41.3878 20.8583 41.1815 20.6648 41.0301 20.552C40.8819 20.4391 40.6627 20.2972 40.5435 20.2392C40.4211 20.1779 40.2471 20.1005 40.1568 20.0651C40.0634 20.0328 39.8636 19.9748 39.7122 19.9361C39.5317 19.8942 39.3287 19.8716 39.1096 19.8716C38.9259 19.8716 38.594 19.9006 38.3685 19.9361C38.1397 19.9715 37.6596 20.0618 37.2954 20.1328C36.9313 20.2037 36.4029 20.3134 36.1193 20.3746C36.07 20.3858 36.0168 20.3979 35.9614 20.4105C35.6981 20.4704 35.3847 20.5416 35.201 20.5842C34.9786 20.6358 34.7788 20.6713 34.7595 20.6616C34.7369 20.6519 34.7176 20.6068 34.7176 20.5552C34.7176 20.5068 34.7337 20.423 34.7498 20.3714C34.766 20.3198 34.8272 20.0844 34.882 19.8555C34.94 19.6265 35.0592 19.2105 35.1526 18.9365C35.2428 18.6624 35.3621 18.3431 35.4136 18.227C35.4652 18.111 35.5715 17.9014 35.6489 17.7595C35.7391 17.5982 35.8712 17.4209 36.0033 17.2919C36.1225 17.1758 36.2901 17.0436 36.3771 16.9952C36.4673 16.9501 36.7348 16.8437 36.9732 16.7598C37.2117 16.676 37.4662 16.5793 37.5371 16.5438C37.608 16.5051 37.7466 16.4213 37.8432 16.3568C37.9399 16.2891 38.072 16.1794 38.1365 16.1085C38.2009 16.0408 38.3234 15.886 38.4071 15.7602C38.4909 15.6345 38.6391 15.3765 38.7358 15.1798C38.8357 14.9831 38.9775 14.6735 39.0548 14.4865C39.1289 14.2995 39.2288 14.0093 39.2707 13.8416C39.3158 13.6739 39.3609 13.4192 39.3738 13.2773C39.3867 13.1289 39.3803 12.9258 39.3609 12.8C39.3416 12.6807 39.2868 12.4937 39.2417 12.3808C39.1966 12.2712 39.0903 12.0809 39.0065 11.9584C38.9259 11.8359 38.7423 11.6263 38.6005 11.4973C38.4587 11.3651 38.2267 11.1813 38.0849 11.0878C37.9431 10.9943 37.7111 10.8588 37.5693 10.7879C37.4276 10.7137 37.2181 10.6234 37.1021 10.5847C36.9313 10.5267 36.8508 10.517 36.6671 10.5331C36.5447 10.5428 35.9775 10.6492 35.4104 10.7653C34.8433 10.8814 34.1537 11.0168 33.8798 11.0684C33.6059 11.12 33.2386 11.1748 33.0678 11.1942C32.8938 11.2135 32.6553 11.2297 32.5361 11.2297C32.4137 11.2297 32.23 11.2135 32.1237 11.1942C32.0173 11.1748 31.8755 11.1297 31.8111 11.0974C31.7434 11.0652 31.679 11.0104 31.6693 10.9781C31.6564 10.9491 31.6661 10.8943 31.6887 10.8588C31.7069 10.8337 31.7934 10.6867 31.9053 10.4964C31.9512 10.4185 32.0013 10.3333 32.0528 10.2461C32.0802 10.1992 32.1108 10.1469 32.1436 10.0909C32.3222 9.7856 32.5661 9.36867 32.7295 9.08529C32.9228 8.74993 33.2031 8.24044 33.3481 7.95668C33.5383 7.58585 33.6317 7.35368 33.6897 7.13441C33.7638 6.84097 33.767 6.78292 33.767 5.78007C33.767 4.85139 33.7606 4.70628 33.7058 4.50635C33.6736 4.38059 33.5995 4.18712 33.5415 4.07103C33.4867 3.95495 33.3836 3.78082 33.3127 3.68408C33.2386 3.58734 33.0807 3.41321 32.9582 3.30035C32.8358 3.19072 32.636 3.03916 32.5103 2.97144C32.3879 2.9005 32.1688 2.80699 32.027 2.76184ZM35.1526 25.0696C35.2235 25.0341 35.5006 24.9438 35.7649 24.8729C36.0323 24.7987 36.4866 24.6891 36.7799 24.6278C37.0731 24.5698 37.3341 24.5182 37.3599 24.5182C37.3857 24.5149 37.463 24.5311 37.5307 24.5472C37.6209 24.573 37.6692 24.6117 37.7272 24.7149C37.7723 24.7923 37.8175 24.9245 37.8271 25.0148C37.84 25.1018 37.8336 25.3211 37.811 25.4984C37.7917 25.6758 37.7337 26.0821 37.6821 26.4013C37.6306 26.7206 37.5274 27.2655 37.4566 27.6106C37.3857 27.9556 37.3116 28.291 37.2954 28.3522C37.2793 28.4135 37.2213 28.6521 37.1665 28.8843C37.1118 29.1132 37.0087 29.5002 36.9378 29.7388C36.8636 29.9774 36.767 30.2451 36.7219 30.3321C36.6671 30.4289 36.5769 30.5288 36.4899 30.5869C36.4093 30.6417 36.2418 30.7191 36.1193 30.761C35.9969 30.8029 35.7649 30.8577 35.6037 30.8835C35.4458 30.9093 35.2428 30.9319 35.1526 30.9319C35.0656 30.9319 34.9561 30.9126 34.9142 30.89C34.8691 30.8706 34.8046 30.7997 34.7692 30.7384C34.7015 30.6256 34.7015 30.5901 34.7015 28.1106V28.1104C34.7015 25.7951 34.7047 25.5823 34.7595 25.4404C34.7917 25.3469 34.8562 25.2598 34.9206 25.2115C34.9754 25.1695 35.0817 25.105 35.1526 25.0696Z" fill="black"/>
<path fill-rule="evenodd" clip-rule="evenodd" d="M18.9928 13.3419C19.7372 13.3483 19.879 13.358 20.1045 13.4161C20.2463 13.4548 20.4429 13.516 20.5428 13.5579C20.6394 13.5999 20.8199 13.6902 20.9391 13.7611C21.0615 13.832 21.2549 13.9868 21.3741 14.1061C21.4901 14.2254 21.6416 14.4157 21.7092 14.5253C21.7769 14.6382 21.8607 14.8284 21.8993 14.9542C21.9606 15.1606 21.967 15.2283 21.9477 15.7281C21.938 16.028 21.8993 16.5214 21.8607 16.8245C21.8252 17.1244 21.7382 17.8144 21.6673 18.3562C21.5932 18.8979 21.5062 19.5557 21.4708 19.8233C21.4353 20.0878 21.3548 20.6037 21.2935 20.9681C21.2323 21.3325 21.1292 21.8677 21.068 22.1612C21.0035 22.4546 20.9101 22.8609 20.8553 23.0641C20.8005 23.2672 20.7039 23.5961 20.6362 23.7896C20.5685 23.9831 20.4815 24.2249 20.4429 24.3217C20.4042 24.4184 20.285 24.6732 20.1754 24.886C20.0659 25.0988 19.8918 25.4019 19.7855 25.5631C19.6824 25.7244 19.4858 25.9985 19.3537 26.1758C19.2216 26.3532 18.9864 26.6498 18.8349 26.8369C18.6835 27.0239 18.3838 27.3721 18.1711 27.6108C17.9585 27.8494 17.604 28.2331 17.3817 28.4621C17.1593 28.691 16.7243 29.1199 16.415 29.4133C16.1024 29.7068 15.6545 30.1163 15.4161 30.3194C15.1776 30.5258 14.8006 30.8386 14.5783 31.0159C14.356 31.1933 13.9371 31.519 13.6438 31.7415C13.3506 31.9608 12.8093 32.3445 12.4355 32.5928C12.0649 32.8411 11.5848 33.1474 11.3721 33.2764C11.1594 33.4021 10.7985 33.6117 10.5665 33.7407C10.3378 33.8697 9.82863 34.1309 9.43873 34.3212C9.04883 34.5114 8.55582 34.7371 8.34315 34.8274C8.13048 34.9177 7.7857 35.0564 7.57947 35.137C7.37002 35.2176 7.18957 35.2853 7.17668 35.2853C7.16057 35.2853 7.0639 35.3208 6.95757 35.3627C6.85123 35.4046 6.58378 35.4949 6.36144 35.5594C6.1391 35.6271 5.72021 35.7368 5.42698 35.8045C5.13375 35.8722 4.71485 35.956 4.49251 35.9915C4.27017 36.0302 3.95117 36.0624 3.78361 36.0689C3.61605 36.0721 3.4066 36.0624 3.31638 36.0495C3.22937 36.0366 3.06181 36.0012 2.94581 35.9754C2.82981 35.9496 2.5978 35.8819 2.43024 35.827C2.26269 35.7722 1.98557 35.6594 1.81801 35.5723C1.65045 35.4885 1.45389 35.3724 1.383 35.3176C1.31211 35.2627 1.28423 35.2483 1.238 35.2208C1.19176 35.1933 0.825793 34.8942 0.764319 34.8339C0.723316 34.7936 0.642907 34.6921 0.616094 34.663C0.589281 34.6338 0.47209 34.4989 0.438868 34.4469C0.405645 34.395 0.306754 34.2567 0.239085 34.1245C0.171417 33.9923 0.09086 33.7956 0.0618594 33.6891C0.0264141 33.5763 0.00385808 33.3796 0.00063579 33.2119C-0.0025865 33.0249 0.00648116 32.9951 0.0268461 32.8775C0.0472111 32.7599 0.121393 32.5727 0.158528 32.496C0.210085 32.3896 0.326087 32.2284 0.416312 32.1381C0.51298 32.0381 0.670873 31.9285 0.819098 31.8576C0.951212 31.7898 1.16388 31.7157 1.28633 31.6899C1.412 31.6641 1.82445 31.6222 2.20468 31.5931C2.58491 31.5673 3.01992 31.5287 3.17137 31.5093C3.32282 31.4932 3.61283 31.448 3.81583 31.4126C4.01884 31.3771 4.35395 31.3062 4.55696 31.2546C4.75996 31.203 5.09508 31.103 5.29809 31.0321C5.50109 30.9611 5.80076 30.8515 5.95865 30.7838C6.11977 30.7161 6.49678 30.5387 6.79645 30.3839C7.09935 30.2291 7.61169 29.9454 7.94037 29.7455C8.26904 29.5488 8.8265 29.194 9.18095 28.9586C9.5354 28.7233 10.1025 28.3266 10.4376 28.0783C10.776 27.83 11.3463 27.3883 11.7104 27.0981C12.0746 26.8046 12.5579 26.3983 12.7899 26.1952C13.0187 25.9888 13.4022 25.6341 13.6438 25.4051C13.8823 25.1762 14.0821 24.9763 14.0885 24.9601C14.0917 24.9472 14.0466 24.886 13.9918 24.8279C13.9338 24.7699 13.7727 24.6764 13.6374 24.6183C13.4988 24.5635 13.2797 24.499 13.154 24.4797C12.9865 24.4571 12.661 24.4539 12.0488 24.4764C11.5719 24.4958 11.1723 24.5055 11.1627 24.499C11.153 24.4926 10.8791 24.5055 10.5504 24.5313C10.2217 24.5571 9.79641 24.5925 9.59985 24.6119C9.40651 24.628 8.78138 24.6957 8.21426 24.7602C7.64714 24.8247 6.98012 24.8827 6.73201 24.8924C6.36144 24.9085 6.24544 24.9021 6.08755 24.8537C5.98121 24.8247 5.80721 24.7505 5.70087 24.6925C5.59454 24.6312 5.43342 24.5151 5.34642 24.4281C5.2562 24.3442 5.14019 24.2153 5.08541 24.1443C5.02741 24.0734 4.95974 23.9573 4.93074 23.8863C4.90174 23.8154 4.85663 23.651 4.83085 23.522C4.80507 23.3962 4.78252 23.1995 4.78252 23.0866C4.78252 22.977 4.79541 22.8061 4.81474 22.7094C4.83407 22.6126 4.89852 22.4256 4.95974 22.2966C5.03063 22.1483 5.13375 22.0032 5.24331 21.9C5.34964 21.7936 5.50431 21.6904 5.66865 21.613C5.83299 21.5356 6.12299 21.4421 6.47422 21.3583C6.77712 21.2873 7.33457 21.1712 7.7148 21.0971C8.09504 21.0261 8.60416 20.9391 8.84261 20.9068C9.08106 20.8713 9.59662 20.8069 9.98652 20.7617C10.3764 20.7166 10.9339 20.665 11.2271 20.6456C11.5203 20.6263 11.9843 20.6005 12.2582 20.5844C12.5321 20.5682 13.0413 20.5521 13.386 20.5489C13.7308 20.5424 14.3688 20.536 14.8038 20.5328C15.3774 20.5263 15.6642 20.5102 15.8511 20.4715C15.9929 20.4425 16.1669 20.3844 16.2378 20.3425C16.3087 20.3006 16.3989 20.22 16.4376 20.1587C16.4762 20.0974 16.5278 19.962 16.5568 19.8556C16.5826 19.7492 16.6406 19.4074 16.6857 19.0978C16.7308 18.7883 16.7888 18.3142 16.8146 18.0498C16.8403 17.7822 16.8726 17.4049 16.8854 17.2114C16.9016 16.8986 16.8983 16.8503 16.85 16.8083C16.8017 16.7664 16.7211 16.7632 16.3215 16.7858C16.0638 16.7987 15.6255 16.8245 15.3516 16.8438C15.0777 16.8599 14.4977 16.9019 14.0627 16.9373C13.6277 16.976 13.0348 17.0341 12.7416 17.0663C12.4484 17.1018 11.9425 17.1695 11.6138 17.2146C11.2851 17.2598 10.7566 17.3372 10.4376 17.392C10.1186 17.4468 9.59018 17.5468 9.26151 17.6145C8.93283 17.6822 8.25615 17.8338 7.75669 17.9499C7.25402 18.0659 6.71912 18.1852 6.56445 18.211C6.40655 18.2401 6.14233 18.2626 5.97477 18.2626C5.80721 18.2626 5.59776 18.2465 5.50753 18.2272C5.42053 18.2078 5.25942 18.1433 5.15308 18.0885C5.04675 18.0337 4.87274 17.8983 4.76963 17.7918C4.65685 17.679 4.54407 17.5274 4.50218 17.4275C4.46029 17.3372 4.41195 17.163 4.39262 17.0405C4.36684 16.8664 4.37006 16.7761 4.41195 16.5826C4.43773 16.4504 4.50218 16.2634 4.55051 16.1699C4.59885 16.0764 4.70196 15.9345 4.78252 15.8506C4.86308 15.77 4.98552 15.6701 5.05641 15.6281C5.1273 15.5862 5.30775 15.5088 5.4592 15.4508C5.61065 15.396 5.94254 15.2863 6.20033 15.2057C6.45811 15.1283 6.97368 14.9864 7.34424 14.8897C7.71803 14.793 8.31093 14.6511 8.66538 14.5705C9.01983 14.4899 9.57729 14.3738 9.90596 14.3125C10.2346 14.248 10.8082 14.148 11.1788 14.0868C11.5526 14.0255 12.168 13.9288 12.5482 13.8772C12.9285 13.8224 13.5826 13.7417 13.9983 13.6966C14.414 13.6515 15.11 13.5805 15.545 13.5386C15.98 13.4935 16.5729 13.4419 16.8661 13.4225C17.1593 13.4032 17.5654 13.3741 17.7684 13.358C17.9714 13.3451 18.5224 13.3354 18.9928 13.3419Z" fill="black"/>
<path fill-rule="evenodd" clip-rule="evenodd" d="M20.4042 2.59435C20.9198 2.59113 21.3129 2.6008 21.4192 2.62338C21.5094 2.64272 21.677 2.70077 21.7898 2.75236C21.9058 2.80718 22.054 2.91037 22.1442 3.00065C22.228 3.08772 22.3472 3.25862 22.4149 3.38116C22.4793 3.50369 22.5502 3.66815 22.5696 3.74876C22.5921 3.82938 22.605 4.03898 22.605 4.21633C22.6018 4.39691 22.5718 4.52196 22.5663 4.55491C22.5609 4.58787 22.5349 4.68189 22.5148 4.74839C22.4947 4.81489 22.46 4.8806 22.4342 4.94187C22.4052 5.00313 22.3279 5.11922 22.257 5.19983C22.1861 5.28045 22.0379 5.39331 21.9219 5.45135C21.8091 5.51262 21.5932 5.58679 21.4418 5.62226C21.2903 5.65773 20.9423 5.72222 20.6684 5.76736C20.3945 5.81251 19.7694 5.90602 19.2828 5.97696C18.7963 6.0479 17.9198 6.18656 17.3333 6.2833C16.7501 6.38004 16.1024 6.49612 15.8994 6.54127C15.6964 6.58319 15.458 6.65735 15.3677 6.7025C15.2807 6.74764 15.1583 6.83148 15.1003 6.88952C15.0423 6.94434 14.9488 7.05398 14.8973 7.1346C14.8167 7.25391 14.8038 7.29905 14.82 7.39256C14.8328 7.45706 14.9005 7.57637 14.9778 7.66665C15.0616 7.76339 15.1841 7.86336 15.2904 7.91495C15.3871 7.96332 15.5869 8.03103 15.7383 8.06651C15.8898 8.10198 16.0734 8.13422 16.1508 8.13422C16.2249 8.13422 16.5503 8.1052 16.8758 8.06973C17.198 8.03426 17.7232 7.99234 18.0422 7.97299C18.3613 7.95687 19.2667 7.92462 20.0562 7.90528C20.8456 7.88593 21.8542 7.87625 22.2957 7.88593C22.7404 7.89883 23.1754 7.9214 23.2624 7.94075C23.3526 7.96009 23.4976 8.00846 23.5846 8.05038C23.6748 8.0923 23.8102 8.18259 23.8907 8.25353C23.9713 8.32447 24.0904 8.50191 24.1163 8.54052C24.1982 8.66291 24.2452 8.76429 24.2645 8.892C24.2838 9.01971 24.2838 9.22091 24.2838 9.42406C24.2806 9.62721 24.2691 9.74903 24.2457 9.89571C24.2139 10.0949 24.0874 10.2743 24.0362 10.3363C23.985 10.3982 23.8553 10.5333 23.7554 10.6333C23.6523 10.73 23.5105 10.8397 23.4396 10.8751C23.3687 10.9106 23.2269 10.9622 23.127 10.988C23.0239 11.017 22.7532 11.0525 22.5212 11.0686C22.2925 11.0847 21.7028 11.1138 21.2162 11.1331C20.7296 11.1525 19.9305 11.1879 19.4439 11.2137C18.9574 11.2427 18.2904 11.2847 17.9617 11.3105C17.633 11.3395 17.0691 11.3878 16.705 11.4233C16.3409 11.4588 15.748 11.5265 15.3839 11.5716C15.0197 11.6168 14.5203 11.6813 14.2722 11.7168C14.024 11.7522 13.6342 11.8103 13.4021 11.8457C13.1734 11.8812 12.6224 11.9747 12.1777 12.0553C11.7362 12.136 11.0982 12.2585 10.7599 12.3294C10.4247 12.4004 9.74807 12.5552 9.2615 12.668C8.77493 12.7841 8.18848 12.9292 7.95647 12.9905C7.72769 13.055 7.31201 13.1711 7.03812 13.2484C6.76422 13.3291 6.15521 13.5225 5.68475 13.6773C5.2143 13.8353 4.51829 14.0836 4.13805 14.2287C3.75782 14.3738 3.2487 14.5705 3.01025 14.664C2.7718 14.7576 2.51724 14.8511 2.44635 14.8704C2.37546 14.8898 2.24657 14.9059 2.15634 14.9059C2.06934 14.9059 1.90823 14.8833 1.80189 14.8543C1.69556 14.8285 1.45066 14.7285 1.2541 14.6318C1.06076 14.5351 0.812648 14.3867 0.706312 14.3029C0.561309 14.1836 0.500086 14.1094 0.454974 13.9869C0.400195 13.8482 0.396972 13.7676 0.409861 13.3903C0.422751 13.084 0.448529 12.8841 0.496863 12.7132C0.535531 12.5809 0.612866 12.3713 0.670867 12.2456C0.728868 12.1198 0.841649 11.9457 0.931873 11.849C1.0221 11.7522 1.1671 11.6361 1.2541 11.5878C1.34433 11.5394 1.56666 11.4298 1.75356 11.3427C1.94045 11.2589 2.3529 11.0847 2.67191 10.9557C2.99092 10.8268 3.58704 10.6043 3.99305 10.4624C4.40228 10.3205 5.04674 10.1077 5.42697 9.98837C5.8072 9.86906 6.13588 9.75942 6.15199 9.74652C6.17132 9.7304 6.27121 9.69815 6.37755 9.66913C6.48388 9.64011 6.76745 9.56272 7.00589 9.50145C7.24434 9.44019 7.54402 9.35957 7.66646 9.3241C7.79213 9.28863 8.03703 9.20801 8.21425 9.14675C8.39148 9.08225 8.6976 8.95327 8.89094 8.85976C9.15839 8.72755 9.28406 8.64693 9.40006 8.5244C9.48384 8.43411 9.58373 8.29223 9.61917 8.20516C9.67395 8.08585 9.68684 8.00846 9.67718 7.83756C9.66751 7.66343 9.64818 7.60861 9.58373 7.5409C9.53862 7.49253 9.45162 7.43771 9.39039 7.41836C9.32917 7.39579 9.17772 7.38289 9.05205 7.38289C8.9296 7.38289 8.71693 7.40224 8.58482 7.42158C8.4527 7.43771 8.26259 7.4635 8.16592 7.47318C8.06925 7.48285 7.63424 7.5409 7.19923 7.60216C6.76422 7.66021 6.17777 7.73437 5.8942 7.76339C5.61064 7.79241 5.22074 7.81499 5.02418 7.81499C4.74062 7.81821 4.63429 7.80531 4.49251 7.75049C4.39584 7.7118 4.24761 7.63118 4.16383 7.56992C4.07683 7.50865 3.95438 7.38934 3.88672 7.30227C3.81905 7.21843 3.73205 7.05076 3.69016 6.925C3.63538 6.76377 3.61282 6.62511 3.61282 6.44131C3.61282 6.28652 3.63538 6.10595 3.6676 5.98986C3.69982 5.88345 3.75782 5.73189 3.79971 5.65128C3.83838 5.57066 3.92861 5.432 3.9995 5.34494C4.07039 5.25465 4.19606 5.13857 4.28628 5.08052C4.37973 5.01926 4.60206 4.93219 4.83085 4.8677C5.04352 4.80643 5.53653 4.68067 5.92643 4.59361C6.31632 4.50332 6.97689 4.36144 7.39257 4.28082C7.80825 4.19698 8.46882 4.07445 9.56762 3.89064L9.85762 3.6746C10.0187 3.55529 10.2797 3.39406 10.4376 3.31344C10.5988 3.23605 10.8694 3.13609 11.0499 3.09417C11.2271 3.04902 11.4752 2.99743 11.5977 2.97486C11.7491 2.94906 12.0327 2.93939 12.4516 2.94906C12.8544 2.95873 13.2636 2.99098 14.1111 3.11029L15.2711 2.97808C15.9091 2.90392 16.8146 2.8104 17.285 2.76526C17.7555 2.72334 18.3709 2.67175 18.6545 2.6524C18.938 2.63305 19.2571 2.6137 19.3634 2.61048C19.4697 2.60403 19.937 2.59758 20.4042 2.59435Z" fill="black"/>
<path d="M67.269 36.6875V25.0353C67.269 23.9797 67.0119 23.2015 66.4976 22.7008C65.9833 22.1865 65.3608 21.9294 64.63 21.9294C63.8857 21.9294 63.2022 22.1392 62.5797 22.5587C61.9572 22.9782 61.4564 23.6549 61.0775 24.5887C60.7121 25.509 60.5294 26.7337 60.5294 28.263H58.5603C58.5603 25.3939 58.8986 23.0594 59.5753 21.2595C60.2655 19.4596 61.1993 18.1401 62.3767 17.301C63.5676 16.4619 64.9142 16.0424 66.4164 16.0424C68.1351 16.0424 69.5358 16.4281 70.6185 17.1995C71.7147 17.9709 72.5199 19.0333 73.0342 20.3866C73.5485 21.7399 73.8056 23.2895 73.8056 25.0353V36.6875H67.269ZM54.0334 36.6875V8.6735H60.5294V36.6875H54.0334ZM88.8095 36.6875L87.9772 31.3486V23.8579C87.9772 22.8564 87.7945 22.0783 87.4291 21.5234C87.0637 20.9685 86.2856 20.6911 85.0946 20.6911C84.3909 20.6911 83.8157 20.7994 83.3691 21.0159C82.9361 21.2189 82.6113 21.4963 82.3947 21.8482C82.1917 22.1865 82.0902 22.5587 82.0902 22.9647H75.0664C75.0664 21.3948 75.4386 20.1024 76.1829 19.0874C76.9273 18.0589 78.0438 17.2942 79.5324 16.7935C81.0211 16.2928 82.8752 16.0424 85.0946 16.0424C87.0299 16.0424 88.6945 16.3401 90.0884 16.9356C91.4959 17.5311 92.5786 18.4243 93.3364 19.6152C94.0943 20.8061 94.4732 22.3016 94.4732 24.1015V36.6875H88.8095ZM82.5165 37.3371C80.7301 37.3371 79.2212 37.0394 77.9896 36.4439C76.7716 35.8349 75.8514 35.0161 75.2288 33.9876C74.6063 32.9591 74.295 31.8223 74.295 30.5772C74.295 29.3998 74.6198 28.3848 75.2694 27.5322C75.919 26.6661 76.8799 25.9962 78.152 25.5225C79.4377 25.0488 81.0143 24.812 82.8819 24.812C84.0187 24.812 85.0202 24.8729 85.8863 24.9947C86.766 25.1165 87.666 25.2654 88.5862 25.4413V29.0953C87.9096 28.9464 87.2058 28.8314 86.475 28.7502C85.7578 28.669 85.054 28.6284 84.3638 28.6284C83.403 28.6284 82.6383 28.784 82.0699 29.0953C81.5151 29.393 81.2376 29.887 81.2376 30.5772C81.2376 31.0779 81.488 31.5178 81.9887 31.8967C82.4895 32.2621 83.2812 32.4448 84.3638 32.4448C85.2841 32.4448 86.0081 32.2621 86.5359 31.8967C87.0637 31.5313 87.4359 31.0712 87.6524 30.5163C87.869 29.9614 87.9772 29.4133 87.9772 28.872H89.4997C89.4997 30.4148 89.2561 31.829 88.7689 33.1147C88.2817 34.4004 87.5239 35.4289 86.4953 36.2003C85.4668 36.9582 84.1405 37.3371 82.5165 37.3371ZM105.378 37.3371C103.524 37.3371 101.819 36.9582 100.263 36.2003C98.7197 35.4289 97.4814 34.265 96.5476 32.7087C95.6274 31.1388 95.1672 29.1494 95.1672 26.7405C95.1672 24.2504 95.6274 22.2204 96.5476 20.6505C97.4814 19.0806 98.7197 17.9235 100.263 17.1792C101.819 16.4213 103.524 16.0424 105.378 16.0424C107.192 16.0424 108.863 16.4213 110.392 17.1792C111.921 17.9235 113.146 19.0806 114.067 20.6505C115 22.2204 115.467 24.2504 115.467 26.7405C115.467 29.1494 115 31.1388 114.067 32.7087C113.146 34.265 111.921 35.4289 110.392 36.2003C108.863 36.9582 107.192 37.3371 105.378 37.3371ZM105.135 31.6734C105.757 31.6734 106.359 31.511 106.941 31.1862C107.537 30.8614 108.031 30.3404 108.423 29.6231C108.816 28.8923 109.012 27.9314 109.012 26.7405C109.012 24.8864 108.68 23.5805 108.017 22.8226C107.354 22.0647 106.556 21.6858 105.622 21.6858C104.999 21.6858 104.377 21.8482 103.754 22.173C103.145 22.4978 102.638 23.0324 102.232 23.7767C101.839 24.5075 101.643 25.4954 101.643 26.7405C101.643 28.5404 101.988 29.8126 102.678 30.5569C103.382 31.3012 104.201 31.6734 105.135 31.6734ZM131.886 36.6875V25.0353C131.886 23.9797 131.629 23.2015 131.115 22.7008C130.601 22.1865 129.978 21.9294 129.247 21.9294C128.503 21.9294 127.82 22.1392 127.197 22.5587C126.575 22.9782 126.074 23.6549 125.695 24.5887C125.33 25.509 125.147 26.7337 125.147 28.263H123.178C123.178 25.3939 123.516 23.0594 124.193 21.2595C124.883 19.4596 125.817 18.1401 126.994 17.301C128.185 16.4619 129.532 16.0424 131.034 16.0424C132.753 16.0424 134.153 16.4281 135.236 17.1995C136.332 17.9709 137.137 19.0333 137.652 20.3866C138.166 21.7399 138.423 23.2895 138.423 25.0353V36.6875H131.886ZM118.651 36.6875V8.6735H125.147V36.6875H118.651ZM153.427 36.6875L152.595 31.3486V23.8579C152.595 22.8564 152.412 22.0783 152.047 21.5234C151.681 20.9685 150.903 20.6911 149.712 20.6911C149.008 20.6911 148.433 20.7994 147.987 21.0159C147.553 21.2189 147.229 21.4963 147.012 21.8482C146.809 22.1865 146.708 22.5587 146.708 22.9647H139.684C139.684 21.3948 140.056 20.1024 140.8 19.0874C141.545 18.0589 142.661 17.2942 144.15 16.7935C145.639 16.2928 147.493 16.0424 149.712 16.0424C151.647 16.0424 153.312 16.3401 154.706 16.9356C156.113 17.5311 157.196 18.4243 157.954 19.6152C158.712 20.8061 159.091 22.3016 159.091 24.1015V36.6875H153.427ZM147.134 37.3371C145.348 37.3371 143.839 37.0394 142.607 36.4439C141.389 35.8349 140.469 35.0161 139.846 33.9876C139.224 32.9591 138.912 31.8223 138.912 30.5772C138.912 29.3998 139.237 28.3848 139.887 27.5322C140.536 26.6661 141.497 25.9962 142.769 25.5225C144.055 25.0488 145.632 24.812 147.499 24.812C148.636 24.812 149.638 24.8729 150.504 24.9947C151.383 25.1165 152.283 25.2654 153.204 25.4413V29.0953C152.527 28.9464 151.823 28.8314 151.092 28.7502C150.375 28.669 149.671 28.6284 148.981 28.6284C148.02 28.6284 147.256 28.784 146.687 29.0953C146.132 29.393 145.855 29.887 145.855 30.5772C145.855 31.0779 146.105 31.5178 146.606 31.8967C147.107 32.2621 147.899 32.4448 148.981 32.4448C149.902 32.4448 150.626 32.2621 151.153 31.8967C151.681 31.5313 152.053 31.0712 152.27 30.5163C152.486 29.9614 152.595 29.4133 152.595 28.872H154.117C154.117 30.4148 153.874 31.829 153.386 33.1147C152.899 34.4004 152.141 35.4289 151.113 36.2003C150.084 36.9582 148.758 37.3371 147.134 37.3371ZM147.69 13.8297L139.651 7.7397L143.407 4.7556L148.847 9.8509H146.533L151.973 4.7556L155.79 7.7397L147.69 13.8297ZM169.996 37.3371C168.141 37.3371 166.436 36.9582 164.88 36.2003C163.337 35.4289 162.099 34.265 161.165 32.7087C160.245 31.1388 159.785 29.1494 159.785 26.7405C159.785 24.2504 160.245 22.2204 161.165 20.6505C162.099 19.0806 163.337 17.9235 164.88 17.1792C166.436 16.4213 168.141 16.0424 169.996 16.0424C171.809 16.0424 173.48 16.4213 175.01 17.1792C176.539 17.9235 177.764 19.0806 178.684 20.6505C179.618 22.2204 180.085 24.2504 180.085 26.7405C180.085 29.1494 179.618 31.1388 178.684 32.7087C177.764 34.265 176.539 35.4289 175.01 36.2003C173.48 36.9582 171.809 37.3371 169.996 37.3371ZM169.752 31.6734C170.374 31.6734 170.977 31.511 171.559 31.1862C172.154 30.8614 172.648 30.3404 173.041 29.6231C173.433 28.8923 173.629 27.9314 173.629 26.7405C173.629 24.8864 173.298 23.5805 172.635 22.8226C171.971 22.0647 171.173 21.6858 170.239 21.6858C169.617 21.6858 168.994 21.8482 168.372 22.173C167.763 22.4978 167.255 23.0324 166.849 23.7767C166.457 24.5075 166.26 25.4954 166.26 26.7405C166.26 28.5404 166.605 29.8126 167.296 30.5569C167.999 31.3012 168.818 31.6734 169.752 31.6734ZM196.504 36.6875V25.0353C196.504 23.9797 196.247 23.2015 195.732 22.7008C195.218 22.1865 194.596 21.9294 193.865 21.9294C193.121 21.9294 192.437 22.1392 191.815 22.5587C191.192 22.9782 190.691 23.6549 190.312 24.5887C189.947 25.509 189.764 26.7337 189.764 28.263H187.795C187.795 25.3939 188.134 23.0594 188.81 21.2595C189.5 19.4596 190.434 18.1401 191.612 17.301C192.803 16.4619 194.149 16.0424 195.651 16.0424C197.37 16.0424 198.771 16.4281 199.853 17.1995C200.95 17.9709 201.755 19.0333 202.269 20.3866C202.783 21.7399 203.04 23.2895 203.04 25.0353V36.6875H196.504ZM183.268 36.6875V8.6735H189.764V36.6875H183.268ZM213.863 37.3371C212.009 37.3371 210.303 36.9582 208.747 36.2003C207.204 35.4289 205.966 34.265 205.032 32.7087C204.112 31.1388 203.652 29.1494 203.652 26.7405C203.652 24.2504 204.112 22.2204 205.032 20.6505C205.966 19.0806 207.204 17.9235 208.747 17.1792C210.303 16.4213 212.009 16.0424 213.863 16.0424C215.676 16.0424 217.347 16.4213 218.877 17.1792C220.406 17.9235 221.631 19.0806 222.551 20.6505C223.485 22.2204 223.952 24.2504 223.952 26.7405C223.952 29.1494 223.485 31.1388 222.551 32.7087C221.631 34.265 220.406 35.4289 218.877 36.2003C217.347 36.9582 215.676 37.3371 213.863 37.3371ZM213.619 31.6734C214.242 31.6734 214.844 31.511 215.426 31.1862C216.021 30.8614 216.515 30.3404 216.908 29.6231C217.3 28.8923 217.496 27.9314 217.496 26.7405C217.496 24.8864 217.165 23.5805 216.502 22.8226C215.838 22.0647 215.04 21.6858 214.106 21.6858C213.484 21.6858 212.861 21.8482 212.239 22.173C211.63 22.4978 211.122 23.0324 210.716 23.7767C210.324 24.5075 210.127 25.4954 210.127 26.7405C210.127 28.5404 210.472 29.8126 211.163 30.5569C211.866 31.3012 212.685 31.6734 213.619 31.6734ZM222.304 16.692H229.104L232.637 30.3133H232.068L235.235 17.8897H241.366L244.573 30.3539H243.964L247.496 16.692H253.992L247.374 36.6875H240.96L237.651 24.9338H238.645L235.479 36.6875H228.983L222.304 16.692Z" fill="black"/>
</svg>
