<svg width="187" height="48" viewBox="0 0 187 48" fill="none" xmlns="http://www.w3.org/2000/svg">
<path fill-rule="evenodd" clip-rule="evenodd" d="M32.027 5.76184C31.8175 5.69413 31.6919 5.67478 31.3503 5.66511C31.1215 5.65866 30.867 5.66833 30.7864 5.68445C30.7059 5.7038 30.5544 5.74572 30.4481 5.78119C30.3417 5.81666 30.1903 5.89083 30.1097 5.94242C30.0292 5.99402 29.8519 6.15202 29.7134 6.28745C29.5748 6.42611 29.4008 6.61959 29.3267 6.71633C29.2526 6.81306 29.1785 6.9098 29.1592 6.93237C29.143 6.95172 29.0786 7.03879 29.0206 7.12585C28.9943 7.16383 28.9489 7.23026 28.895 7.30895C28.83 7.40399 28.7528 7.51691 28.6823 7.61922C28.5534 7.80624 28.3052 8.18352 28.128 8.45761C27.9508 8.7317 27.7993 8.96387 27.7865 8.97355C27.7768 8.98322 27.7091 9.07996 27.6415 9.1896C27.6241 9.2173 27.5911 9.27009 27.5463 9.34188C27.4086 9.56251 27.1588 9.96271 26.9036 10.3666C26.5684 10.8986 26.214 11.4629 26.1205 11.6145C26.0617 11.7067 25.9694 11.8551 25.8757 12.0059C25.8155 12.1028 25.7546 12.2007 25.7016 12.2852C25.6069 12.4351 25.2969 12.9301 24.9197 13.5321C24.7452 13.8108 24.5562 14.1125 24.3676 14.4135C23.7715 15.3679 23.1754 16.3289 23.0432 16.5514C22.9111 16.7739 22.7275 17.106 22.634 17.293C22.5406 17.4801 22.4181 17.7541 22.3569 17.9057C22.2989 18.0573 22.228 18.312 22.199 18.47C22.1571 18.6893 22.1474 18.857 22.1603 19.1472C22.17 19.3697 22.2055 19.6244 22.2377 19.7437C22.2699 19.8598 22.3537 20.0597 22.4246 20.1919C22.4955 20.3241 22.634 20.5144 22.7307 20.6144C22.8274 20.7176 22.9852 20.8369 23.0787 20.8852C23.1689 20.9304 23.3365 20.9916 23.4493 21.0174C23.5814 21.0497 23.823 21.0658 24.1807 21.0658C24.4739 21.0658 25.0894 21.0368 25.5502 20.9981C26.1141 20.9529 26.5555 20.9368 26.9036 20.9465C27.3321 20.9562 27.4513 20.9691 27.6125 21.0303C27.7188 21.069 27.8638 21.1496 27.9347 21.2077C28.0056 21.2657 28.0958 21.3754 28.1345 21.456C28.1731 21.5334 28.2279 21.6849 28.2537 21.7913C28.2827 21.8978 28.3181 22.0848 28.3375 22.2105C28.3536 22.3363 28.3697 22.6362 28.3697 22.878C28.3697 23.1618 28.3504 23.4133 28.3181 23.5713C28.2891 23.71 28.2279 23.9002 28.1828 23.997C28.1345 24.0937 28.0314 24.2291 27.9508 24.3001C27.8702 24.371 27.7059 24.4774 27.5802 24.5355C27.4578 24.5935 27.2387 24.6677 27.0969 24.7032C26.9551 24.7386 26.6522 24.8063 26.4202 24.8515C26.3858 24.8578 26.3473 24.8649 26.3056 24.8726C26.0698 24.9159 25.7346 24.9776 25.5019 25.0159C25.228 25.0643 24.8832 25.132 24.7382 25.1643C24.5899 25.1965 24.3515 25.2707 24.2065 25.3287C24.0583 25.3868 23.8746 25.4803 23.794 25.5416C23.7135 25.6028 23.5878 25.7125 23.5105 25.7866C23.4331 25.8576 23.3075 26.0123 23.2301 26.1284C23.1528 26.2445 23.0432 26.4477 22.9852 26.5799C22.9305 26.7121 22.8564 26.9152 22.8209 27.0313C22.7887 27.1474 22.7307 27.3796 22.6952 27.5473C22.6599 27.7143 22.5478 28.3296 22.4418 28.9114L22.4407 28.9177C22.3343 29.5014 22.1893 30.214 22.1217 30.4978C22.0508 30.7815 21.9348 31.1814 21.8671 31.3845C21.7962 31.5877 21.6705 31.923 21.59 32.1262C21.5062 32.3293 21.2645 32.8453 21.0551 33.2709C20.8456 33.6966 20.604 34.1674 20.5234 34.3189C20.4396 34.4705 20.2495 34.7962 20.1045 35.0445C19.9563 35.2928 19.7436 35.6346 19.6308 35.8022C19.5181 35.9699 19.3408 36.2247 19.2345 36.3665C19.1282 36.5052 18.9187 36.7503 18.7673 36.9083C18.6158 37.0663 18.3935 37.263 18.2678 37.3468C18.1228 37.4436 17.9359 37.5306 17.7522 37.5887C17.5943 37.637 17.3462 37.7402 17.2045 37.8112C17.0627 37.8853 16.8629 38.0272 16.7566 38.124C16.6534 38.2207 16.5117 38.3819 16.4472 38.4787C16.3828 38.5754 16.2958 38.7173 16.2571 38.7915C16.2217 38.8688 16.1701 38.9914 16.1443 39.0655C16.1185 39.1429 16.0799 39.2913 16.0573 39.3977C16.0348 39.5041 16.0154 39.7588 16.0186 39.962C16.0219 40.2264 16.0412 40.407 16.0895 40.5908C16.125 40.7327 16.2055 40.9519 16.2668 41.0745C16.328 41.197 16.4537 41.3873 16.5439 41.4937C16.6341 41.6001 16.7791 41.7452 16.8661 41.8161C16.9499 41.8871 17.1207 41.9999 17.2431 42.0676C17.3623 42.1354 17.5653 42.2257 17.6878 42.2676C17.8135 42.3095 18.0648 42.3611 18.2517 42.3837C18.5481 42.4191 18.6384 42.4159 18.9606 42.3675C19.1636 42.3353 19.4343 42.274 19.5567 42.2289C19.6824 42.1837 19.8854 42.0967 20.0078 42.0322C20.1335 41.9709 20.3655 41.8322 20.5234 41.7226C20.6845 41.6162 20.9165 41.4421 21.039 41.3324C21.1646 41.226 21.3677 41.0358 21.4901 40.91C21.6158 40.7843 21.8381 40.5456 21.9928 40.378C22.1442 40.2103 22.3762 39.9459 22.5083 39.7846C22.6437 39.6234 22.9466 39.2461 23.185 38.9462C23.4235 38.6463 23.765 38.2013 23.9423 37.9627C24.1195 37.7241 24.2999 37.4758 24.3451 37.4113C24.3765 37.363 24.4459 37.2602 24.5154 37.1574C24.5386 37.1231 24.5617 37.0889 24.5835 37.0566C24.6943 36.8942 24.8199 36.7138 24.9283 36.56L24.9466 36.534C25.0476 36.3908 25.1397 36.26 25.2795 36.0441C25.431 35.8151 25.6372 35.4798 25.7403 35.3024C25.7741 35.2443 25.8072 35.1872 25.837 35.1359C25.8981 35.0304 25.9454 34.9489 25.9562 34.9316C25.9645 34.9183 25.9899 34.8733 26.0245 34.8121C26.057 34.7546 26.0977 34.6826 26.1399 34.6091C26.2269 34.4576 26.3815 34.1641 26.4814 33.9545C26.5813 33.7482 26.6619 33.5547 26.6619 33.5289C26.6619 33.5031 26.6748 33.4773 26.6877 33.4709C26.7005 33.4676 26.7457 33.3838 26.7875 33.2871C26.8294 33.1903 26.8681 33.0742 26.8746 33.0291C26.8778 32.9839 26.8971 32.942 26.9132 32.9323C26.9326 32.9227 27.0196 32.6969 27.1098 32.4325C27.1968 32.1649 27.3031 31.8328 27.3418 31.6909C27.3805 31.549 27.4449 31.2813 27.4836 31.0943C27.5255 30.9073 27.577 30.6912 27.5996 30.6106C27.6286 30.5203 27.6962 30.4139 27.78 30.3269C27.8896 30.2205 27.9734 30.1753 28.1699 30.114C28.3052 30.0721 28.5147 30.0173 28.6339 29.9915C28.78 29.9636 28.8638 29.9603 28.8853 29.9818C28.9046 30.0012 28.9304 30.4945 28.9497 31.2556C28.969 31.9392 28.9819 33.6418 28.9787 35.0445C28.9787 36.6535 28.9884 37.6499 29.0077 37.7531C29.027 37.8402 29.0786 38.0079 29.1237 38.124C29.1688 38.24 29.2784 38.4432 29.3686 38.5754C29.4556 38.7076 29.6199 38.9108 29.7295 39.0236C29.8423 39.1365 30.026 39.2913 30.142 39.3654C30.258 39.4428 30.432 39.5396 30.5286 39.5815C30.6253 39.6266 30.838 39.6943 30.9959 39.7363C31.215 39.7911 31.3761 39.8072 31.6564 39.804C31.8594 39.804 32.1011 39.7911 32.1881 39.7717C32.2783 39.7556 32.4298 39.7105 32.5265 39.6718C32.6231 39.6331 32.7681 39.5621 32.8487 39.517C32.9292 39.4718 33.0742 39.3719 33.1709 39.2977C33.2676 39.2235 33.4738 39.0333 33.6253 38.8753C33.7767 38.7205 34.0313 38.44 34.1892 38.2562C34.347 38.0724 34.4985 37.9111 34.5243 37.8982C34.5501 37.8821 34.8497 37.8563 35.1848 37.837C35.5232 37.8176 35.9711 37.7854 36.1838 37.7692C36.3964 37.7499 36.709 37.7209 36.8765 37.7015C37.0441 37.6822 37.3921 37.6338 37.6499 37.5919C37.9077 37.5468 38.2267 37.4855 38.3588 37.45C38.4909 37.4145 38.71 37.3436 38.8421 37.2888C38.9743 37.234 39.1644 37.1405 39.261 37.0824C39.3577 37.0276 39.5543 36.8631 39.6961 36.7213C39.8733 36.5471 39.9957 36.3923 40.0731 36.2376C40.1375 36.1118 40.2438 35.8667 40.3083 35.6894L40.3233 35.648C40.3839 35.4815 40.4486 35.3034 40.4694 35.2379C40.492 35.167 40.5725 34.9123 40.6434 34.6736C40.7175 34.435 40.8045 34.1448 40.8367 34.0287C40.8722 33.9126 40.956 33.5805 41.0269 33.2871C41.0978 32.9936 41.1848 32.6163 41.2202 32.4487C41.2573 32.2878 41.3122 31.9993 41.3507 31.7967L41.3555 31.7715C41.3872 31.5902 41.4265 31.3782 41.446 31.2727L41.4522 31.2394C41.4683 31.1491 41.4973 30.9782 41.5134 30.8525C41.5189 30.8171 41.5263 30.7696 41.535 30.7145C41.5571 30.5736 41.5869 30.3837 41.6101 30.2237C41.6455 30.0012 41.6874 29.7045 41.7068 29.5626C41.7261 29.4208 41.7551 29.1531 41.7744 28.9661C41.7938 28.7791 41.8228 28.4985 41.8389 28.3373C41.855 28.1761 41.884 27.8214 41.9033 27.5473C41.906 27.5021 41.9091 27.4503 41.9124 27.3936C41.9296 27.1055 41.9543 26.6908 41.9678 26.3864C41.9871 26.022 42 25.5803 42 25.4029C42 25.1836 41.9807 24.9998 41.9355 24.8225C41.8969 24.6806 41.826 24.4839 41.7744 24.3871C41.7229 24.2904 41.594 24.1098 41.4909 23.9841C41.3878 23.8583 41.1815 23.6648 41.0301 23.552C40.8819 23.4391 40.6627 23.2972 40.5435 23.2392C40.4211 23.1779 40.2471 23.1005 40.1568 23.0651C40.0634 23.0328 39.8636 22.9748 39.7122 22.9361C39.5317 22.8942 39.3287 22.8716 39.1096 22.8716C38.9259 22.8716 38.594 22.9006 38.3685 22.9361C38.1397 22.9715 37.6596 23.0618 37.2954 23.1328C36.9313 23.2037 36.4029 23.3134 36.1193 23.3746C36.07 23.3858 36.0168 23.3979 35.9614 23.4105C35.6981 23.4704 35.3847 23.5416 35.201 23.5842C34.9786 23.6358 34.7788 23.6713 34.7595 23.6616C34.7369 23.6519 34.7176 23.6068 34.7176 23.5552C34.7176 23.5068 34.7337 23.423 34.7498 23.3714C34.766 23.3198 34.8272 23.0844 34.882 22.8555C34.94 22.6265 35.0592 22.2105 35.1526 21.9365C35.2428 21.6624 35.3621 21.3431 35.4136 21.227C35.4652 21.111 35.5715 20.9014 35.6489 20.7595C35.7391 20.5982 35.8712 20.4209 36.0033 20.2919C36.1225 20.1758 36.2901 20.0436 36.3771 19.9952C36.4673 19.9501 36.7348 19.8437 36.9732 19.7598C37.2117 19.676 37.4662 19.5793 37.5371 19.5438C37.608 19.5051 37.7466 19.4213 37.8432 19.3568C37.9399 19.2891 38.072 19.1794 38.1365 19.1085C38.2009 19.0408 38.3234 18.886 38.4071 18.7602C38.4909 18.6345 38.6391 18.3765 38.7358 18.1798C38.8357 17.9831 38.9775 17.6735 39.0548 17.4865C39.1289 17.2995 39.2288 17.0093 39.2707 16.8416C39.3158 16.6739 39.3609 16.4192 39.3738 16.2773C39.3867 16.1289 39.3803 15.9258 39.3609 15.8C39.3416 15.6807 39.2868 15.4937 39.2417 15.3808C39.1966 15.2712 39.0903 15.0809 39.0065 14.9584C38.9259 14.8359 38.7423 14.6263 38.6005 14.4973C38.4587 14.3651 38.2267 14.1813 38.0849 14.0878C37.9431 13.9943 37.7111 13.8588 37.5693 13.7879C37.4276 13.7137 37.2181 13.6234 37.1021 13.5847C36.9313 13.5267 36.8508 13.517 36.6671 13.5331C36.5447 13.5428 35.9775 13.6492 35.4104 13.7653C34.8433 13.8814 34.1537 14.0168 33.8798 14.0684C33.6059 14.12 33.2386 14.1748 33.0678 14.1942C32.8938 14.2135 32.6553 14.2297 32.5361 14.2297C32.4137 14.2297 32.23 14.2135 32.1237 14.1942C32.0173 14.1748 31.8755 14.1297 31.8111 14.0974C31.7434 14.0652 31.679 14.0104 31.6693 13.9781C31.6564 13.9491 31.6661 13.8943 31.6887 13.8588C31.7069 13.8337 31.7934 13.6867 31.9053 13.4964C31.9512 13.4185 32.0013 13.3333 32.0528 13.2461C32.0802 13.1992 32.1108 13.1469 32.1436 13.0909C32.3222 12.7856 32.5661 12.3687 32.7295 12.0853C32.9228 11.7499 33.2031 11.2404 33.3481 10.9567C33.5383 10.5859 33.6317 10.3537 33.6897 10.1344C33.7638 9.84097 33.767 9.78292 33.767 8.78007C33.767 7.85139 33.7606 7.70628 33.7058 7.50635C33.6736 7.38059 33.5995 7.18712 33.5415 7.07103C33.4867 6.95495 33.3836 6.78082 33.3127 6.68408C33.2386 6.58734 33.0807 6.41321 32.9582 6.30035C32.8358 6.19072 32.636 6.03916 32.5103 5.97144C32.3879 5.9005 32.1688 5.80699 32.027 5.76184ZM35.1526 28.0696C35.2235 28.0341 35.5006 27.9438 35.7649 27.8729C36.0323 27.7987 36.4866 27.6891 36.7799 27.6278C37.0731 27.5698 37.3341 27.5182 37.3599 27.5182C37.3857 27.5149 37.463 27.5311 37.5307 27.5472C37.6209 27.573 37.6692 27.6117 37.7272 27.7149C37.7723 27.7923 37.8175 27.9245 37.8271 28.0148C37.84 28.1018 37.8336 28.3211 37.811 28.4984C37.7917 28.6758 37.7337 29.0821 37.6821 29.4013C37.6306 29.7206 37.5274 30.2655 37.4566 30.6106C37.3857 30.9556 37.3116 31.291 37.2954 31.3522C37.2793 31.4135 37.2213 31.6521 37.1665 31.8843C37.1118 32.1132 37.0087 32.5002 36.9378 32.7388C36.8636 32.9774 36.767 33.2451 36.7219 33.3321C36.6671 33.4289 36.5769 33.5288 36.4899 33.5869C36.4093 33.6417 36.2418 33.7191 36.1193 33.761C35.9969 33.8029 35.7649 33.8577 35.6037 33.8835C35.4458 33.9093 35.2428 33.9319 35.1526 33.9319C35.0656 33.9319 34.9561 33.9126 34.9142 33.89C34.8691 33.8706 34.8046 33.7997 34.7692 33.7384C34.7015 33.6256 34.7015 33.5901 34.7015 31.1106V31.1104C34.7015 28.7951 34.7047 28.5823 34.7595 28.4404C34.7917 28.3469 34.8562 28.2598 34.9206 28.2115C34.9754 28.1695 35.0817 28.105 35.1526 28.0696Z" fill="black"/>
<path fill-rule="evenodd" clip-rule="evenodd" d="M18.9928 16.3419C19.7372 16.3483 19.879 16.358 20.1045 16.4161C20.2463 16.4548 20.4429 16.516 20.5428 16.5579C20.6394 16.5999 20.8199 16.6902 20.9391 16.7611C21.0615 16.832 21.2549 16.9868 21.3741 17.1061C21.4901 17.2254 21.6416 17.4157 21.7092 17.5253C21.7769 17.6382 21.8607 17.8284 21.8993 17.9542C21.9606 18.1606 21.967 18.2283 21.9477 18.7281C21.938 19.028 21.8993 19.5214 21.8607 19.8245C21.8252 20.1244 21.7382 20.8144 21.6673 21.3562C21.5932 21.8979 21.5062 22.5557 21.4708 22.8233C21.4353 23.0878 21.3548 23.6037 21.2935 23.9681C21.2323 24.3325 21.1292 24.8677 21.068 25.1612C21.0035 25.4546 20.9101 25.8609 20.8553 26.0641C20.8005 26.2672 20.7039 26.5961 20.6362 26.7896C20.5685 26.9831 20.4815 27.2249 20.4429 27.3217C20.4042 27.4184 20.285 27.6732 20.1754 27.886C20.0659 28.0988 19.8918 28.4019 19.7855 28.5631C19.6824 28.7244 19.4858 28.9985 19.3537 29.1758C19.2216 29.3532 18.9864 29.6498 18.8349 29.8369C18.6835 30.0239 18.3838 30.3721 18.1711 30.6108C17.9585 30.8494 17.604 31.2331 17.3817 31.4621C17.1593 31.691 16.7243 32.1199 16.415 32.4133C16.1024 32.7068 15.6545 33.1163 15.4161 33.3194C15.1776 33.5258 14.8006 33.8386 14.5783 34.0159C14.356 34.1933 13.9371 34.519 13.6438 34.7415C13.3506 34.9608 12.8093 35.3445 12.4355 35.5928C12.0649 35.8411 11.5848 36.1474 11.3721 36.2764C11.1594 36.4021 10.7985 36.6117 10.5665 36.7407C10.3378 36.8697 9.82863 37.1309 9.43873 37.3212C9.04883 37.5114 8.55582 37.7371 8.34315 37.8274C8.13048 37.9177 7.7857 38.0564 7.57947 38.137C7.37002 38.2176 7.18957 38.2853 7.17668 38.2853C7.16057 38.2853 7.0639 38.3208 6.95757 38.3627C6.85123 38.4046 6.58378 38.4949 6.36144 38.5594C6.1391 38.6271 5.72021 38.7368 5.42698 38.8045C5.13375 38.8722 4.71485 38.956 4.49251 38.9915C4.27017 39.0302 3.95117 39.0624 3.78361 39.0689C3.61605 39.0721 3.4066 39.0624 3.31638 39.0495C3.22937 39.0366 3.06181 39.0012 2.94581 38.9754C2.82981 38.9496 2.5978 38.8819 2.43024 38.827C2.26269 38.7722 1.98557 38.6594 1.81801 38.5723C1.65045 38.4885 1.45389 38.3724 1.383 38.3176C1.31211 38.2627 1.28423 38.2483 1.238 38.2208C1.19176 38.1933 0.825793 37.8942 0.764319 37.8339C0.723316 37.7936 0.642907 37.6921 0.616094 37.663C0.589281 37.6338 0.47209 37.4989 0.438868 37.4469C0.405645 37.395 0.306754 37.2567 0.239085 37.1245C0.171417 36.9923 0.09086 36.7956 0.0618594 36.6891C0.0264141 36.5763 0.00385808 36.3796 0.00063579 36.2119C-0.0025865 36.0249 0.00648116 35.9951 0.0268461 35.8775C0.0472111 35.7599 0.121393 35.5727 0.158528 35.496C0.210085 35.3896 0.326087 35.2284 0.416312 35.1381C0.51298 35.0381 0.670873 34.9285 0.819098 34.8576C0.951212 34.7898 1.16388 34.7157 1.28633 34.6899C1.412 34.6641 1.82445 34.6222 2.20468 34.5931C2.58491 34.5673 3.01992 34.5287 3.17137 34.5093C3.32282 34.4932 3.61283 34.448 3.81583 34.4126C4.01884 34.3771 4.35395 34.3062 4.55696 34.2546C4.75996 34.203 5.09508 34.103 5.29809 34.0321C5.50109 33.9611 5.80076 33.8515 5.95865 33.7838C6.11977 33.7161 6.49678 33.5387 6.79645 33.3839C7.09935 33.2291 7.61169 32.9454 7.94037 32.7455C8.26904 32.5488 8.8265 32.194 9.18095 31.9586C9.5354 31.7233 10.1025 31.3266 10.4376 31.0783C10.776 30.83 11.3463 30.3883 11.7104 30.0981C12.0746 29.8046 12.5579 29.3983 12.7899 29.1952C13.0187 28.9888 13.4022 28.6341 13.6438 28.4051C13.8823 28.1762 14.0821 27.9763 14.0885 27.9601C14.0917 27.9472 14.0466 27.886 13.9918 27.8279C13.9338 27.7699 13.7727 27.6764 13.6374 27.6183C13.4988 27.5635 13.2797 27.499 13.154 27.4797C12.9865 27.4571 12.661 27.4539 12.0488 27.4764C11.5719 27.4958 11.1723 27.5055 11.1627 27.499C11.153 27.4926 10.8791 27.5055 10.5504 27.5313C10.2217 27.5571 9.79641 27.5925 9.59985 27.6119C9.40651 27.628 8.78138 27.6957 8.21426 27.7602C7.64714 27.8247 6.98012 27.8827 6.73201 27.8924C6.36144 27.9085 6.24544 27.9021 6.08755 27.8537C5.98121 27.8247 5.80721 27.7505 5.70087 27.6925C5.59454 27.6312 5.43342 27.5151 5.34642 27.4281C5.2562 27.3442 5.14019 27.2153 5.08541 27.1443C5.02741 27.0734 4.95974 26.9573 4.93074 26.8863C4.90174 26.8154 4.85663 26.651 4.83085 26.522C4.80507 26.3962 4.78252 26.1995 4.78252 26.0866C4.78252 25.977 4.79541 25.8061 4.81474 25.7094C4.83407 25.6126 4.89852 25.4256 4.95974 25.2966C5.03063 25.1483 5.13375 25.0032 5.24331 24.9C5.34964 24.7936 5.50431 24.6904 5.66865 24.613C5.83299 24.5356 6.12299 24.4421 6.47422 24.3583C6.77712 24.2873 7.33457 24.1712 7.7148 24.0971C8.09504 24.0261 8.60416 23.9391 8.84261 23.9068C9.08106 23.8713 9.59662 23.8069 9.98652 23.7617C10.3764 23.7166 10.9339 23.665 11.2271 23.6456C11.5203 23.6263 11.9843 23.6005 12.2582 23.5844C12.5321 23.5682 13.0413 23.5521 13.386 23.5489C13.7308 23.5424 14.3688 23.536 14.8038 23.5328C15.3774 23.5263 15.6642 23.5102 15.8511 23.4715C15.9929 23.4425 16.1669 23.3844 16.2378 23.3425C16.3087 23.3006 16.3989 23.22 16.4376 23.1587C16.4762 23.0974 16.5278 22.962 16.5568 22.8556C16.5826 22.7492 16.6406 22.4074 16.6857 22.0978C16.7308 21.7883 16.7888 21.3142 16.8146 21.0498C16.8403 20.7822 16.8726 20.4049 16.8854 20.2114C16.9016 19.8986 16.8983 19.8503 16.85 19.8083C16.8017 19.7664 16.7211 19.7632 16.3215 19.7858C16.0638 19.7987 15.6255 19.8245 15.3516 19.8438C15.0777 19.8599 14.4977 19.9019 14.0627 19.9373C13.6277 19.976 13.0348 20.0341 12.7416 20.0663C12.4484 20.1018 11.9425 20.1695 11.6138 20.2146C11.2851 20.2598 10.7566 20.3372 10.4376 20.392C10.1186 20.4468 9.59018 20.5468 9.26151 20.6145C8.93283 20.6822 8.25615 20.8338 7.75669 20.9499C7.25402 21.0659 6.71912 21.1852 6.56445 21.211C6.40655 21.2401 6.14233 21.2626 5.97477 21.2626C5.80721 21.2626 5.59776 21.2465 5.50753 21.2272C5.42053 21.2078 5.25942 21.1433 5.15308 21.0885C5.04675 21.0337 4.87274 20.8983 4.76963 20.7918C4.65685 20.679 4.54407 20.5274 4.50218 20.4275C4.46029 20.3372 4.41195 20.163 4.39262 20.0405C4.36684 19.8664 4.37006 19.7761 4.41195 19.5826C4.43773 19.4504 4.50218 19.2634 4.55051 19.1699C4.59885 19.0764 4.70196 18.9345 4.78252 18.8506C4.86308 18.77 4.98552 18.6701 5.05641 18.6281C5.1273 18.5862 5.30775 18.5088 5.4592 18.4508C5.61065 18.396 5.94254 18.2863 6.20033 18.2057C6.45811 18.1283 6.97368 17.9864 7.34424 17.8897C7.71803 17.793 8.31093 17.6511 8.66538 17.5705C9.01983 17.4899 9.57729 17.3738 9.90596 17.3125C10.2346 17.248 10.8082 17.148 11.1788 17.0868C11.5526 17.0255 12.168 16.9288 12.5482 16.8772C12.9285 16.8224 13.5826 16.7417 13.9983 16.6966C14.414 16.6515 15.11 16.5805 15.545 16.5386C15.98 16.4935 16.5729 16.4419 16.8661 16.4225C17.1593 16.4032 17.5654 16.3741 17.7684 16.358C17.9714 16.3451 18.5224 16.3354 18.9928 16.3419Z" fill="black"/>
<path fill-rule="evenodd" clip-rule="evenodd" d="M20.4042 5.59435C20.9198 5.59113 21.3129 5.6008 21.4192 5.62338C21.5094 5.64272 21.677 5.70077 21.7898 5.75236C21.9058 5.80718 22.054 5.91037 22.1442 6.00065C22.228 6.08772 22.3472 6.25862 22.4149 6.38116C22.4793 6.50369 22.5502 6.66815 22.5696 6.74876C22.5921 6.82938 22.605 7.03898 22.605 7.21633C22.6018 7.39691 22.5718 7.52196 22.5663 7.55491C22.5609 7.58787 22.5349 7.68189 22.5148 7.74839C22.4947 7.81489 22.46 7.8806 22.4342 7.94187C22.4052 8.00313 22.3279 8.11922 22.257 8.19983C22.1861 8.28045 22.0379 8.39331 21.9219 8.45135C21.8091 8.51262 21.5932 8.58679 21.4418 8.62226C21.2903 8.65773 20.9423 8.72222 20.6684 8.76736C20.3945 8.81251 19.7694 8.90602 19.2828 8.97696C18.7963 9.0479 17.9198 9.18656 17.3333 9.2833C16.7501 9.38004 16.1024 9.49612 15.8994 9.54127C15.6964 9.58319 15.458 9.65735 15.3677 9.7025C15.2807 9.74764 15.1583 9.83148 15.1003 9.88952C15.0423 9.94434 14.9488 10.054 14.8973 10.1346C14.8167 10.2539 14.8038 10.2991 14.82 10.3926C14.8328 10.4571 14.9005 10.5764 14.9778 10.6667C15.0616 10.7634 15.1841 10.8634 15.2904 10.9149C15.3871 10.9633 15.5869 11.031 15.7383 11.0665C15.8898 11.102 16.0734 11.1342 16.1508 11.1342C16.2249 11.1342 16.5503 11.1052 16.8758 11.0697C17.198 11.0343 17.7232 10.9923 18.0422 10.973C18.3613 10.9569 19.2667 10.9246 20.0562 10.9053C20.8456 10.8859 21.8542 10.8763 22.2957 10.8859C22.7403 10.8988 23.1754 10.9214 23.2624 10.9407C23.3526 10.9601 23.4976 11.0085 23.5846 11.0504C23.6748 11.0923 23.8102 11.1826 23.8907 11.2535C23.9713 11.3245 24.0904 11.5019 24.1163 11.5405C24.1982 11.6629 24.2452 11.7643 24.2645 11.892C24.2838 12.0197 24.2838 12.2209 24.2838 12.4241C24.2806 12.6272 24.2691 12.749 24.2457 12.8957C24.2139 13.0949 24.0874 13.2743 24.0362 13.3363C23.985 13.3982 23.8553 13.5333 23.7554 13.6333C23.6523 13.73 23.5105 13.8397 23.4396 13.8751C23.3687 13.9106 23.2269 13.9622 23.127 13.988C23.0239 14.017 22.7532 14.0525 22.5212 14.0686C22.2924 14.0847 21.7028 14.1138 21.2162 14.1331C20.7296 14.1525 19.9305 14.1879 19.4439 14.2137C18.9574 14.2427 18.2904 14.2847 17.9617 14.3105C17.633 14.3395 17.0691 14.3878 16.705 14.4233C16.3409 14.4588 15.748 14.5265 15.3839 14.5716C15.0197 14.6168 14.5203 14.6813 14.2722 14.7168C14.024 14.7522 13.6341 14.8103 13.4021 14.8457C13.1734 14.8812 12.6223 14.9747 12.1777 15.0553C11.7362 15.136 11.0982 15.2585 10.7599 15.3294C10.4247 15.4004 9.74806 15.5552 9.2615 15.668C8.77493 15.7841 8.18847 15.9292 7.95647 15.9905C7.72768 16.055 7.31201 16.1711 7.03811 16.2484C6.76422 16.3291 6.15521 16.5225 5.68475 16.6773C5.2143 16.8353 4.51828 17.0836 4.13805 17.2287C3.75782 17.3738 3.2487 17.5705 3.01025 17.664C2.7718 17.7576 2.51724 17.8511 2.44635 17.8704C2.37546 17.8898 2.24656 17.9059 2.15634 17.9059C2.06934 17.9059 1.90822 17.8833 1.80189 17.8543C1.69555 17.8285 1.45066 17.7285 1.2541 17.6318C1.06076 17.5351 0.812644 17.3867 0.706309 17.3029C0.561305 17.1836 0.500082 17.1094 0.45497 16.9869C0.400191 16.8482 0.396968 16.7676 0.409858 16.3903C0.422747 16.084 0.448525 15.8841 0.49686 15.7132C0.535527 15.5809 0.612862 15.3713 0.670863 15.2456C0.728865 15.1198 0.841645 14.9457 0.931869 14.849C1.02209 14.7522 1.1671 14.6361 1.2541 14.5878C1.34432 14.5394 1.56666 14.4298 1.75355 14.3427C1.94045 14.2589 2.3529 14.0847 2.67191 13.9557C2.99091 13.8268 3.58704 13.6043 3.99305 13.4624C4.40228 13.3205 5.04674 13.1077 5.42697 12.9884C5.8072 12.8691 6.13587 12.7594 6.15198 12.7465C6.17132 12.7304 6.27121 12.6982 6.37754 12.6691C6.48388 12.6401 6.76744 12.5627 7.00589 12.5015C7.24434 12.4402 7.54401 12.3596 7.66646 12.3241C7.79213 12.2886 8.03702 12.208 8.21425 12.1467C8.39148 12.0823 8.69759 11.9533 8.89093 11.8598C9.15838 11.7275 9.28405 11.6469 9.40005 11.5244C9.48383 11.4341 9.58373 11.2922 9.61917 11.2052C9.67395 11.0859 9.68684 11.0085 9.67717 10.8376C9.6675 10.6634 9.64817 10.6086 9.58373 10.5409C9.53861 10.4925 9.45161 10.4377 9.39039 10.4184C9.32916 10.3958 9.17772 10.3829 9.05205 10.3829C8.9296 10.3829 8.71693 10.4022 8.58481 10.4216C8.4527 10.4377 8.26259 10.4635 8.16592 10.4732C8.06925 10.4829 7.63424 10.5409 7.19923 10.6022C6.76422 10.6602 6.17776 10.7344 5.8942 10.7634C5.61064 10.7924 5.22074 10.815 5.02418 10.815C4.74062 10.8182 4.63428 10.8053 4.4925 10.7505C4.39583 10.7118 4.24761 10.6312 4.16383 10.5699C4.07683 10.5086 3.95438 10.3893 3.88671 10.3023C3.81904 10.2184 3.73204 10.0508 3.69015 9.925C3.63537 9.76377 3.61282 9.62511 3.61282 9.44131C3.61282 9.28652 3.63537 9.10595 3.6676 8.98986C3.69982 8.88345 3.75782 8.73189 3.79971 8.65128C3.83838 8.57066 3.9286 8.432 3.99949 8.34494C4.07038 8.25465 4.19605 8.13857 4.28628 8.08052C4.37972 8.01926 4.60206 7.93219 4.83084 7.8677C5.04351 7.80643 5.53653 7.68067 5.92642 7.59361C6.31632 7.50332 6.97689 7.36144 7.39257 7.28082C7.80824 7.19698 8.46881 7.07445 9.56761 6.89064L9.85762 6.6746C10.0187 6.55529 10.2797 6.39406 10.4376 6.31344C10.5987 6.23605 10.8694 6.13609 11.0499 6.09417C11.2271 6.04902 11.4752 5.99743 11.5977 5.97486C11.7491 5.94906 12.0327 5.93939 12.4516 5.94906C12.8544 5.95873 13.2636 5.99098 14.111 6.11029L15.2711 5.97808C15.9091 5.90392 16.8146 5.8104 17.285 5.76526C17.7555 5.72334 18.3709 5.67175 18.6545 5.6524C18.938 5.63305 19.2571 5.6137 19.3634 5.61048C19.4697 5.60403 19.937 5.59758 20.4042 5.59435Z" fill="black"/>
<path d="M57.2683 37V9.7574H67.7228C70.8625 9.7574 73.3527 10.5153 75.1932 12.031C77.0337 13.5332 77.954 15.7594 77.954 18.7097C77.954 21.6464 77.0337 23.8794 75.1932 25.4087C73.3527 26.9244 70.8625 27.6823 67.7228 27.6823H63.8049V37H57.2683ZM63.8049 21.9983H67.7228C68.9002 21.9983 69.7866 21.6735 70.3821 21.0239C70.9911 20.3608 71.2956 19.5894 71.2956 18.7097C71.2956 17.8165 70.9911 17.0383 70.3821 16.3752C69.7866 15.7121 68.9002 15.3805 67.7228 15.3805H63.8049V21.9983ZM81.5826 14.4264C80.3511 14.4264 79.397 14.1151 78.7203 13.4926C78.0572 12.8565 77.7256 11.9633 77.7256 10.813C77.7256 9.68973 78.0572 8.79653 78.7203 8.1334C79.397 7.45673 80.3511 7.1184 81.5826 7.1184C82.7736 7.1184 83.7141 7.45673 84.4043 8.1334C85.0945 8.79653 85.4396 9.68973 85.4396 10.813C85.4396 11.9633 85.0945 12.8565 84.4043 13.4926C83.7141 14.1151 82.7736 14.4264 81.5826 14.4264ZM78.3346 37V16.8827H84.8306V37H78.3346ZM101.066 37V25.3478C101.066 24.2922 100.808 23.514 100.294 23.0133C99.7799 22.499 99.1574 22.2419 98.4266 22.2419C97.6822 22.2419 96.9988 22.4517 96.3763 22.8712C95.7537 23.2907 95.253 23.9674 94.8741 24.9012C94.5087 25.8215 94.326 27.0462 94.326 28.5755H92.3569C92.3569 25.7064 92.6952 23.3719 93.3719 21.572C94.0621 19.7721 94.9959 18.4526 96.1733 17.6135C97.3642 16.7744 98.7108 16.3549 100.213 16.3549C101.932 16.3549 103.332 16.7406 104.415 17.512C105.511 18.2834 106.316 19.3458 106.831 20.6991C107.345 22.0524 107.602 23.602 107.602 25.3478V37H101.066ZM87.83 37V17.0045H93.5546L94.326 20.3134V37H87.83ZM106.711 17.0045H114.141L118.242 31.316H117.247L121.327 17.0045H127.904L120.109 40.2277C119.162 42.9614 118.059 44.8426 116.8 45.8711C115.555 46.8996 114.1 47.4139 112.436 47.4139C111.421 47.4139 110.399 47.3192 109.37 47.1297C108.355 46.9538 107.34 46.656 106.325 46.2365V40.654C107.083 41.0059 107.821 41.2698 108.538 41.4457C109.269 41.6352 109.979 41.7299 110.67 41.7299C111.13 41.7299 111.563 41.6419 111.969 41.466C112.375 41.3036 112.747 41.0126 113.085 40.5931C113.424 40.1736 113.708 39.5984 113.938 38.8676L114.588 37L106.711 17.0045ZM130.988 14.4264C129.756 14.4264 128.802 14.1151 128.125 13.4926C127.462 12.8565 127.131 11.9633 127.131 10.813C127.131 9.68973 127.462 8.79653 128.125 8.1334C128.802 7.45673 129.756 7.1184 130.988 7.1184C132.179 7.1184 133.119 7.45673 133.809 8.1334C134.5 8.79653 134.845 9.68973 134.845 10.813C134.845 11.9633 134.5 12.8565 133.809 13.4926C133.119 14.1151 132.179 14.4264 130.988 14.4264ZM127.74 37V16.8827H134.236V37H127.74ZM150.471 37V25.3478C150.471 24.2922 150.214 23.514 149.699 23.0133C149.185 22.499 148.562 22.2419 147.832 22.2419C147.087 22.2419 146.404 22.4517 145.781 22.8712C145.159 23.2907 144.658 23.9674 144.279 24.9012C143.914 25.8215 143.731 27.0462 143.731 28.5755H141.762C141.762 25.7064 142.1 23.3719 142.777 21.572C143.467 19.7721 144.401 18.4526 145.578 17.6135C146.769 16.7744 148.116 16.3549 149.618 16.3549C151.337 16.3549 152.738 16.7406 153.82 17.512C154.916 18.2834 155.722 19.3458 156.236 20.6991C156.75 22.0524 157.007 23.602 157.007 25.3478V37H150.471ZM137.235 37V17.0045H142.96L143.731 20.3134V37H137.235ZM158.897 37V8.986H165.393V37H158.897ZM165.051 17.0045H172.481L176.582 31.316H175.587L179.667 17.0045H186.245L178.449 40.2277C177.502 42.9614 176.399 44.8426 175.141 45.8711C173.895 46.8996 172.441 47.4139 170.776 47.4139C169.761 47.4139 168.739 47.3192 167.711 47.1297C166.696 46.9538 165.681 46.656 164.666 46.2365V40.654C165.424 41.0059 166.161 41.2698 166.878 41.4457C167.609 41.6352 168.32 41.7299 169.01 41.7299C169.47 41.7299 169.903 41.6419 170.309 41.466C170.715 41.3036 171.087 41.0126 171.426 40.5931C171.764 40.1736 172.048 39.5984 172.278 38.8676L172.928 37L165.051 17.0045Z" fill="black"/>
</svg>
