<svg width="24" height="24" viewBox="0 0 24 24" fill="none" xmlns="http://www.w3.org/2000/svg">
<path fill-rule="evenodd" clip-rule="evenodd" d="M12 21C16.4183 21 20 17.4183 20 13C20 8.58172 16.4183 5 12 5C7.58172 5 4 8.58172 4 13C4 17.4183 7.58172 21 12 21ZM13 9C13 8.44772 12.5523 8 12 8C11.4477 8 11 8.44772 11 9V12.5858C11 13.1162 11.2107 13.6249 11.5858 14L13.2929 15.7071C13.6834 16.0976 14.3166 16.0976 14.7071 15.7071C15.0976 15.3166 15.0976 14.6834 14.7071 14.2929L13 12.5858V9Z" fill="black"/>
<path d="M7.46603 4.08497C7.21611 3.59355 6.61217 3.39402 6.14542 3.68744C4.75273 4.56297 3.57391 5.74001 2.69627 7.13137C2.40214 7.59767 2.60076 8.20192 3.0918 8.45258C3.58284 8.70325 4.17964 8.50456 4.4831 8.04427C5.15697 7.02212 6.03245 6.14797 7.05561 5.47564C7.51636 5.17288 7.71596 4.57639 7.46603 4.08497Z" fill="black"/>
<path d="M16.534 4.08497C16.7839 3.59355 17.3878 3.39402 17.8546 3.68744C19.2473 4.56297 20.4261 5.74001 21.3037 7.13137C21.5979 7.59767 21.3992 8.20192 20.9082 8.45258C20.4172 8.70325 19.8204 8.50456 19.5169 8.04427C18.843 7.02212 17.9676 6.14797 16.9444 5.47564C16.4836 5.17288 16.284 4.57639 16.534 4.08497Z" fill="black"/>
</svg>
