<svg width="24" height="24" viewBox="0 0 24 24" fill="none" xmlns="http://www.w3.org/2000/svg">
<path fill-rule="evenodd" clip-rule="evenodd" d="M12 19C15.3137 19 18 16.3137 18 13C18 9.68629 15.3137 7 12 7C8.68629 7 6 9.68629 6 13C6 16.3137 8.68629 19 12 19ZM12 21C16.4183 21 20 17.4183 20 13C20 8.58172 16.4183 5 12 5C7.58172 5 4 8.58172 4 13C4 17.4183 7.58172 21 12 21Z" fill="black"/>
<path d="M7.46605 4.08515C7.21613 3.59373 6.61218 3.3942 6.14543 3.68762C4.75275 4.56315 3.57392 5.74019 2.69629 7.13155C2.40216 7.59785 2.60078 8.2021 3.09182 8.45277C3.58285 8.70343 4.17965 8.50474 4.48311 8.04445C5.15699 7.02231 6.03246 6.14816 7.05563 5.47583C7.51638 5.17307 7.71597 4.57657 7.46605 4.08515Z" fill="black"/>
<path d="M16.534 4.08515C16.7839 3.59373 17.3878 3.3942 17.8546 3.68762C19.2473 4.56315 20.4261 5.74019 21.3037 7.13155C21.5978 7.59785 21.3992 8.2021 20.9082 8.45277C20.4171 8.70343 19.8203 8.50474 19.5169 8.04445C18.843 7.02231 17.9675 6.14816 16.9444 5.47583C16.4836 5.17307 16.284 4.57657 16.534 4.08515Z" fill="black"/>
<path fill-rule="evenodd" clip-rule="evenodd" d="M12 8C12.5523 8 13 8.44772 13 9V12.5858L14.7071 14.2929C15.0976 14.6834 15.0976 15.3166 14.7071 15.7071C14.3166 16.0976 13.6834 16.0976 13.2929 15.7071L11.5858 14C11.2107 13.6249 11 13.1162 11 12.5858V9C11 8.44772 11.4477 8 12 8Z" fill="black"/>
</svg>
