<svg width="24" height="24" viewBox="0 0 24 24" fill="none" xmlns="http://www.w3.org/2000/svg">
<path d="M19.5741 13.2391C19.5741 12.1148 19.1279 11.036 18.3329 10.241C17.5379 9.44609 16.4591 8.99982 15.3348 8.99982H6.87L9.25085 6.61798C9.64113 6.22744 9.6413 5.59436 9.25085 5.20392C8.86038 4.8139 8.22719 4.81378 7.83679 5.20392L3.7489 9.29279C3.35848 9.68321 3.35868 10.3163 3.7489 10.7068L7.83679 14.7947C8.22732 15.1853 8.86033 15.1853 9.25085 14.7947C9.64126 14.4042 9.64134 13.7712 9.25085 13.3807L6.87 10.9998H15.3348C15.9287 10.9998 16.4979 11.2362 16.9178 11.6561C17.3378 12.076 17.5741 12.6452 17.5741 13.2391C17.5741 13.833 17.3378 14.4021 16.9178 14.8221C16.4979 15.242 15.9287 15.4783 15.3348 15.4783C14.7827 15.4784 14.3349 15.9261 14.3348 16.4783C14.3348 17.0306 14.7826 17.4782 15.3348 17.4783C16.4591 17.4783 17.5379 17.0321 18.3329 16.2371C19.1279 15.4421 19.5741 14.3634 19.5741 13.2391Z" fill="#11181D" fill-opacity="0.9"/>
</svg>
