<svg width="24" height="24" viewBox="0 0 24 24" fill="none" xmlns="http://www.w3.org/2000/svg">
<path d="M11 3C12.3261 3 13.5975 3.52716 14.5352 4.46484C15.4728 5.40253 16 6.67392 16 8V17.5859L19.293 14.293C19.6835 13.9024 20.3165 13.9024 20.707 14.293C21.0976 14.6835 21.0976 15.3165 20.707 15.707L15.707 20.707C15.6592 20.7548 15.6065 20.7976 15.5498 20.835C15.5121 20.8599 15.4727 20.8811 15.4326 20.9004C15.3874 20.9222 15.3407 20.9412 15.292 20.9561C15.2717 20.9622 15.251 20.9668 15.2305 20.9717C15.2191 20.9744 15.2078 20.9772 15.1963 20.9795C15.1859 20.9816 15.1754 20.9826 15.165 20.9844C15.1112 20.9933 15.0563 21 15 21C14.9433 21 14.8881 20.9934 14.834 20.9844C14.8236 20.9826 14.8131 20.9816 14.8027 20.9795C14.7912 20.9772 14.7799 20.9744 14.7686 20.9717C14.748 20.9668 14.7273 20.9623 14.707 20.9561C14.6584 20.9412 14.6116 20.9222 14.5664 20.9004C14.5266 20.8812 14.4877 20.8597 14.4502 20.835C14.3935 20.7976 14.3408 20.7548 14.293 20.707L9.29297 15.707C8.90244 15.3165 8.90244 14.6835 9.29297 14.293C9.68349 13.9024 10.3165 13.9024 10.707 14.293L14 17.5859V8C14 7.20435 13.6837 6.44152 13.1211 5.87891C12.6289 5.38671 11.9835 5.08291 11.2969 5.01465L11 5H4C3.44772 5 3 4.55228 3 4C3 3.44772 3.44772 3 4 3H11Z" fill="#12191D"/>
</svg>
