<svg width="24" height="24" viewBox="0 0 24 24" fill="none" xmlns="http://www.w3.org/2000/svg">
<path fill-rule="evenodd" clip-rule="evenodd" d="M12 2C6.49 2 2 6.49 2 12C2 17.51 6.49 22 12 22C17.51 22 22 17.51 22 12C22 6.49 17.51 2 12 2ZM11.1588 16.0927L17.8651 9.38641C18.2707 8.96681 18.2707 8.30943 17.8651 7.90382C17.4595 7.4982 16.7881 7.4982 16.3825 7.90382L10.4175 13.8688L7.9561 11.4075C7.55049 11.0018 6.87913 11.0018 6.47351 11.4075C6.0679 11.8131 6.0679 12.4844 6.47351 12.89L9.67616 16.0927C9.87198 16.2885 10.1377 16.4004 10.4175 16.4004C10.6972 16.4004 10.9629 16.2885 11.1588 16.0927Z" fill="black"/>
</svg>
