<svg width="24" height="24" viewBox="0 0 24 24" fill="none" xmlns="http://www.w3.org/2000/svg">
<path d="M12 2C17.51 2 22 6.49 22 12C22 17.51 17.51 22 12 22C6.49 22 2 17.51 2 12C2 6.49 6.49 2 12 2ZM17.8652 7.9043C17.4596 7.49868 16.7884 7.49868 16.3828 7.9043L10.417 13.8691L7.95605 11.4072C7.55048 11.0018 6.87922 11.0018 6.47363 11.4072C6.06806 11.8128 6.06816 12.484 6.47363 12.8896L9.67578 16.0928C9.87149 16.2885 10.1374 16.4003 10.417 16.4004C10.6967 16.4004 10.9634 16.2886 11.1592 16.0928L17.8652 9.38672C18.2707 8.96722 18.2705 8.30994 17.8652 7.9043Z" fill="#12191D"/>
</svg>
