<svg width="24" height="24" viewBox="0 0 24 24" fill="none" xmlns="http://www.w3.org/2000/svg">
<path d="M12 2C17.51 2 22 6.49 22 12C22 17.51 17.51 22 12 22C6.49 22 2 17.51 2 12C2 6.49 6.49 2 12 2ZM16.2266 7.77344C15.8619 7.40887 15.2584 7.40905 14.8936 7.77344L12 10.666L9.10645 7.77344C8.74164 7.40905 8.13813 7.40887 7.77344 7.77344C7.40872 8.13809 7.4087 8.74181 7.77344 9.10645L10.667 11.998L7.77344 14.8906C7.40879 15.2553 7.4087 15.859 7.77344 16.2236C7.96211 16.4122 8.20146 16.5 8.44043 16.5C8.67921 16.5 8.91787 16.4119 9.10645 16.2236L12 13.3311L14.8936 16.2236C15.0821 16.4119 15.3208 16.5 15.5596 16.5C15.7985 16.5 16.0379 16.4122 16.2266 16.2236C16.5913 15.859 16.5912 15.2553 16.2266 14.8906L13.333 11.998L16.2266 9.10645C16.5913 8.74181 16.5913 8.13809 16.2266 7.77344Z" fill="#11181D" fill-opacity="0.9"/>
</svg>
