<svg width="24" height="24" viewBox="0 0 24 24" fill="none" xmlns="http://www.w3.org/2000/svg">
<path fill-rule="evenodd" clip-rule="evenodd" d="M2 12C2 6.49 6.49 2 12 2C17.51 2 22 6.49 22 12C22 17.51 17.51 22 12 22C6.49 22 2 17.51 2 12ZM16.2264 16.2234C16.5912 15.8587 16.5912 15.2552 16.2264 14.8905L13.3333 11.9984L16.2264 9.10636C16.5912 8.7417 16.5912 8.13814 16.2264 7.77349C15.8616 7.40884 15.2579 7.40884 14.8931 7.77349L12 10.6656L9.10692 7.77349C8.74214 7.40884 8.13836 7.40884 7.77358 7.77349C7.4088 8.13814 7.4088 8.7417 7.77358 9.10636L10.6667 11.9984L7.77358 14.8905C7.4088 15.2552 7.4088 15.8587 7.77358 16.2234C7.96226 16.412 8.20126 16.5 8.44025 16.5C8.67924 16.5 8.91824 16.412 9.10692 16.2234L12 13.3313L14.8931 16.2234C15.0818 16.412 15.3208 16.5 15.5597 16.5C15.7987 16.5 16.0377 16.412 16.2264 16.2234Z" fill="black"/>
</svg>
