<svg width="24" height="24" viewBox="0 0 24 24" fill="none" xmlns="http://www.w3.org/2000/svg">
<path d="M4 2C4.55228 2 5 2.44772 5 3H10.0264C10.6712 3 11.312 3.10369 11.9238 3.30762L13.0762 3.69238C13.688 3.89631 14.3288 4 14.9736 4H18C19.6569 4 21 5.34315 21 7V13C21 14.6569 19.6569 16 18 16H14.9736C14.3288 16 13.688 15.8963 13.0762 15.6924L11.9238 15.3076C11.312 15.1037 10.6712 15 10.0264 15H5V21C5 21.5523 4.55228 22 4 22C3.44772 22 3 21.5523 3 21V3C3 2.44772 3.44772 2 4 2Z" fill="#11181D" fill-opacity="0.9"/>
</svg>
