<svg width="24" height="24" viewBox="0 0 24 24" fill="none" xmlns="http://www.w3.org/2000/svg">
<path d="M12 20.75C15.7586 20.75 18.75 18.1284 18.75 15C18.75 13.3946 17.855 11.2783 16.6895 8.96483C16.1479 7.88981 15.5076 6.69238 15.0127 5.68748C14.5079 4.66248 14.0478 3.63233 13.8194 2.72362C13.8064 2.67216 13.7816 2.60917 13.7461 2.54784C13.7369 2.53201 13.7258 2.51896 13.7168 2.50584C12.5622 2.8891 10.9523 3.84271 10.1973 6.35936C10.0397 6.88458 9.72956 7.77654 9.37306 8.416C9.28081 8.58147 9.16703 8.76518 9.03029 8.93163C8.91296 9.07441 8.68223 9.3267 8.32814 9.47166C8.13116 9.55224 7.87499 9.60789 7.58595 9.56834C7.29278 9.52822 7.04914 9.40148 6.86427 9.24803C6.6171 9.04281 6.4724 8.7883 6.38478 8.58202L6.31447 8.39549C6.2856 8.30887 6.25305 8.21866 6.22072 8.12498C5.72249 10.2346 5.25002 12.6176 5.25002 14C5.25002 18.2335 8.35913 20.75 12 20.75Z" stroke="#12191D" stroke-width="2.5" stroke-linecap="round" stroke-linejoin="round"/>
</svg>
