<svg width="24" height="24" viewBox="0 0 24 24" fill="none" xmlns="http://www.w3.org/2000/svg">
<path d="M13.5859 1.23693C14.2557 1.04398 14.8613 1.74256 15.0312 2.41857C15.8052 5.49769 19.9997 11.1031 20 14.9996C20 18.9996 16.2526 21.9996 12 21.9996C7.74745 21.9996 4 18.9996 4 13.9996C4.0001 12.2101 4.68403 9.09421 5.25195 6.81506C5.48217 5.89118 6.71743 5.82701 7.04688 6.72033C7.21381 7.17301 7.37298 7.61859 7.5 7.99963C7.88448 9.15306 8.7 6.99963 9 5.99963C9.95691 2.81037 12.1344 1.65511 13.5859 1.23693ZM12.4961 11.0113C10.7586 8.24254 6.95531 18.6341 11.9258 18.5377C14.8413 18.4809 14.8786 15.9861 14.125 13.9977C13.5938 12.596 12.4961 11.6848 12.4961 11.0113Z" fill="#12191D"/>
</svg>
