<svg width="24" height="24" viewBox="0 0 24 24" fill="none" xmlns="http://www.w3.org/2000/svg">
<path d="M12 20.75C15.7586 20.75 18.75 18.1284 18.75 15C18.75 13.3946 17.855 11.2783 16.6895 8.96484C16.1479 7.88982 15.5076 6.6924 15.0127 5.6875C14.5079 4.66249 14.0478 3.63235 13.8194 2.72363C13.8064 2.67217 13.7816 2.60919 13.7461 2.54785C13.7369 2.53203 13.7258 2.51898 13.7168 2.50586C12.5622 2.88911 10.9523 3.84273 10.1973 6.35938C10.0397 6.8846 9.72956 7.77655 9.37306 8.41602C9.28081 8.58149 9.16703 8.7652 9.03029 8.93164C8.91296 9.07443 8.68223 9.32671 8.32814 9.47168C8.13116 9.55225 7.87499 9.60791 7.58595 9.56836C7.29278 9.52824 7.04914 9.40149 6.86427 9.24805C6.6171 9.04283 6.4724 8.78832 6.38478 8.58203L6.31447 8.39551C6.2856 8.30889 6.25305 8.21867 6.22072 8.125C5.72249 10.2347 5.25002 12.6176 5.25002 14C5.25002 18.2335 8.35913 20.75 12 20.75Z" stroke="#12191D" stroke-width="2.5" stroke-linecap="round" stroke-linejoin="round"/>
</svg>
