<svg width="24" height="24" viewBox="0 0 24 24" fill="none" xmlns="http://www.w3.org/2000/svg">
<path fill-rule="evenodd" clip-rule="evenodd" d="M2.99311 9.08818C2.36096 9.65711 2 10.4676 2 11.3181V18.982C2 20.6388 3.34315 21.982 5 21.982H19C20.6569 21.982 22 20.6388 22 18.982V11.3181C22 10.4676 21.639 9.65711 21.0069 9.08818L14.0069 2.78818C12.866 1.76136 11.134 1.76136 9.9931 2.78818L2.99311 9.08818ZM11 12.982C9.89543 12.982 9 13.8774 9 14.982V18.982C9 19.5343 9.44772 19.982 10 19.982H14C14.5523 19.982 15 19.5343 15 18.982V14.982C15 13.8774 14.1046 12.982 13 12.982H11Z" fill="black"/>
</svg>
