<svg width="24" height="24" viewBox="0 0 24 24" fill="none" xmlns="http://www.w3.org/2000/svg">
<path fill-rule="evenodd" clip-rule="evenodd" d="M2.99311 9.08815C2.36096 9.65708 2 10.4676 2 11.318V18.9819C2 20.6388 3.34315 21.9819 5 21.9819H19C20.6569 21.9819 22 20.6388 22 18.9819V11.318C22 10.4676 21.639 9.65708 21.0069 9.08815L14.0069 2.78815C12.866 1.76133 11.134 1.76133 9.9931 2.78815L2.99311 9.08815ZM11 12.9819C9.89543 12.9819 9 13.8774 9 14.9819V18.9819C9 19.5342 9.44772 19.9819 10 19.9819H14C14.5523 19.9819 15 19.5342 15 18.9819V14.9819C15 13.8774 14.1046 12.9819 13 12.9819H11Z" fill="#12191D"/>
</svg>
