<svg width="24" height="24" viewBox="0 0 24 24" fill="none" xmlns="http://www.w3.org/2000/svg">
<path d="M12 20.9571C12.654 16.9877 9.44014 13.5437 12.5928 10.0757" stroke="black" stroke-width="2" stroke-linecap="round" stroke-linejoin="round"/>
<path d="M8.45346 10.3332C9.14481 10.675 9.58476 11.2732 9.89901 11.9142C8.64201 12.0851 7.69926 12.0851 6.88221 11.786C6.12801 11.5296 5.43665 10.9741 4.9967 9.99131C6.75651 9.77765 7.76211 9.99131 8.45346 10.3332Z" fill="black" stroke="black" stroke-width="2" stroke-linecap="round" stroke-linejoin="round"/>
<path d="M13.7192 5.51015C13.6989 5.52953 13.6802 5.5506 13.6634 5.57312C12.7299 6.82376 12.0718 8.36031 12.1311 9.92457C12.1361 10.0577 12.1941 10.1833 12.2921 10.2736C12.3902 10.3638 12.5202 10.4111 12.6533 10.4051C14.9445 10.3018 16.1357 9.88014 17.3945 9.01688C17.4093 9.00674 17.4235 8.99581 17.4371 8.98414C18.7148 7.88883 19.5807 6.149 20.1185 4.02509C20.1564 3.87557 20.1231 3.71695 20.0284 3.59524C19.9337 3.47352 19.7881 3.40234 19.6338 3.40234C17.9553 3.40234 16.7548 3.65211 15.8236 4.05277C14.8897 4.4546 14.2611 4.99405 13.7192 5.51015Z" fill="black" stroke="black" stroke-linecap="round" stroke-linejoin="round"/>
</svg>
