<svg width="24" height="24" viewBox="0 0 24 24" fill="none" xmlns="http://www.w3.org/2000/svg">
<path fill-rule="evenodd" clip-rule="evenodd" d="M11.2871 11.6964L10.3439 10.7481C10.0594 10.4622 9.59684 10.4622 9.3124 10.7481C9.02795 11.0341 9.02795 11.4992 9.3124 11.7851L11.2869 13.7702V18.3338L10.3437 17.3855C10.0593 17.0987 9.59667 17.0987 9.31223 17.3855C9.02778 17.6715 9.02778 18.1365 9.31223 18.4225L11.2868 20.4076V22.2666C11.2868 22.6715 11.6136 23 12.0162 23C12.4189 23 12.7457 22.6715 12.7457 22.2666V20.4114L14.694 18.4526C14.9785 18.1666 14.9785 17.7016 14.694 17.4156C14.4096 17.1296 13.947 17.1296 13.6625 17.4156L12.7457 18.3374V13.7738L14.694 11.8151C14.9785 11.5291 14.9785 11.0641 14.694 10.7781C14.4096 10.4921 13.947 10.4921 13.6625 10.7781L12.7457 11.6998V11.2664C12.7457 10.8616 12.4189 10.533 12.0162 10.533C11.6136 10.533 11.2868 10.8616 11.2868 11.2664V11.6961L11.2871 11.6964ZM3.07938 12.3008C2.87666 12.344 2.70147 12.4717 2.5979 12.6521C2.49435 12.8325 2.47172 13.0489 2.53587 13.2467C2.53587 13.2467 3.06407 14.863 3.75767 16.0525C4.11441 16.6648 4.53238 17.162 4.92916 17.3923C5.69216 17.8352 6.85861 18.023 7.82936 17.8199C8.57852 17.6629 9.20651 17.2772 9.54647 16.6853C9.88645 16.0927 9.90534 15.3535 9.66533 14.6224C9.35532 13.6756 8.60976 12.7545 7.84676 12.3117C7.44997 12.0814 6.81237 11.9655 6.10701 11.9612C4.7349 11.9524 3.07914 12.3007 3.07914 12.3007L3.07938 12.3008ZM21.4631 13.2468C21.5281 13.0487 21.5054 12.8324 21.4019 12.6521C21.2983 12.4717 21.1233 12.344 20.9204 12.3008C20.9204 12.3008 19.2645 11.9524 17.8925 11.9613C17.1864 11.9657 16.5496 12.0816 16.1528 12.3117C15.3898 12.7547 14.6442 13.6758 14.3342 14.6225C14.0942 15.3537 14.1133 16.0928 14.4531 16.6854C14.793 17.2771 15.4202 17.6629 16.1702 17.8199C17.1411 18.0231 18.3074 17.8353 19.0704 17.3923C19.4672 17.162 19.8852 16.6649 20.2419 16.0525C20.9355 14.8629 21.463 13.2468 21.463 13.2468L21.4631 13.2468ZM19.7868 13.5892C19.6424 13.9588 19.4521 14.4127 19.2332 14.8483C18.9597 15.3918 18.6715 15.9307 18.3412 16.1222C17.8488 16.4082 17.0938 16.5152 16.4679 16.3839C16.152 16.318 15.8596 16.2012 15.7166 15.9519C15.5729 15.7026 15.6189 15.3895 15.7196 15.0814C15.9202 14.4705 16.3899 13.8678 16.8823 13.5817C17.2127 13.3895 17.8203 13.4078 18.4259 13.4415C18.9109 13.4687 19.3968 13.5296 19.7871 13.5889L19.7868 13.5892ZM4.21336 13.5892C4.60364 13.5298 5.08936 13.4689 5.57455 13.4419C6.17928 13.4082 6.78759 13.3898 7.1181 13.582C7.61045 13.868 8.08022 14.4709 8.28083 15.0818C8.38146 15.3898 8.42672 15.703 8.28377 15.9523C8.14081 16.2016 7.84822 16.3183 7.53252 16.3843C6.90599 16.5156 6.15161 16.4085 5.65926 16.1225C5.32889 15.9312 5.03989 15.3921 4.76717 14.8487C4.54833 14.4131 4.35718 13.9591 4.21358 13.5895L4.21336 13.5892ZM3.0798 5.664C2.87708 5.70656 2.70189 5.83408 2.59832 6.01447C2.49476 6.19486 2.47213 6.41127 2.53628 6.60916C2.53628 6.60916 3.06449 8.22546 3.75809 9.4157C4.11483 10.0273 4.5328 10.5246 4.92958 10.7547C5.69258 11.1977 6.85903 11.3861 7.82977 11.1829C8.57894 11.026 9.20693 10.6403 9.54689 10.0477C9.88686 9.45597 9.90575 8.71592 9.66575 7.9855C9.35574 7.03869 8.61018 6.11693 7.84718 5.67399C7.45038 5.44367 6.81278 5.32859 6.10743 5.32352C4.73532 5.31468 3.07956 5.66384 3.07956 5.66384L3.0798 5.664ZM21.4635 6.60935C21.5285 6.41128 21.5058 6.19504 21.4023 6.01467C21.2987 5.83428 21.1237 5.7066 20.9208 5.6642C20.9208 5.6642 19.2649 5.31521 17.8929 5.32388C17.1868 5.32895 16.55 5.4442 16.1532 5.67435C15.3902 6.11729 14.6447 7.03905 14.3346 7.98587C14.0946 8.71628 14.1137 9.45617 14.4535 10.0481C14.7935 10.6407 15.4206 11.0263 16.1706 11.1833C17.1415 11.3865 18.3078 11.198 19.0708 10.7551C19.4676 10.5248 19.8856 10.0276 20.2423 9.41606C20.9359 8.22586 21.4635 6.60952 21.4635 6.60952L21.4635 6.60935ZM19.7872 6.9518C19.6428 7.32208 19.4525 7.77533 19.2337 8.21094C18.9601 8.75442 18.6719 9.29328 18.3416 9.48479C17.8492 9.77076 17.0942 9.87782 16.4683 9.74735C16.1524 9.68056 15.86 9.56402 15.7171 9.31472C15.5733 9.06541 15.6194 8.75226 15.72 8.44501C15.9206 7.83411 16.3903 7.23058 16.8827 6.94458C17.2131 6.75322 17.8208 6.77074 18.4263 6.80445C18.9113 6.83163 19.3972 6.89252 19.7875 6.95178L19.7872 6.9518ZM4.21377 6.9518C4.60406 6.89238 5.08978 6.83149 5.57496 6.80448C6.17969 6.77076 6.78801 6.75308 7.11851 6.9446C7.61087 7.23057 8.08063 7.83413 8.28125 8.44503C8.38188 8.75229 8.42714 9.06545 8.28418 9.31474C8.14122 9.56404 7.84864 9.68076 7.53293 9.74738C6.9064 9.87784 6.15203 9.77079 5.65967 9.48481C5.32931 9.29346 5.04031 8.7544 4.76758 8.21097C4.54875 7.77536 4.3576 7.3221 4.21399 6.95183L4.21377 6.9518ZM12.5599 1.24341C12.422 1.08872 12.2243 1 12.0172 1C11.8101 1 11.6124 1.08872 11.4745 1.24341C11.4745 1.24341 10.3453 2.51139 9.66762 3.71044C9.3182 4.32725 9.09936 4.93945 9.09936 5.40008C9.09936 6.286 9.52027 7.3955 10.1811 8.13916C10.6911 8.71339 11.3373 9.06682 12.0171 9.06682C12.6969 9.06682 13.3433 8.71341 13.8531 8.13916C14.514 7.3955 14.9349 6.28596 14.9349 5.40008C14.9349 4.93962 14.7161 4.32721 14.3667 3.71044C13.689 2.51139 12.5598 1.24341 12.5598 1.24341H12.5599ZM12.0172 2.87446C12.2637 3.18548 12.5592 3.57768 12.8246 3.98626C13.1564 4.496 13.4761 5.01656 13.4761 5.40008C13.4761 5.97138 13.1916 6.68277 12.7649 7.16225C12.5505 7.40419 12.3039 7.60012 12.0172 7.60012C11.7304 7.60012 11.4839 7.40434 11.2695 7.16225C10.8427 6.68264 10.5583 5.97121 10.5583 5.40008C10.5583 5.01654 10.8778 4.49584 11.2097 3.98626C11.4753 3.57785 11.7707 3.18549 12.0172 2.87446Z" fill="black"/>
</svg>
