<svg width="24" height="24" viewBox="0 0 24 24" fill="none" xmlns="http://www.w3.org/2000/svg">
<path d="M10.3439 10.7481L11.2871 11.6964L11.2868 11.2664C11.2868 10.8616 11.6136 10.533 12.0162 10.533C12.4189 10.533 12.7457 10.8616 12.7457 11.2664V11.6998L13.6625 10.7781C13.947 10.4921 14.4096 10.4921 14.694 10.7781C14.9785 11.0641 14.9785 11.5291 14.694 11.8151L12.7457 13.7738V18.3374L13.6625 17.4156C13.947 17.1296 14.4096 17.1296 14.694 17.4156C14.9785 17.7016 14.9785 18.1666 14.694 18.4526L12.7457 20.4114V22.2666C12.7457 22.6715 12.4189 23 12.0162 23C11.6136 23 11.2868 22.6715 11.2868 22.2666V20.4076L9.31223 18.4225C9.02778 18.1365 9.02778 17.6715 9.31223 17.3855C9.59667 17.0987 10.0593 17.0987 10.3437 17.3855L11.2869 18.3338V13.7702L9.3124 11.7851C9.02795 11.4992 9.02795 11.0341 9.3124 10.7481C9.59684 10.4622 10.0594 10.4622 10.3439 10.7481Z" fill="black"/>
<path d="M2.5979 12.6521C2.70147 12.4717 2.87666 12.344 3.07938 12.3008C3.07938 12.3008 4.7349 11.9524 6.10701 11.9612C6.81237 11.9655 7.44997 12.0814 7.84676 12.3117C8.60976 12.7545 9.35532 13.6756 9.66534 14.6224C9.90534 15.3535 9.88645 16.0927 9.54647 16.6853C9.20651 17.2772 8.57852 17.6629 7.82936 17.8199C6.85861 18.023 5.69216 17.8352 4.92916 17.3923C4.53238 17.162 4.11441 16.6648 3.75767 16.0525C3.06407 14.863 2.53587 13.2467 2.53587 13.2467C2.47172 13.0489 2.49435 12.8325 2.5979 12.6521Z" fill="black"/>
<path d="M21.4019 12.6521C21.5054 12.8324 21.5281 13.0487 21.4631 13.2468C21.4631 13.2468 20.9355 14.8629 20.2419 16.0525C19.8852 16.6649 19.4672 17.162 19.0704 17.3923C18.3074 17.8353 17.1411 18.0231 16.1702 17.8199C15.4202 17.6629 14.793 17.2771 14.4531 16.6854C14.1133 16.0928 14.0942 15.3537 14.3342 14.6225C14.6442 13.6758 15.3898 12.7547 16.1528 12.3117C16.5496 12.0816 17.1864 11.9657 17.8925 11.9613C19.2645 11.9524 20.9204 12.3008 20.9204 12.3008C21.1233 12.344 21.2983 12.4717 21.4019 12.6521Z" fill="black"/>
<path d="M2.59832 6.01447C2.70189 5.83408 2.87708 5.70656 3.0798 5.664C3.0798 5.664 4.73532 5.31468 6.10743 5.32352C6.81278 5.32859 7.45038 5.44367 7.84718 5.67399C8.61018 6.11693 9.35574 7.03869 9.66575 7.9855C9.90575 8.71592 9.88686 9.45597 9.54689 10.0477C9.20693 10.6403 8.57894 11.026 7.82977 11.1829C6.85903 11.3861 5.69258 11.1977 4.92958 10.7547C4.5328 10.5246 4.11483 10.0273 3.75809 9.4157C3.06449 8.22546 2.53628 6.60916 2.53628 6.60916C2.47213 6.41127 2.49476 6.19486 2.59832 6.01447Z" fill="black"/>
<path d="M21.4023 6.01467C21.5058 6.19504 21.5285 6.41128 21.4635 6.60935C21.4635 6.60935 20.9359 8.22586 20.2423 9.41606C19.8856 10.0276 19.4676 10.5248 19.0708 10.7551C18.3078 11.198 17.1415 11.3865 16.1706 11.1833C15.4206 11.0263 14.7935 10.6407 14.4535 10.0481C14.1137 9.45617 14.0946 8.71628 14.3346 7.98587C14.6447 7.03905 15.3902 6.11729 16.1532 5.67435C16.55 5.4442 17.1868 5.32895 17.8929 5.32388C19.2649 5.31521 20.9208 5.6642 20.9208 5.6642C21.1237 5.7066 21.2987 5.83428 21.4023 6.01467Z" fill="black"/>
<path d="M12.0172 1C12.2243 1 12.422 1.08872 12.5599 1.24341C12.5599 1.24341 13.689 2.51139 14.3667 3.71044C14.7161 4.32721 14.9349 4.93962 14.9349 5.40008C14.9349 6.28596 14.514 7.3955 13.8531 8.13916C13.3433 8.71341 12.6969 9.06682 12.0171 9.06682C11.3373 9.06682 10.6911 8.71339 10.1811 8.13916C9.52027 7.3955 9.09936 6.286 9.09936 5.40008C9.09936 4.93945 9.3182 4.32725 9.66762 3.71044C10.3453 2.51139 11.4745 1.24341 11.4745 1.24341C11.6124 1.08872 11.8101 1 12.0172 1Z" fill="black"/>
</svg>
