<svg width="24" height="24" viewBox="0 0 24 24" fill="none" xmlns="http://www.w3.org/2000/svg">
<path d="M4.95983 9.65561C7.96489 7.70412 11.1324 8.703 13.1609 11.3869C9.44724 10.3723 7.44997 14.8194 4.65709 14.8342C3.58953 14.8342 3.8604 14.659 2.95218 14.6907C2.2354 14.7141 1.70935 15.9018 1.45441 15.631C2.25109 14.0057 2.28296 11.5838 4.95983 9.65561Z" fill="#11181D" fill-opacity="0.9"/>
<path d="M14.5652 4.67677C12.4587 6.42438 13.2545 10.0447 13.2545 11.449C14.1127 9.3269 16.8122 9.37371 18.0293 8.71836C19.2463 8.063 20.4946 7.20486 21.0096 6.1126C21.3104 5.47451 21.4777 4.44301 21.5089 3.9593C21.5401 3.47558 22.3827 3.3507 22.3827 3.13235C18.8562 2.61765 16.6717 2.92915 14.5652 4.67677Z" fill="#11181D" fill-opacity="0.9"/>
<path d="M12.717 20.5759C14.2617 15.4267 13.2701 12.4477 12.5212 10.3725C12.3959 10.1084 12.4601 9.72352 12.9581 10.2631C15.8474 14.1223 14.6044 19.4381 14.3865 20.3993C14.1136 21.6033 14.0334 21.9404 13.1609 21.7942C12.4424 21.6737 12.5141 21.2311 12.717 20.5759Z" fill="#11181D" fill-opacity="0.9"/>
</svg>
