<svg width="24" height="24" viewBox="0 0 24 24" fill="none" xmlns="http://www.w3.org/2000/svg">
<path d="M4.95982 9.65579C7.96489 7.7043 11.1324 8.70319 13.1609 11.3871C9.44723 10.3725 7.44997 14.8196 4.65708 14.8344C3.58952 14.8344 3.8604 14.6592 2.95217 14.6908C2.23539 14.7143 1.70934 15.902 1.4544 15.6311C2.25109 14.0059 2.28296 11.584 4.95982 9.65579Z" fill="black"/>
<path d="M14.5652 4.67678C12.4587 6.42439 13.2545 10.0447 13.2545 11.449C14.1127 9.32692 16.8122 9.37373 18.0293 8.71837C19.2463 8.06302 20.4946 7.20487 21.0096 6.11262C21.3104 5.47453 21.4777 4.44302 21.5089 3.95931C21.5401 3.4756 22.3827 3.35072 22.3827 3.13236C18.8562 2.61766 16.6717 2.92917 14.5652 4.67678Z" fill="black"/>
<path d="M12.717 20.5757C14.2617 15.4265 13.2701 12.4476 12.5212 10.3723C12.3959 10.1083 12.4601 9.72336 12.9581 10.2629C15.8474 14.1222 14.6044 19.438 14.3865 20.3991C14.1136 21.6031 14.0334 21.9403 13.1609 21.794C12.4424 21.6736 12.5141 21.2309 12.717 20.5757Z" fill="black"/>
</svg>
