<svg width="24" height="24" viewBox="0 0 24 24" fill="none" xmlns="http://www.w3.org/2000/svg">
<path d="M3.96591 14.7428C5.0507 10.6943 9.21202 8.29177 13.2605 9.37655C15.5334 9.98558 17.2573 11.5573 18.1515 13.5496L16.697 13.1553C16.164 13.0108 15.6147 13.3257 15.4702 13.8588C15.3257 14.3918 15.6407 14.9411 16.1737 15.0856L19.3441 15.9451C19.3795 15.9568 19.4156 15.9666 19.4524 15.9744L19.8581 16.0844C20.1146 16.1539 20.3882 16.1185 20.6185 15.986C20.8488 15.8535 21.0169 15.6347 21.0857 15.3781L22.0737 11.6908C22.2166 11.1573 21.9 10.609 21.3666 10.4661C20.8331 10.3231 20.2848 10.6397 20.1418 11.1732L19.8154 12.3915C18.6483 10.0401 16.5356 8.18356 13.7781 7.4447C8.66273 6.07403 3.40473 9.10974 2.03406 14.2251C1.89112 14.7586 2.2077 15.3069 2.74117 15.4499C3.27464 15.5928 3.82297 15.2762 3.96591 14.7428Z" fill="#12191D"/>
</svg>
