<svg width="24" height="24" viewBox="0 0 24 24" fill="none" xmlns="http://www.w3.org/2000/svg">
<path fill-rule="evenodd" clip-rule="evenodd" d="M18.3639 2.8076C17.1924 1.63603 15.2929 1.63603 14.1213 2.8076L2.80759 14.1213C1.63601 15.2929 1.63601 17.1924 2.80759 18.364L5.63601 21.1924C6.80758 22.364 8.70708 22.364 9.87865 21.1924L21.1924 9.87867C22.3639 8.7071 22.3639 6.8076 21.1924 5.63603L18.3639 2.8076ZM16.9497 4.22182C16.5592 3.83129 15.926 3.83129 15.5355 4.22182L14.8284 4.92896L16.2426 6.3432C16.6331 6.73373 16.6331 7.36689 16.2426 7.75742C15.8521 8.14794 15.2189 8.14794 14.8284 7.75742L13.4142 6.34317L12 7.75733L12.7071 8.46446C13.0977 8.85499 13.0977 9.48815 12.7071 9.87868C12.3166 10.2692 11.6834 10.2692 11.2929 9.87868L10.5858 9.17154L9.17154 10.5858L10.5858 12.0001C10.9763 12.3906 10.9763 13.0238 10.5858 13.4143C10.1953 13.8048 9.56212 13.8048 9.1716 13.4143L7.75732 12L6.34314 13.4142L7.05027 14.1213C7.4408 14.5118 7.4408 15.145 7.05027 15.5355C6.65975 15.9261 6.02659 15.9261 5.63606 15.5355L4.92892 14.8284L4.2218 15.5355C3.83127 15.9261 3.83127 16.5592 4.2218 16.9497L7.05023 19.7782C7.44075 20.1687 8.07392 20.1687 8.46444 19.7782L19.7781 8.46446C20.1687 8.07393 20.1687 7.44077 19.7781 7.05024L16.9497 4.22182Z" fill="#12191D"/>
</svg>
