<svg width="24" height="24" viewBox="0 0 24 24" fill="none" xmlns="http://www.w3.org/2000/svg">
<path d="M20.1417 14.7428C19.057 10.6943 14.8956 8.29179 10.8472 9.37657C8.57426 9.98559 6.85034 11.5573 5.95619 13.5496L7.41062 13.1553C7.94367 13.0108 8.49293 13.3258 8.63743 13.8588C8.78194 14.3918 8.46696 14.9411 7.93392 15.0856L4.76354 15.9451C4.72816 15.9568 4.69201 15.9667 4.65526 15.9744L4.24955 16.0844C3.99309 16.1539 3.71949 16.1185 3.48918 15.986C3.25886 15.8535 3.09076 15.6347 3.02198 15.3781L2.03399 11.6908C1.89105 11.1573 2.20763 10.609 2.74109 10.4661C3.27456 10.3231 3.8229 10.6397 3.96584 11.1732L4.29228 12.3915C5.4594 10.0402 7.57207 8.18358 10.3295 7.44472C15.4449 6.07405 20.7029 9.10976 22.0736 14.2252C22.2165 14.7586 21.9 15.307 21.3665 15.4499C20.833 15.5928 20.2847 15.2763 20.1417 14.7428Z" fill="#11181D" fill-opacity="0.9"/>
</svg>
